%TF.GenerationSoftware,KiCad,Pcbnew,7.0.10*%
%TF.CreationDate,2024-02-19T01:25:05+02:00*%
%TF.ProjectId,jox030,6a6f7830-3330-42e6-9b69-6361645f7063,rev?*%
%TF.SameCoordinates,Original*%
%TF.FileFunction,Profile,NP*%
%FSLAX46Y46*%
G04 Gerber Fmt 4.6, Leading zero omitted, Abs format (unit mm)*
G04 Created by KiCad (PCBNEW 7.0.10) date 2024-02-19 01:25:05*
%MOMM*%
%LPD*%
G01*
G04 APERTURE LIST*
%TA.AperFunction,Profile*%
%ADD10C,0.100000*%
%TD*%
%TA.AperFunction,Profile*%
%ADD11C,0.120000*%
%TD*%
G04 APERTURE END LIST*
D10*
X185420000Y-12827000D02*
X185420000Y-184170000D01*
X185420000Y-184170000D02*
X13960000Y-184170000D01*
X14450000Y-12550000D02*
X185420000Y-12550000D01*
X185420000Y-12550000D02*
X185420000Y-12828500D01*
X182097972Y-177469800D02*
G75*
G03*
X177769228Y-177469800I-2164372J0D01*
G01*
X177769228Y-177469800D02*
G75*
G03*
X182097972Y-177469800I2164372J0D01*
G01*
X182270548Y-19989800D02*
G75*
G03*
X177901452Y-19989800I-2184548J0D01*
G01*
X177901452Y-19989800D02*
G75*
G03*
X182270548Y-19989800I2184548J0D01*
G01*
X50220903Y-20040600D02*
G75*
G03*
X45791097Y-20040600I-2214903J0D01*
G01*
X45791097Y-20040600D02*
G75*
G03*
X50220903Y-20040600I2214903J0D01*
G01*
X14450000Y-12550000D02*
X13950000Y-12550000D01*
X27289141Y-177520600D02*
G75*
G03*
X22952059Y-177520600I-2168541J0D01*
G01*
X22952059Y-177520600D02*
G75*
G03*
X27289141Y-177520600I2168541J0D01*
G01*
X13950000Y-40160000D02*
X13960000Y-184170000D01*
X13950000Y-27160000D02*
X13950000Y-12550000D01*
D11*
%TO.C,J11*%
X14950000Y-31460000D02*
X13950000Y-31460000D01*
X13950000Y-31460000D02*
X13950000Y-27160000D01*
X15350000Y-35460000D02*
X15350000Y-31860000D01*
X14950000Y-35860000D02*
X13950000Y-35860000D01*
X13950000Y-35860000D02*
X13950000Y-40160000D01*
X15350000Y-31860000D02*
G75*
G03*
X14950000Y-31460000I-400002J-2D01*
G01*
X14950000Y-35860000D02*
G75*
G03*
X15350000Y-35460000I0J400000D01*
G01*
%TD*%
M02*
