M48
; DRILL file {KiCad 7.0.10} date Mon Feb 19 01:25:44 2024
; FORMAT={-:-/ absolute / metric / decimal}
; #@! TF.CreationDate,2024-02-19T01:25:44+02:00
; #@! TF.GenerationSoftware,Kicad,Pcbnew,7.0.10
; #@! TF.FileFunction,Plated,1,4,PTH
FMAT,2
METRIC
; #@! TA.AperFunction,Plated,PTH,ViaDrill
T1C0.400
; #@! TA.AperFunction,Plated,PTH,ComponentDrill
T2C0.400
; #@! TA.AperFunction,Plated,PTH,ComponentDrill
T3C0.600
; #@! TA.AperFunction,Plated,PTH,ComponentDrill
T4C0.787
; #@! TA.AperFunction,Plated,PTH,ComponentDrill
T5C0.800
; #@! TA.AperFunction,Plated,PTH,ComponentDrill
T6C0.900
; #@! TA.AperFunction,Plated,PTH,ComponentDrill
T7C1.000
; #@! TA.AperFunction,Plated,PTH,ComponentDrill
T8C1.100
; #@! TA.AperFunction,Plated,PTH,ComponentDrill
T9C1.400
; #@! TA.AperFunction,Plated,PTH,ComponentDrill
T10C4.300
%
G90
G05
T1
X15.251Y-153.549
X15.306Y-113.261
X15.635Y-155.126
X15.941Y-114.459
X16.107Y-118.107
X16.776Y-150.255
X16.945Y-125.128
X17.211Y-127.223
X17.241Y-138.858
X18.194Y-126.15
X18.382Y-94.13
X18.834Y-112.339
X19.368Y-149.03
X19.524Y-150.233
X20.766Y-41.078
X22.777Y-148.768
X22.82Y-25.058
X23.289Y-127.822
X23.42Y-23.27
X23.756Y-104.468
X24.38Y-26.716
X24.448Y-40.509
X24.872Y-124.126
X25.234Y-19.715
X25.324Y-125.128
X25.359Y-151.322
X25.712Y-99.131
X25.835Y-102.598
X25.989Y-95.906
X26.42Y-105.409
X26.42Y-115.388
X26.522Y-71.438
X26.529Y-70.413
X26.731Y-102.056
X26.748Y-119.819
X27.118Y-75.535
X27.15Y-129.682
X27.166Y-87.64
X27.485Y-23.742
X27.5Y-118.4
X27.622Y-29.202
X27.907Y-151.533
X27.921Y-115.863
X28.779Y-128.256
X29.554Y-103.468
X29.62Y-114.398
X30.089Y-91.169
X30.194Y-39.438
X30.326Y-104.48
X30.738Y-125.562
X31.237Y-108.335
X31.285Y-114.536
X31.48Y-24.325
X31.566Y-131.028
X31.595Y-116.946
X31.599Y-89.753
X31.866Y-78.286
X32.56Y-123.92
X32.681Y-122.059
X33.137Y-92.286
X33.288Y-26.588
X33.392Y-78.717
X33.495Y-55.043
X33.58Y-116.55
X33.603Y-93.933
X33.9Y-33.333
X34.007Y-114.916
X34.453Y-30.621
X34.537Y-115.806
X34.996Y-93.195
X35.315Y-88.982
X35.319Y-92.158
X35.652Y-76.512
X35.72Y-104.51
X35.897Y-110.587
X36.022Y-100.783
X36.72Y-133.24
X36.727Y-83.96
X37.048Y-98.896
X37.088Y-101.864
X37.249Y-150.889
X37.465Y-104.14
X37.628Y-109.835
X37.675Y-26.01
X37.728Y-83.96
X37.774Y-107.883
X38.095Y-115.035
X38.126Y-96.763
X38.317Y-129.835
X38.621Y-25.238
X38.735Y-90.805
X38.975Y-104.775
X39.329Y-37.624
X39.403Y-148.945
X39.44Y-91.563
X39.683Y-84.122
X39.983Y-104.94
X40.075Y-86.902
X40.233Y-127.92
X40.589Y-117.132
X40.665Y-121.024
X41.131Y-61.515
X41.233Y-84.595
X41.332Y-47.673
X41.35Y-31.79
X41.393Y-115.729
X41.415Y-90.862
X41.441Y-127.09
X41.575Y-76.366
X41.675Y-102.956
X42.22Y-107.26
X42.234Y-25.728
X42.369Y-81.32
X42.462Y-119.074
X42.808Y-127.404
X42.81Y-180.79
X43.315Y-153.775
X43.685Y-69.357
X44.02Y-34.861
X44.08Y-130.17
X44.095Y-36.941
X44.214Y-103.181
X44.323Y-16.034
X44.989Y-127.332
X45.074Y-73.393
X45.267Y-26.606
X45.433Y-117.004
X45.567Y-89.147
X45.607Y-34.533
X45.66Y-97.2
X45.83Y-41.084
X46.027Y-37.481
X46.042Y-69.255
X46.13Y-102.87
X46.15Y-127.49
X46.38Y-58.183
X46.391Y-109.677
X46.663Y-115.551
X46.874Y-123.05
X46.94Y-28.914
X46.998Y-105.596
X47.23Y-127.33
X47.456Y-34.62
X47.462Y-83.006
X47.477Y-109.713
X47.536Y-117.158
X47.541Y-120.267
X47.855Y-122.678
X47.864Y-57.119
X48.31Y-139.585
X48.87Y-103.428
X48.89Y-137.272
X49.53Y-83.82
X49.96Y-91.33
X50.053Y-68.92
X50.346Y-74.527
X50.663Y-107.65
X50.787Y-31.527
X50.852Y-126.678
X50.92Y-123.271
X50.94Y-110.14
X50.968Y-39.91
X51.408Y-72.216
X51.414Y-55.139
X51.639Y-68.797
X52.747Y-116.0
X52.966Y-151.101
X53.02Y-119.469
X53.026Y-25.338
X54.77Y-120.82
X54.899Y-106.633
X55.04Y-61.985
X55.328Y-107.945
X56.126Y-127.328
X56.413Y-26.645
X56.419Y-105.076
X56.713Y-131.898
X57.701Y-58.941
X57.847Y-131.886
X58.301Y-62.106
X58.625Y-92.044
X59.2Y-31.562
X59.215Y-55.167
X59.323Y-151.285
X59.968Y-65.038
X60.325Y-70.787
X60.364Y-59.018
X60.411Y-133.567
X60.421Y-19.685
X60.544Y-25.232
X60.706Y-18.373
X60.892Y-94.411
X60.96Y-79.248
X61.123Y-126.687
X61.382Y-32.851
X61.948Y-64.251
X62.298Y-108.716
X62.632Y-109.775
X62.747Y-104.87
X63.016Y-105.872
X63.036Y-126.844
X63.3Y-108.387
X63.35Y-122.049
X63.549Y-58.601
X63.614Y-112.286
X63.727Y-85.981
X63.925Y-141.575
X64.19Y-116.85
X64.219Y-63.159
X64.219Y-71.515
X64.753Y-105.635
X65.023Y-111.79
X65.039Y-58.036
X65.055Y-106.7
X65.301Y-139.283
X65.421Y-109.6
X65.834Y-21.105
X65.849Y-80.962
X66.008Y-95.702
X66.285Y-123.334
X66.849Y-145.302
X66.998Y-139.586
X67.006Y-130.596
X67.168Y-16.275
X67.2Y-79.305
X67.286Y-20.154
X67.579Y-83.567
X67.788Y-64.616
X67.884Y-116.786
X68.002Y-107.826
X68.032Y-31.684
X68.12Y-130.333
X68.341Y-91.951
X68.938Y-70.627
X69.135Y-86.995
X69.218Y-145.677
X69.401Y-122.278
X69.42Y-50.33
X69.72Y-15.06
X69.73Y-31.65
X69.847Y-134.83
X70.027Y-155.266
X70.448Y-88.309
X70.629Y-146.778
X70.708Y-86.606
X70.712Y-27.94
X70.932Y-153.245
X70.946Y-25.381
X71.075Y-59.064
X71.14Y-68.741
X71.145Y-93.576
X71.228Y-125.518
X71.272Y-107.318
X71.316Y-145.667
X71.45Y-62.432
X71.6Y-137.768
X71.953Y-83.721
X72.253Y-87.015
X72.28Y-94.633
X72.37Y-122.583
X72.468Y-108.106
X72.595Y-69.891
X72.644Y-65.748
X73.264Y-126.963
X73.354Y-106.724
X73.452Y-15.476
X73.551Y-123.599
X73.98Y-94.538
X74.037Y-117.106
X74.34Y-142.174
X74.471Y-65.521
X74.63Y-110.708
X74.799Y-116.219
X75.317Y-112.612
X76.151Y-141.242
X76.357Y-66.133
X76.441Y-87.122
X76.498Y-152.046
X76.541Y-118.757
X76.816Y-112.118
X77.209Y-157.363
X77.412Y-152.842
X77.426Y-155.546
X77.693Y-117.771
X77.885Y-115.32
X77.972Y-145.038
X77.977Y-113.278
X78.203Y-71.402
X78.966Y-114.345
X79.177Y-64.224
X79.596Y-102.218
X79.969Y-139.485
X80.127Y-51.207
X80.22Y-106.994
X80.234Y-105.474
X80.658Y-117.532
X80.705Y-115.568
X80.746Y-125.254
X81.105Y-104.917
X81.461Y-139.36
X81.492Y-135.584
X82.344Y-124.351
X82.516Y-137.256
X82.689Y-154.316
X82.919Y-134.857
X82.922Y-109.059
X83.264Y-175.092
X83.284Y-112.198
X83.737Y-155.074
X84.104Y-152.838
X84.119Y-109.388
X84.12Y-105.024
X84.569Y-142.012
X84.733Y-60.656
X84.819Y-92.284
X84.98Y-56.989
X84.984Y-97.128
X85.216Y-143.428
X85.4Y-104.74
X85.439Y-93.595
X85.446Y-102.05
X85.537Y-106.194
X85.659Y-130.25
X85.732Y-26.555
X85.769Y-98.249
X85.819Y-55.481
X85.974Y-116.695
X86.255Y-136.773
X86.431Y-78.994
X86.527Y-100.686
X86.712Y-107.136
X86.717Y-53.556
X86.777Y-71.271
X87.141Y-154.846
X87.293Y-83.871
X87.322Y-115.347
X87.687Y-118.316
X87.753Y-30.959
X87.772Y-135.62
X87.947Y-51.64
X88.095Y-79.602
X88.335Y-29.815
X88.451Y-75.549
X88.729Y-69.539
X88.805Y-134.57
X89.023Y-105.966
X89.533Y-70.424
X89.662Y-90.958
X89.786Y-164.612
X89.872Y-92.416
X89.892Y-84.267
X90.049Y-66.819
X90.099Y-33.019
X90.243Y-81.691
X90.262Y-100.094
X90.663Y-133.786
X90.715Y-136.36
X91.151Y-127.258
X91.226Y-87.652
X91.58Y-137.362
X91.667Y-104.982
X92.046Y-134.118
X92.586Y-118.433
X92.865Y-90.594
X92.904Y-69.828
X92.943Y-145.651
X93.016Y-112.848
X93.041Y-76.669
X93.315Y-98.655
X93.356Y-132.808
X93.361Y-71.859
X93.756Y-94.066
X93.904Y-58.68
X93.936Y-135.273
X93.976Y-110.612
X94.044Y-91.444
X94.229Y-152.472
X94.249Y-156.561
X94.39Y-137.027
X94.533Y-119.957
X94.799Y-149.912
X94.87Y-86.694
X94.894Y-70.51
X94.993Y-158.949
X95.356Y-111.5
X95.402Y-68.631
X95.756Y-133.742
X95.868Y-130.056
X96.485Y-86.856
X96.501Y-72.936
X96.524Y-76.028
X96.748Y-131.871
X97.029Y-99.648
X97.153Y-130.827
X97.208Y-103.888
X97.27Y-133.05
X97.323Y-82.368
X97.331Y-119.664
X97.372Y-114.899
X97.372Y-117.444
X97.392Y-91.724
X97.43Y-76.563
X97.568Y-157.717
X98.0Y-151.349
X98.43Y-91.959
X99.877Y-91.086
X100.083Y-130.731
X100.95Y-83.223
X101.56Y-43.776
X102.221Y-56.323
X102.394Y-105.41
X102.506Y-71.781
X102.722Y-70.779
X102.743Y-85.211
X102.77Y-76.53
X102.921Y-158.458
X102.936Y-148.914
X103.083Y-115.954
X103.121Y-106.199
X103.158Y-41.666
X103.201Y-52.531
X103.342Y-103.068
X103.675Y-74.409
X103.83Y-114.288
X104.052Y-169.854
X104.099Y-145.331
X104.112Y-111.323
X104.328Y-50.883
X104.33Y-116.84
X104.407Y-75.943
X104.736Y-59.385
X104.864Y-72.504
X104.981Y-66.741
X105.158Y-78.347
X105.433Y-63.787
X105.731Y-124.048
X105.731Y-126.354
X106.183Y-128.921
X106.293Y-38.809
X106.343Y-77.86
X106.635Y-133.432
X107.017Y-142.66
X107.064Y-24.84
X107.377Y-31.106
X107.405Y-135.971
X107.451Y-84.45
X107.963Y-138.511
X107.967Y-146.488
X107.967Y-167.369
X107.968Y-158.155
X107.987Y-42.321
X108.144Y-90.07
X108.443Y-139.7
X108.937Y-114.903
X109.665Y-116.84
X110.292Y-103.123
X110.679Y-94.536
X110.795Y-28.92
X110.889Y-43.248
X111.167Y-143.628
X111.778Y-146.646
X112.034Y-97.434
X112.546Y-93.455
X112.764Y-166.964
X112.805Y-148.178
X112.994Y-104.93
X113.06Y-97.334
X113.302Y-85.215
X113.411Y-57.482
X113.511Y-102.87
X113.52Y-91.69
X114.182Y-70.257
X114.724Y-57.683
X114.771Y-88.988
X114.777Y-85.627
X115.137Y-118.11
X115.184Y-130.722
X115.412Y-110.594
X115.574Y-113.269
X115.674Y-169.168
X116.418Y-68.27
X116.947Y-76.873
X118.349Y-143.052
X118.442Y-123.609
X118.7Y-125.135
X118.769Y-107.408
X118.839Y-154.726
X119.378Y-85.097
X119.701Y-25.932
X119.898Y-156.852
X120.219Y-127.607
X120.368Y-90.74
X120.605Y-144.047
X120.62Y-122.377
X120.812Y-119.667
X120.9Y-117.738
X121.154Y-83.208
X121.382Y-86.05
X121.412Y-121.494
X122.161Y-118.24
X122.331Y-114.208
X122.513Y-18.778
X122.608Y-82.534
X122.878Y-120.028
X123.752Y-34.079
X123.875Y-118.719
X123.96Y-68.727
X123.984Y-110.634
X124.191Y-85.146
X124.318Y-169.869
X124.36Y-62.546
X124.384Y-78.825
X124.501Y-59.803
X124.714Y-48.332
X124.774Y-87.105
X124.961Y-81.714
X125.501Y-115.649
X125.545Y-90.314
X125.614Y-24.301
X125.645Y-87.651
X125.68Y-73.566
X125.687Y-66.221
X125.828Y-108.006
X126.129Y-169.778
X126.367Y-67.349
X126.52Y-174.606
X126.78Y-68.563
X126.924Y-71.132
X127.034Y-118.773
X127.275Y-137.837
X127.277Y-145.455
X127.542Y-44.825
X127.559Y-76.872
X127.742Y-79.563
X127.812Y-149.188
X127.845Y-28.921
X128.307Y-133.025
X128.386Y-97.503
X128.405Y-113.112
X128.412Y-82.828
X128.462Y-87.692
X128.686Y-89.806
X128.77Y-84.897
X129.488Y-77.758
X129.693Y-37.227
X129.909Y-89.771
X130.089Y-88.761
X130.168Y-82.828
X130.519Y-41.44
X130.747Y-91.824
X130.787Y-135.788
X130.867Y-115.36
X130.896Y-112.763
X130.898Y-100.148
X130.916Y-69.14
X130.938Y-172.215
X130.958Y-150.982
X131.145Y-61.464
X131.83Y-41.398
X132.242Y-22.567
X132.376Y-28.376
X132.583Y-91.079
X132.624Y-81.592
X132.689Y-74.617
X132.856Y-46.09
X133.232Y-97.843
X133.26Y-118.382
X133.338Y-102.938
X133.359Y-123.634
X133.372Y-73.151
X133.464Y-116.076
X133.473Y-121.229
X133.582Y-130.828
X133.689Y-82.693
X133.755Y-150.752
X133.926Y-125.129
X133.984Y-127.182
X134.0Y-105.895
X134.0Y-107.256
X134.048Y-141.262
X134.051Y-160.593
X134.064Y-159.54
X134.065Y-101.914
X134.065Y-104.584
X134.376Y-131.451
X134.461Y-147.332
X134.498Y-134.317
X134.503Y-153.936
X134.559Y-78.677
X134.59Y-164.944
X134.85Y-94.854
X134.93Y-145.321
X135.025Y-56.306
X135.248Y-89.308
X135.34Y-111.508
X135.393Y-75.553
X135.483Y-154.387
X135.726Y-143.201
X135.968Y-50.758
X136.078Y-147.895
X136.218Y-91.837
X136.27Y-56.129
X136.486Y-144.182
X136.492Y-128.873
X136.552Y-119.033
X136.699Y-73.861
X136.8Y-147.127
X136.858Y-160.807
X137.078Y-58.821
X137.204Y-93.075
X137.21Y-97.369
X137.438Y-89.286
X137.476Y-74.86
X137.616Y-77.783
X137.657Y-90.487
X137.714Y-106.564
X137.784Y-149.034
X138.134Y-150.583
X138.193Y-91.368
X138.229Y-158.915
X138.503Y-155.751
X138.552Y-59.153
X138.552Y-73.179
X138.568Y-122.372
X138.628Y-117.135
X138.993Y-132.282
X139.0Y-84.225
X139.008Y-119.455
X139.235Y-94.974
X139.235Y-96.272
X139.302Y-129.417
X139.46Y-118.451
X139.522Y-77.344
X139.602Y-58.413
X139.865Y-98.991
X140.58Y-151.14
X140.683Y-136.074
X140.827Y-101.045
X141.028Y-108.704
X141.076Y-126.878
X141.087Y-161.191
X141.312Y-146.755
X141.506Y-115.834
X141.563Y-151.573
X141.584Y-129.451
X141.648Y-118.011
X141.825Y-171.038
X141.976Y-122.06
X142.089Y-160.894
X142.186Y-101.967
X142.276Y-134.971
X142.335Y-77.947
X142.407Y-148.043
X142.522Y-128.972
X142.64Y-96.272
X142.653Y-123.029
X142.756Y-87.677
X143.504Y-94.682
X143.529Y-144.346
X143.554Y-150.105
X143.59Y-93.075
X143.932Y-143.304
X144.811Y-133.094
X146.906Y-132.8
X147.471Y-123.41
X147.738Y-29.899
X147.738Y-45.189
X148.1Y-105.28
X148.317Y-174.906
X148.492Y-106.251
X148.642Y-129.056
X148.669Y-124.051
X148.942Y-148.143
X149.14Y-96.25
X150.003Y-117.239
X150.417Y-140.733
X150.559Y-110.322
X150.788Y-169.054
X150.951Y-150.684
X150.977Y-129.882
X151.731Y-128.648
X151.903Y-159.6
X152.042Y-140.88
X152.27Y-133.165
X152.289Y-119.523
X152.367Y-155.233
X152.484Y-124.519
X152.636Y-169.789
X152.725Y-86.514
X153.172Y-111.109
X153.184Y-172.876
X154.19Y-110.736
X154.764Y-134.632
X154.94Y-84.372
X154.987Y-117.316
X155.314Y-122.79
X156.108Y-116.343
X156.19Y-105.478
X156.463Y-61.927
X156.681Y-151.978
X157.487Y-66.198
X157.514Y-122.636
X157.924Y-174.253
X158.857Y-106.033
X159.713Y-157.9
X159.907Y-83.712
X160.725Y-122.941
X160.725Y-133.5
X161.644Y-62.299
X161.888Y-69.67
X162.734Y-103.901
X162.817Y-154.94
X165.149Y-117.284
X165.438Y-70.057
X165.502Y-169.663
X167.844Y-155.065
X168.052Y-51.589
X169.296Y-97.819
X170.212Y-65.874
X170.74Y-124.995
X172.143Y-81.011
X172.439Y-139.634
X173.233Y-130.25
X176.94Y-62.803
X177.336Y-122.139
X180.018Y-119.148
X180.117Y-50.771
X180.76Y-151.804
X181.076Y-71.443
T3
X21.9Y-177.55
X22.845Y-175.27
X22.845Y-179.83
X25.125Y-174.325
X25.125Y-180.775
X27.405Y-175.27
X27.405Y-179.83
X28.35Y-177.55
X44.77Y-20.07
X45.714Y-17.789
X45.714Y-22.35
X47.995Y-16.845
X47.995Y-23.295
X50.275Y-17.789
X50.275Y-22.35
X51.22Y-20.07
X176.71Y-177.46
X176.87Y-20.045
X177.655Y-175.18
X177.655Y-179.74
X177.814Y-17.764
X177.814Y-22.325
X179.935Y-174.235
X179.935Y-180.685
X180.095Y-16.82
X180.095Y-23.27
X182.215Y-175.18
X182.215Y-179.74
X182.375Y-17.764
X182.375Y-22.325
X183.16Y-177.46
X183.32Y-20.045
T4
X52.81Y-72.91
X52.81Y-75.45
X52.81Y-77.99
X52.81Y-80.53
X52.81Y-83.07
X52.81Y-85.61
X52.81Y-88.15
X52.81Y-90.69
X52.81Y-93.23
X52.81Y-95.77
X52.81Y-98.31
X52.81Y-100.85
X52.81Y-103.39
X55.35Y-72.91
X55.35Y-75.45
X55.35Y-77.99
X55.35Y-80.53
X55.35Y-83.07
X55.35Y-85.61
X55.35Y-88.15
X55.35Y-90.69
X55.35Y-93.23
X55.35Y-95.77
X55.35Y-98.31
X55.35Y-100.85
X55.35Y-103.39
X57.89Y-72.91
X57.89Y-75.45
X57.89Y-77.99
X57.89Y-80.53
X57.89Y-83.07
X57.89Y-85.61
X57.89Y-88.15
X57.89Y-90.69
X57.89Y-93.23
X57.89Y-95.77
X57.89Y-98.31
X57.89Y-100.85
X57.89Y-103.39
X60.43Y-72.91
X60.43Y-75.45
X60.43Y-77.99
X60.43Y-80.53
X60.43Y-85.61
X60.43Y-95.77
X60.43Y-98.31
X60.43Y-100.85
X60.43Y-103.39
X62.97Y-72.91
X62.97Y-75.45
X62.97Y-77.99
X62.97Y-80.53
X62.97Y-95.77
X62.97Y-98.31
X62.97Y-100.85
X62.97Y-103.39
X65.51Y-72.91
X65.51Y-75.45
X65.51Y-77.99
X65.51Y-98.31
X65.51Y-100.85
X65.51Y-103.39
X68.05Y-72.91
X68.05Y-75.45
X68.05Y-77.99
X68.05Y-98.31
X68.05Y-100.85
X68.05Y-103.39
X70.59Y-72.91
X70.59Y-75.45
X70.59Y-77.99
X70.59Y-98.31
X70.59Y-100.85
X70.59Y-103.39
X73.13Y-72.91
X73.13Y-75.45
X73.13Y-77.99
X73.13Y-98.31
X73.13Y-100.85
X73.13Y-103.39
X75.67Y-72.91
X75.67Y-75.45
X75.67Y-77.99
X75.67Y-80.53
X75.67Y-85.61
X75.67Y-95.77
X75.67Y-98.31
X75.67Y-100.85
X75.67Y-103.39
X78.21Y-72.91
X78.21Y-75.45
X78.21Y-77.99
X78.21Y-80.53
X78.21Y-83.07
X78.21Y-85.61
X78.21Y-88.15
X78.21Y-90.69
X78.21Y-93.23
X78.21Y-95.77
X78.21Y-98.31
X78.21Y-100.85
X78.21Y-103.39
X80.75Y-72.91
X80.75Y-75.45
X80.75Y-77.99
X80.75Y-80.53
X80.75Y-83.07
X80.75Y-85.61
X80.75Y-88.15
X80.75Y-90.69
X80.75Y-93.23
X80.75Y-95.77
X80.75Y-98.31
X80.75Y-100.85
X80.75Y-103.39
X83.29Y-72.91
X83.29Y-75.45
X83.29Y-77.99
X83.29Y-80.53
X83.29Y-83.07
X83.29Y-85.61
X83.29Y-88.15
X83.29Y-90.69
X83.29Y-93.23
X83.29Y-95.77
X83.29Y-98.31
X83.29Y-100.85
X83.29Y-103.39
T5
X16.804Y-17.272
X18.42Y-136.515
X18.42Y-144.135
X18.42Y-153.66
X18.42Y-161.28
X19.304Y-133.096
X20.96Y-136.515
X20.96Y-144.135
X20.96Y-153.66
X20.96Y-161.28
X21.804Y-17.272
X21.804Y-133.096
X23.5Y-136.515
X23.5Y-144.135
X23.5Y-153.66
X23.5Y-161.28
X24.932Y-17.272
X26.04Y-136.515
X26.04Y-144.135
X26.04Y-153.66
X26.04Y-161.28
X28.58Y-136.515
X28.58Y-144.135
X28.58Y-153.66
X28.58Y-161.28
X29.932Y-17.272
X29.972Y-170.962
X29.972Y-173.462
X30.48Y-21.884
X30.48Y-26.884
X31.12Y-136.515
X31.12Y-144.135
X31.12Y-153.66
X31.12Y-161.28
X33.02Y-172.72
X33.02Y-180.34
X33.06Y-17.272
X33.66Y-136.515
X33.66Y-144.135
X33.66Y-153.66
X33.66Y-161.28
X35.56Y-172.72
X35.56Y-180.34
X36.2Y-136.515
X36.2Y-144.135
X36.2Y-153.66
X36.2Y-161.28
X38.06Y-17.272
X38.1Y-172.72
X38.1Y-180.34
X38.74Y-136.515
X38.74Y-144.135
X38.74Y-153.66
X38.74Y-161.28
X39.97Y-89.23
X40.64Y-172.72
X40.64Y-180.34
X41.28Y-136.515
X41.28Y-144.135
X41.28Y-153.66
X41.28Y-161.28
X41.656Y-14.772
X41.656Y-19.772
X42.47Y-89.23
X45.08Y-136.535
X45.08Y-144.155
X45.085Y-153.67
X45.085Y-161.29
X45.72Y-175.575
X45.72Y-177.575
X47.62Y-136.535
X47.62Y-144.155
X47.625Y-153.67
X47.625Y-161.29
X50.16Y-136.535
X50.16Y-144.155
X50.165Y-153.67
X50.165Y-161.29
X52.7Y-136.535
X52.7Y-144.155
X52.705Y-153.67
X52.705Y-161.29
X54.63Y-60.38
X54.63Y-68.0
X54.864Y-15.809
X54.864Y-17.809
X55.138Y-164.084
X55.24Y-136.535
X55.24Y-144.155
X55.245Y-153.67
X55.245Y-161.29
X56.19Y-37.55
X56.19Y-40.09
X56.19Y-42.63
X56.19Y-45.17
X56.19Y-47.71
X56.19Y-50.25
X56.19Y-52.79
X56.19Y-55.33
X57.17Y-60.38
X57.17Y-68.0
X57.638Y-164.084
X57.78Y-136.535
X57.78Y-144.155
X57.785Y-153.67
X57.785Y-161.29
X59.71Y-60.38
X59.71Y-68.0
X60.32Y-136.535
X60.32Y-144.155
X60.325Y-153.67
X60.325Y-161.29
X62.225Y-120.64
X62.225Y-128.26
X62.25Y-60.38
X62.25Y-68.0
X62.86Y-136.535
X62.86Y-144.155
X62.865Y-153.67
X62.865Y-161.29
X63.81Y-37.55
X63.81Y-40.09
X63.81Y-42.63
X63.81Y-45.17
X63.81Y-47.71
X63.81Y-50.25
X63.81Y-52.79
X63.81Y-55.33
X64.765Y-120.64
X64.765Y-128.26
X64.79Y-60.38
X64.79Y-68.0
X65.4Y-136.535
X65.4Y-144.155
X65.405Y-153.67
X65.405Y-161.29
X67.305Y-120.64
X67.305Y-128.26
X67.33Y-60.38
X67.33Y-68.0
X67.94Y-136.535
X67.94Y-144.155
X67.945Y-153.67
X67.945Y-161.29
X69.845Y-120.64
X69.845Y-128.26
X69.87Y-60.38
X69.87Y-68.0
X72.385Y-120.64
X72.385Y-128.26
X72.41Y-60.38
X72.41Y-68.0
X73.66Y-17.145
X73.66Y-32.385
X73.7Y-39.54
X73.7Y-54.78
X74.925Y-120.64
X74.925Y-128.26
X74.95Y-60.38
X74.95Y-68.0
X77.465Y-120.64
X77.465Y-128.26
X77.49Y-60.38
X77.49Y-68.0
X78.74Y-147.32
X78.74Y-149.86
X78.74Y-152.4
X78.74Y-154.94
X78.74Y-157.48
X80.005Y-120.64
X80.005Y-128.26
X80.03Y-60.38
X80.03Y-68.0
X81.28Y-17.145
X81.28Y-32.385
X81.28Y-144.78
X81.28Y-147.32
X81.28Y-149.86
X81.28Y-152.4
X81.28Y-154.94
X81.28Y-157.48
X81.28Y-160.02
X81.32Y-39.54
X81.32Y-54.78
X82.545Y-120.64
X82.545Y-128.26
X82.57Y-60.38
X82.57Y-68.0
X83.606Y-139.446
X83.82Y-144.78
X83.82Y-147.32
X83.82Y-157.48
X83.82Y-160.02
X85.085Y-120.64
X85.085Y-128.26
X85.384Y-17.018
X86.106Y-139.446
X86.36Y-144.78
X86.36Y-147.32
X86.36Y-157.48
X86.36Y-160.02
X87.625Y-120.64
X87.625Y-128.26
X87.63Y-20.32
X87.63Y-35.56
X87.884Y-17.018
X88.9Y-101.6
X88.9Y-104.1
X88.9Y-144.78
X88.9Y-147.32
X88.9Y-149.86
X88.9Y-152.4
X88.9Y-154.94
X88.9Y-157.48
X88.9Y-160.02
X90.165Y-120.64
X90.165Y-128.26
X90.17Y-20.32
X90.17Y-35.56
X91.44Y-48.26
X91.44Y-50.8
X91.44Y-53.34
X91.44Y-55.88
X91.44Y-58.42
X91.44Y-60.96
X91.44Y-63.5
X91.44Y-66.04
X91.44Y-68.58
X91.44Y-71.12
X91.44Y-73.66
X91.44Y-76.2
X91.44Y-147.32
X91.44Y-149.86
X91.44Y-152.4
X91.44Y-154.94
X91.44Y-157.48
X92.71Y-20.32
X92.71Y-35.56
X94.06Y-17.78
X95.25Y-20.32
X95.25Y-35.56
X97.79Y-20.32
X97.79Y-35.56
X99.06Y-17.78
X99.06Y-48.26
X99.06Y-50.8
X99.06Y-53.34
X99.06Y-55.88
X99.06Y-58.42
X99.06Y-60.96
X99.06Y-63.5
X99.06Y-66.04
X99.06Y-68.58
X99.06Y-71.12
X99.06Y-73.66
X99.06Y-76.2
X100.33Y-20.32
X100.33Y-35.56
X102.87Y-20.32
X102.87Y-35.56
X104.21Y-16.17
X105.41Y-20.32
X105.41Y-35.56
X106.63Y-52.32
X106.63Y-54.86
X106.63Y-57.4
X106.63Y-59.94
X106.63Y-62.48
X106.63Y-65.02
X106.63Y-67.56
X106.63Y-70.1
X106.63Y-72.64
X107.95Y-20.32
X107.95Y-35.56
X109.11Y-16.17
X109.17Y-49.78
X109.17Y-52.32
X109.17Y-54.86
X109.17Y-57.4
X109.17Y-59.94
X109.17Y-62.48
X109.17Y-65.02
X109.17Y-67.56
X109.17Y-70.1
X109.17Y-72.64
X109.17Y-75.18
X110.49Y-20.32
X110.49Y-35.56
X111.71Y-49.78
X111.71Y-52.32
X111.71Y-72.64
X111.71Y-75.18
X113.03Y-20.32
X113.03Y-35.56
X114.25Y-49.78
X114.25Y-52.32
X114.25Y-72.64
X114.25Y-75.18
X114.3Y-17.78
X115.57Y-20.32
X115.57Y-35.56
X116.79Y-49.78
X116.79Y-52.32
X116.79Y-72.64
X116.79Y-75.18
X118.09Y-170.75
X118.11Y-20.32
X118.11Y-35.56
X119.3Y-17.78
X119.33Y-49.78
X119.33Y-52.32
X119.33Y-72.64
X119.33Y-75.18
X120.59Y-170.75
X120.65Y-20.32
X120.65Y-35.56
X121.87Y-49.78
X121.87Y-52.32
X121.87Y-72.64
X121.87Y-75.18
X123.19Y-20.32
X123.19Y-35.56
X124.41Y-49.78
X124.41Y-52.32
X124.41Y-72.64
X124.41Y-75.18
X125.73Y-20.32
X125.73Y-35.56
X126.95Y-49.78
X126.95Y-52.32
X126.95Y-72.64
X126.95Y-75.18
X128.27Y-20.32
X128.27Y-35.56
X129.49Y-49.78
X129.49Y-52.32
X129.49Y-54.86
X129.49Y-57.4
X129.49Y-59.94
X129.49Y-62.48
X129.49Y-65.02
X129.49Y-67.56
X129.49Y-70.1
X129.49Y-72.64
X129.49Y-75.18
X129.64Y-170.73
X130.81Y-20.32
X130.81Y-35.56
X132.03Y-52.32
X132.03Y-54.86
X132.03Y-57.4
X132.03Y-59.94
X132.03Y-62.48
X132.03Y-65.02
X132.03Y-67.56
X132.03Y-70.1
X132.03Y-72.64
X132.14Y-170.73
X133.35Y-20.32
X133.35Y-35.56
X135.89Y-20.32
X135.89Y-35.56
X140.335Y-15.24
X140.335Y-22.86
X140.462Y-31.77
X140.462Y-34.27
X140.462Y-49.57
X140.462Y-52.07
X140.462Y-67.33
X140.462Y-69.83
X140.462Y-85.13
X140.462Y-87.63
X140.462Y-102.91
X140.462Y-105.41
X140.462Y-120.67
X140.462Y-123.17
X140.462Y-138.47
X140.462Y-140.97
X140.462Y-156.25
X140.462Y-158.75
X142.875Y-15.24
X142.875Y-22.86
X143.51Y-31.75
X143.51Y-46.99
X143.51Y-49.53
X143.51Y-64.77
X143.51Y-67.31
X143.51Y-82.55
X143.51Y-85.09
X143.51Y-100.33
X143.51Y-102.87
X143.51Y-118.11
X143.51Y-120.65
X143.51Y-135.89
X143.51Y-138.43
X143.51Y-153.67
X143.51Y-156.165
X143.51Y-171.405
X145.415Y-15.24
X145.415Y-22.86
X146.05Y-31.75
X146.05Y-46.99
X146.05Y-49.53
X146.05Y-64.77
X146.05Y-67.31
X146.05Y-82.55
X146.05Y-85.09
X146.05Y-100.33
X146.05Y-102.87
X146.05Y-118.11
X146.05Y-120.65
X146.05Y-135.89
X146.05Y-138.43
X146.05Y-153.67
X146.05Y-156.165
X146.05Y-171.405
X147.955Y-15.24
X147.955Y-22.86
X148.59Y-31.75
X148.59Y-46.99
X148.59Y-49.53
X148.59Y-64.77
X148.59Y-67.31
X148.59Y-82.55
X148.59Y-85.09
X148.59Y-100.33
X148.59Y-102.87
X148.59Y-118.11
X148.59Y-120.65
X148.59Y-135.89
X148.59Y-138.43
X148.59Y-153.67
X148.59Y-156.165
X148.59Y-171.405
X150.114Y-25.42
X150.114Y-27.92
X150.495Y-15.24
X150.495Y-22.86
X151.13Y-31.75
X151.13Y-46.99
X151.13Y-49.53
X151.13Y-64.77
X151.13Y-67.31
X151.13Y-82.55
X151.13Y-85.09
X151.13Y-100.33
X151.13Y-102.87
X151.13Y-118.11
X151.13Y-120.65
X151.13Y-135.89
X151.13Y-138.43
X151.13Y-153.67
X151.13Y-156.165
X151.13Y-171.405
X153.035Y-15.24
X153.035Y-22.86
X153.67Y-25.42
X153.67Y-27.92
X153.67Y-31.75
X153.67Y-46.99
X153.67Y-49.53
X153.67Y-64.77
X153.67Y-67.31
X153.67Y-82.55
X153.67Y-85.09
X153.67Y-100.33
X153.67Y-102.87
X153.67Y-118.11
X153.67Y-120.65
X153.67Y-135.89
X153.67Y-138.43
X153.67Y-153.67
X153.67Y-156.165
X153.67Y-171.405
X155.575Y-15.24
X155.575Y-22.86
X156.21Y-31.75
X156.21Y-46.99
X156.21Y-49.53
X156.21Y-64.77
X156.21Y-67.31
X156.21Y-82.55
X156.21Y-85.09
X156.21Y-100.33
X156.21Y-102.87
X156.21Y-118.11
X156.21Y-120.65
X156.21Y-135.89
X156.21Y-138.43
X156.21Y-153.67
X156.21Y-156.165
X156.21Y-171.405
X158.115Y-15.24
X158.115Y-22.86
X158.75Y-31.75
X158.75Y-46.99
X158.75Y-49.53
X158.75Y-64.77
X158.75Y-67.31
X158.75Y-82.55
X158.75Y-85.09
X158.75Y-100.33
X158.75Y-102.87
X158.75Y-118.11
X158.75Y-120.65
X158.75Y-135.89
X158.75Y-138.43
X158.75Y-153.67
X158.75Y-156.165
X158.75Y-171.405
X158.84Y-27.305
X160.655Y-15.24
X160.655Y-22.86
X161.29Y-31.75
X161.29Y-46.99
X161.29Y-49.53
X161.29Y-64.77
X161.29Y-67.31
X161.29Y-82.55
X161.29Y-85.09
X161.29Y-100.33
X161.29Y-102.87
X161.29Y-118.11
X161.29Y-120.65
X161.29Y-135.89
X161.29Y-138.43
X161.29Y-153.67
X161.29Y-156.165
X161.29Y-171.405
X163.195Y-15.24
X163.195Y-22.86
X163.74Y-27.305
X163.83Y-31.75
X163.83Y-46.99
X163.83Y-49.53
X163.83Y-64.77
X163.83Y-67.31
X163.83Y-82.55
X163.83Y-85.09
X163.83Y-100.33
X163.83Y-102.87
X163.83Y-118.11
X163.83Y-120.65
X163.83Y-135.89
X163.83Y-138.43
X163.83Y-153.67
X163.83Y-156.165
X163.83Y-171.405
X165.735Y-15.24
X165.735Y-22.86
X166.37Y-31.75
X166.37Y-46.99
X166.37Y-49.53
X166.37Y-64.77
X166.37Y-67.31
X166.37Y-82.55
X166.37Y-85.09
X166.37Y-100.33
X166.37Y-102.87
X166.37Y-118.11
X166.37Y-120.65
X166.37Y-135.89
X166.37Y-138.43
X166.37Y-153.67
X166.37Y-156.165
X166.37Y-171.405
X168.275Y-15.24
X168.275Y-22.86
X168.91Y-25.42
X168.91Y-27.92
X168.91Y-31.75
X168.91Y-46.99
X168.91Y-49.53
X168.91Y-64.77
X168.91Y-67.31
X168.91Y-82.55
X168.91Y-85.09
X168.91Y-100.33
X168.91Y-102.87
X168.91Y-118.11
X168.91Y-120.65
X168.91Y-135.89
X168.91Y-138.43
X168.91Y-153.67
X168.91Y-156.165
X168.91Y-171.405
X170.815Y-15.24
X170.815Y-22.86
X171.45Y-31.75
X171.45Y-46.99
X171.45Y-49.53
X171.45Y-64.77
X171.45Y-67.31
X171.45Y-82.55
X171.45Y-85.09
X171.45Y-100.33
X171.45Y-102.87
X171.45Y-118.11
X171.45Y-120.65
X171.45Y-135.89
X171.45Y-138.43
X171.45Y-153.67
X171.45Y-156.165
X171.45Y-171.405
X173.355Y-15.24
X173.355Y-22.86
X173.99Y-31.75
X173.99Y-46.99
X173.99Y-49.53
X173.99Y-64.77
X173.99Y-67.31
X173.99Y-82.55
X173.99Y-85.09
X173.99Y-100.33
X173.99Y-102.87
X173.99Y-118.11
X173.99Y-120.65
X173.99Y-135.89
X173.99Y-138.43
X173.99Y-153.67
X173.99Y-156.165
X173.99Y-171.405
X176.53Y-31.75
X176.53Y-46.99
X176.53Y-49.53
X176.53Y-64.77
X176.53Y-67.31
X176.53Y-82.55
X176.53Y-85.09
X176.53Y-100.33
X176.53Y-102.87
X176.53Y-118.11
X176.53Y-120.65
X176.53Y-135.89
X176.53Y-138.43
X176.53Y-153.67
X176.53Y-156.165
X176.53Y-171.405
X179.07Y-31.75
X179.07Y-46.99
X179.07Y-49.53
X179.07Y-64.77
X179.07Y-67.31
X179.07Y-82.55
X179.07Y-85.09
X179.07Y-100.33
X179.07Y-102.87
X179.07Y-118.11
X179.07Y-120.65
X179.07Y-135.89
X179.07Y-138.43
X179.07Y-153.67
X179.07Y-156.165
X179.07Y-171.405
X181.61Y-31.75
X181.61Y-46.99
X181.61Y-49.53
X181.61Y-64.77
X181.61Y-67.31
X181.61Y-82.55
X181.61Y-85.09
X181.61Y-100.33
X181.61Y-102.87
X181.61Y-118.11
X181.61Y-120.65
X181.61Y-135.89
X181.61Y-138.43
X181.61Y-153.67
X181.61Y-156.165
X181.61Y-171.405
T6
X60.198Y-164.084
X67.818Y-164.084
X86.36Y-45.72
X88.9Y-45.72
X134.895Y-39.19
X134.945Y-43.78
X137.435Y-39.19
X137.485Y-43.78
T7
X19.045Y-147.32
X19.045Y-167.64
X19.253Y-41.91
X19.253Y-44.45
X19.253Y-46.99
X19.304Y-53.061
X19.304Y-55.601
X19.304Y-58.141
X19.304Y-60.681
X19.685Y-67.945
X19.685Y-70.485
X19.685Y-73.025
X19.685Y-75.565
X19.685Y-78.105
X19.685Y-80.645
X19.685Y-83.185
X19.685Y-85.725
X19.685Y-88.265
X19.685Y-90.805
X19.685Y-93.345
X19.685Y-95.885
X19.685Y-98.425
X19.685Y-100.965
X19.685Y-103.505
X19.685Y-106.045
X19.685Y-108.585
X19.685Y-111.125
X19.685Y-113.665
X19.685Y-116.205
X19.685Y-118.745
X19.685Y-121.285
X19.685Y-123.825
X19.685Y-126.365
X19.685Y-128.905
X21.585Y-147.32
X21.585Y-167.64
X22.225Y-67.945
X22.225Y-70.485
X22.225Y-73.025
X22.225Y-75.565
X22.225Y-78.105
X22.225Y-80.645
X22.225Y-83.185
X22.225Y-85.725
X22.225Y-88.265
X22.225Y-90.805
X22.225Y-93.345
X22.225Y-95.885
X22.225Y-98.425
X22.225Y-100.965
X22.225Y-103.505
X22.225Y-106.045
X22.225Y-108.585
X22.225Y-111.125
X22.225Y-113.665
X22.225Y-116.205
X22.225Y-118.745
X22.225Y-121.285
X22.225Y-123.825
X22.225Y-126.365
X22.225Y-128.905
X23.954Y-53.061
X23.954Y-55.601
X23.954Y-58.141
X23.954Y-60.681
X24.125Y-147.32
X24.125Y-167.64
X26.665Y-147.32
X26.665Y-167.64
X29.1Y-61.75
X29.1Y-64.29
X29.1Y-66.83
X29.1Y-69.37
X29.1Y-71.91
X29.205Y-147.32
X29.205Y-167.64
X29.21Y-44.15
X29.21Y-46.69
X29.21Y-49.23
X29.21Y-51.77
X29.21Y-54.31
X29.845Y-80.645
X29.845Y-83.185
X31.64Y-61.75
X31.64Y-64.29
X31.64Y-66.83
X31.64Y-69.37
X31.64Y-71.91
X31.745Y-147.32
X31.745Y-167.64
X31.75Y-44.15
X31.75Y-46.69
X31.75Y-49.23
X31.75Y-51.77
X31.75Y-54.31
X34.285Y-147.32
X34.285Y-167.64
X35.975Y-61.65
X35.975Y-64.19
X35.975Y-66.73
X35.975Y-69.27
X35.975Y-71.81
X36.132Y-35.052
X36.26Y-44.11
X36.26Y-46.65
X36.26Y-49.19
X36.26Y-51.73
X36.26Y-54.27
X36.825Y-147.32
X36.825Y-167.64
X38.515Y-61.65
X38.515Y-64.19
X38.515Y-66.73
X38.515Y-69.27
X38.515Y-71.81
X38.8Y-44.11
X38.8Y-46.65
X38.8Y-49.19
X38.8Y-51.73
X38.8Y-54.27
X39.365Y-147.32
X39.365Y-167.64
X40.132Y-35.052
X41.905Y-147.32
X41.905Y-167.64
X43.27Y-44.05
X43.27Y-46.59
X43.27Y-49.13
X43.27Y-51.67
X43.27Y-54.21
X44.445Y-147.32
X44.445Y-167.64
X45.81Y-44.05
X45.81Y-46.59
X45.81Y-49.13
X45.81Y-51.67
X45.81Y-54.21
X46.985Y-147.32
X46.985Y-167.64
X49.525Y-147.32
X49.525Y-167.64
X51.557Y-172.72
X52.065Y-147.32
X52.065Y-167.64
X54.097Y-172.72
X54.605Y-147.32
X54.605Y-167.64
X57.145Y-147.32
X57.145Y-167.64
X59.685Y-147.32
X59.685Y-167.64
X61.209Y-172.72
X62.225Y-147.32
X62.225Y-167.64
X63.749Y-172.72
X64.765Y-147.32
X64.765Y-167.64
X67.305Y-147.32
X67.305Y-167.64
X88.265Y-40.64
X90.805Y-40.64
X93.345Y-40.64
X95.885Y-40.64
X98.425Y-40.64
X99.06Y-93.98
X99.06Y-96.52
X99.06Y-99.06
X99.06Y-101.6
X99.06Y-104.14
X99.06Y-106.68
X99.06Y-109.22
X99.06Y-111.76
X99.06Y-114.3
X99.06Y-116.84
X99.06Y-119.38
X99.06Y-121.92
X99.06Y-124.46
X99.06Y-127.0
X99.06Y-129.54
X99.06Y-132.08
X99.06Y-134.62
X99.06Y-137.16
X99.06Y-139.7
X99.06Y-142.24
X99.06Y-144.78
X99.06Y-147.32
X99.06Y-149.86
X99.06Y-152.4
X99.06Y-154.94
X99.06Y-157.48
X99.06Y-160.02
X99.06Y-162.56
X99.06Y-165.1
X99.06Y-167.64
X100.965Y-40.64
X101.6Y-93.98
X101.6Y-96.52
X101.6Y-99.06
X101.6Y-101.6
X101.6Y-104.14
X101.6Y-106.68
X101.6Y-109.22
X101.6Y-111.76
X101.6Y-114.3
X101.6Y-116.84
X101.6Y-119.38
X101.6Y-121.92
X101.6Y-124.46
X101.6Y-127.0
X101.6Y-129.54
X101.6Y-132.08
X101.6Y-134.62
X101.6Y-137.16
X101.6Y-139.7
X101.6Y-142.24
X101.6Y-144.78
X101.6Y-147.32
X101.6Y-149.86
X101.6Y-152.4
X101.6Y-154.94
X101.6Y-157.48
X101.6Y-160.02
X101.6Y-162.56
X101.6Y-165.1
X101.6Y-167.64
X105.41Y-40.64
X107.95Y-40.64
X110.49Y-40.64
X113.03Y-40.64
X114.3Y-93.98
X114.3Y-96.52
X114.3Y-99.06
X114.3Y-101.6
X114.3Y-104.14
X114.3Y-106.68
X114.3Y-109.22
X114.3Y-111.76
X114.3Y-114.3
X114.3Y-116.84
X114.3Y-119.38
X114.3Y-121.92
X114.3Y-124.46
X114.3Y-127.0
X114.3Y-129.54
X114.3Y-132.08
X114.3Y-134.62
X114.3Y-137.16
X114.3Y-139.7
X114.3Y-142.24
X114.3Y-144.78
X114.3Y-147.32
X114.3Y-149.86
X114.3Y-152.4
X114.3Y-154.94
X114.3Y-157.48
X114.3Y-160.02
X114.3Y-162.56
X114.3Y-165.1
X114.3Y-167.64
X115.57Y-40.64
X116.84Y-93.98
X116.84Y-96.52
X116.84Y-99.06
X116.84Y-101.6
X116.84Y-104.14
X116.84Y-106.68
X116.84Y-109.22
X116.84Y-111.76
X116.84Y-114.3
X116.84Y-116.84
X116.84Y-119.38
X116.84Y-121.92
X116.84Y-124.46
X116.84Y-127.0
X116.84Y-129.54
X116.84Y-132.08
X116.84Y-134.62
X116.84Y-137.16
X116.84Y-139.7
X116.84Y-142.24
X116.84Y-144.78
X116.84Y-147.32
X116.84Y-149.86
X116.84Y-152.4
X116.84Y-154.94
X116.84Y-157.48
X116.84Y-160.02
X116.84Y-162.56
X116.84Y-165.1
X116.84Y-167.64
X118.11Y-40.64
X120.65Y-40.64
X121.285Y-177.165
X121.285Y-179.705
X123.19Y-40.64
X123.825Y-177.165
X123.825Y-179.705
X126.365Y-177.165
X126.365Y-179.705
X127.635Y-16.51
X128.905Y-177.165
X128.905Y-179.705
X129.54Y-93.98
X129.54Y-96.52
X129.54Y-99.06
X129.54Y-101.6
X129.54Y-104.14
X129.54Y-106.68
X129.54Y-109.22
X129.54Y-111.76
X129.54Y-114.3
X129.54Y-116.84
X129.54Y-119.38
X129.54Y-121.92
X129.54Y-124.46
X129.54Y-127.0
X129.54Y-129.54
X129.54Y-132.08
X129.54Y-134.62
X129.54Y-137.16
X129.54Y-139.7
X129.54Y-142.24
X129.54Y-144.78
X129.54Y-147.32
X129.54Y-149.86
X129.54Y-152.4
X129.54Y-154.94
X129.54Y-157.48
X129.54Y-160.02
X129.54Y-162.56
X129.54Y-165.1
X129.54Y-167.64
X130.175Y-16.51
X131.445Y-177.165
X131.445Y-179.705
X132.08Y-93.98
X132.08Y-96.52
X132.08Y-99.06
X132.08Y-101.6
X132.08Y-104.14
X132.08Y-106.68
X132.08Y-109.22
X132.08Y-111.76
X132.08Y-114.3
X132.08Y-116.84
X132.08Y-119.38
X132.08Y-121.92
X132.08Y-124.46
X132.08Y-127.0
X132.08Y-129.54
X132.08Y-132.08
X132.08Y-134.62
X132.08Y-137.16
X132.08Y-139.7
X132.08Y-142.24
X132.08Y-144.78
X132.08Y-147.32
X132.08Y-149.86
X132.08Y-152.4
X132.08Y-154.94
X132.08Y-157.48
X132.08Y-160.02
X132.08Y-162.56
X132.08Y-165.1
X132.08Y-167.64
X132.715Y-16.51
X133.985Y-177.165
X133.985Y-179.705
X136.525Y-177.165
X136.525Y-179.705
X139.065Y-177.165
X139.065Y-179.705
X141.605Y-177.165
X141.605Y-179.705
X144.145Y-177.165
X144.145Y-179.705
X146.685Y-177.165
X146.685Y-179.705
X149.225Y-177.165
X149.225Y-179.705
X151.765Y-177.165
X151.765Y-179.705
X154.305Y-177.165
X154.305Y-179.705
X156.845Y-177.165
X156.845Y-179.705
X159.385Y-177.165
X159.385Y-179.705
X161.925Y-177.165
X161.925Y-179.705
X164.465Y-177.165
X164.465Y-179.705
X167.005Y-177.165
X167.005Y-179.705
X169.545Y-177.165
X169.545Y-179.705
T8
X50.09Y-176.566
X50.09Y-181.066
X56.59Y-176.566
X56.59Y-181.066
X59.742Y-176.566
X59.742Y-181.066
X66.242Y-176.566
X66.242Y-181.066
T9
X72.345Y-173.355
X72.345Y-178.435
X76.545Y-173.355
X76.545Y-178.435
X80.745Y-173.355
X80.745Y-178.435
X84.945Y-173.355
X84.945Y-178.435
X89.145Y-173.355
X89.145Y-178.435
X93.345Y-173.355
X93.345Y-178.435
X97.545Y-173.355
X97.545Y-178.435
X101.745Y-173.355
X101.745Y-178.435
X105.945Y-173.355
X105.945Y-178.435
X110.145Y-173.355
X110.145Y-178.435
T10
X25.125Y-177.55
X47.995Y-20.07
X179.935Y-177.46
X180.095Y-20.045
T2
X18.45Y-33.16G85X18.45Y-34.16
G05
X23.95Y-28.66G85X22.95Y-28.66
G05
X22.95Y-38.66G85X23.95Y-38.66
G05
T5
X23.8Y-31.16G85X23.1Y-31.16
G05
X23.1Y-36.16G85X23.8Y-36.16
G05
M30
