M48
; DRILL file {KiCad 7.0.10} date Fri Jan 19 17:17:20 2024
; FORMAT={-:-/ absolute / metric / decimal}
; #@! TF.CreationDate,2024-01-19T17:17:20+02:00
; #@! TF.GenerationSoftware,Kicad,Pcbnew,7.0.10
; #@! TF.FileFunction,Plated,1,4,PTH
FMAT,2
METRIC
; #@! TA.AperFunction,Plated,PTH,ViaDrill
T1C0.400
; #@! TA.AperFunction,Plated,PTH,ComponentDrill
T2C0.400
; #@! TA.AperFunction,Plated,PTH,ComponentDrill
T3C0.600
; #@! TA.AperFunction,Plated,PTH,ComponentDrill
T4C0.787
; #@! TA.AperFunction,Plated,PTH,ComponentDrill
T5C0.800
; #@! TA.AperFunction,Plated,PTH,ComponentDrill
T6C0.900
; #@! TA.AperFunction,Plated,PTH,ComponentDrill
T7C1.000
; #@! TA.AperFunction,Plated,PTH,ComponentDrill
T8C1.100
; #@! TA.AperFunction,Plated,PTH,ComponentDrill
T9C1.400
; #@! TA.AperFunction,Plated,PTH,ComponentDrill
T10C4.300
%
G90
G05
T1
X16.084Y-88.03
X16.51Y-110.33
X16.602Y-96.426
X17.017Y-52.844
X17.225Y-98.313
X17.602Y-16.002
X17.888Y-106.344
X18.497Y-143.614
X18.59Y-142.201
X18.733Y-57.664
X18.868Y-107.996
X19.401Y-85.591
X19.806Y-78.266
X19.863Y-49.616
X21.072Y-62.322
X21.329Y-23.851
X21.7Y-14.65
X22.169Y-93.373
X22.494Y-45.197
X23.214Y-63.749
X23.3Y-61.752
X23.412Y-91.723
X23.453Y-17.746
X23.79Y-65.552
X24.321Y-44.337
X24.339Y-109.522
X24.449Y-42.755
X24.505Y-33.942
X24.506Y-143.565
X24.636Y-50.648
X24.694Y-99.21
X24.712Y-115.71
X24.712Y-107.668
X24.75Y-148.377
X24.883Y-81.092
X25.343Y-105.272
X25.428Y-17.339
X25.678Y-50.718
X26.475Y-107.343
X26.61Y-81.874
X26.762Y-41.253
X26.96Y-46.318
X27.305Y-17.348
X27.371Y-93.038
X27.48Y-33.471
X27.555Y-90.563
X27.617Y-85.919
X27.927Y-61.631
X28.004Y-35.97
X28.206Y-47.934
X28.215Y-71.474
X28.362Y-18.971
X28.591Y-20.75
X28.642Y-37.169
X28.708Y-159.629
X29.261Y-13.993
X30.016Y-20.24
X30.04Y-59.181
X30.04Y-64.761
X30.102Y-22.272
X30.137Y-25.184
X30.154Y-71.474
X30.447Y-23.87
X30.965Y-31.977
X31.516Y-48.136
X31.919Y-125.516
X32.905Y-126.508
X33.827Y-18.43
X33.827Y-23.569
X34.052Y-41.741
X34.419Y-137.519
X34.953Y-70.677
X34.992Y-80.773
X35.326Y-24.982
X35.963Y-46.526
X36.245Y-145.88
X36.631Y-42.811
X36.634Y-38.782
X36.635Y-135.279
X37.438Y-155.148
X37.655Y-117.483
X37.669Y-60.479
X37.736Y-39.792
X37.961Y-150.433
X38.359Y-71.419
X38.476Y-72.446
X38.72Y-55.882
X38.843Y-146.695
X38.937Y-75.48
X39.273Y-154.421
X39.334Y-74.402
X39.341Y-127.508
X39.425Y-118.302
X39.494Y-70.452
X39.547Y-151.262
X39.605Y-126.274
X39.806Y-135.302
X40.479Y-62.589
X41.089Y-125.455
X41.292Y-49.285
X41.4Y-47.88
X41.437Y-148.649
X41.717Y-30.609
X41.826Y-74.669
X43.074Y-140.439
X44.699Y-156.017
X44.776Y-112.529
X44.78Y-140.948
X44.912Y-57.773
X45.345Y-51.553
X45.542Y-108.903
X46.052Y-157.696
X46.084Y-68.299
X46.361Y-153.981
X46.641Y-61.505
X46.872Y-132.08
X46.89Y-141.431
X47.003Y-51.553
X47.18Y-74.767
X47.274Y-49.914
X47.571Y-62.893
X47.698Y-157.07
X48.517Y-51.992
X49.003Y-157.449
X49.303Y-145.158
X49.756Y-107.585
X50.064Y-99.256
X50.415Y-67.728
X51.113Y-126.274
X51.506Y-86.027
X51.803Y-105.333
X52.034Y-23.308
X53.018Y-147.414
X53.653Y-51.552
X54.164Y-130.111
X54.215Y-58.41
X54.898Y-94.0
X55.025Y-104.764
X55.196Y-167.577
X55.237Y-151.604
X55.252Y-159.288
X56.275Y-155.258
X56.551Y-144.903
X57.004Y-130.081
X57.06Y-84.036
X57.219Y-160.879
X57.397Y-135.302
X57.628Y-104.827
X57.77Y-152.4
X57.825Y-114.316
X57.825Y-117.243
X57.869Y-122.852
X58.681Y-132.498
X59.488Y-133.962
X59.597Y-51.553
X59.85Y-93.897
X59.927Y-171.722
X60.759Y-85.426
X61.228Y-57.776
X61.945Y-92.83
X62.462Y-31.502
X62.716Y-136.017
X63.191Y-139.929
X63.46Y-78.075
X63.466Y-63.095
X64.113Y-91.243
X64.577Y-163.5
X64.609Y-174.921
X64.802Y-95.277
X64.804Y-64.889
X65.427Y-91.507
X65.815Y-147.701
X66.484Y-146.474
X66.514Y-93.362
X66.821Y-92.026
X67.817Y-122.07
X68.299Y-57.014
X68.557Y-90.805
X69.472Y-83.818
X69.473Y-70.47
X69.966Y-96.998
X70.79Y-58.322
X71.451Y-39.573
X71.484Y-83.208
X71.613Y-104.356
X72.861Y-82.923
X73.2Y-74.552
X73.672Y-57.228
X74.509Y-89.767
X76.123Y-56.864
X76.313Y-50.614
X77.259Y-61.15
X77.965Y-90.583
X78.224Y-86.125
X79.106Y-162.92
X79.608Y-65.858
X81.939Y-74.703
X83.383Y-85.245
X83.865Y-124.945
X83.874Y-158.15
X83.94Y-86.699
X83.96Y-152.872
X84.118Y-102.997
X84.47Y-92.347
X84.872Y-165.284
X84.915Y-59.66
X84.935Y-51.76
X85.154Y-143.221
X85.544Y-130.81
X86.337Y-86.65
X87.092Y-65.644
X87.305Y-133.229
X87.322Y-74.453
X87.473Y-138.504
X87.588Y-151.353
X87.63Y-100.797
X87.809Y-70.294
X87.811Y-40.621
X87.817Y-105.597
X87.817Y-158.937
X87.854Y-161.439
X88.224Y-61.752
X88.261Y-81.828
X88.304Y-75.208
X89.436Y-81.489
X89.719Y-33.712
X90.41Y-146.138
X90.548Y-148.982
X90.555Y-140.62
X90.577Y-122.847
X90.584Y-125.673
X91.566Y-147.908
X91.81Y-90.245
X92.284Y-45.076
X92.737Y-41.227
X93.127Y-78.394
X93.381Y-59.834
X93.579Y-76.372
X93.607Y-88.144
X93.894Y-69.51
X94.98Y-57.019
X95.193Y-45.62
X96.516Y-37.803
X96.551Y-81.586
X96.813Y-29.232
X97.634Y-39.72
X97.677Y-171.107
X97.992Y-43.108
X98.706Y-164.662
X99.024Y-30.61
X99.562Y-104.635
X99.771Y-86.42
X99.956Y-38.427
X100.028Y-154.272
X100.115Y-80.083
X100.182Y-90.563
X100.402Y-75.165
X100.453Y-59.628
X100.514Y-97.977
X100.85Y-81.552
X101.614Y-87.272
X102.574Y-85.042
X102.763Y-81.623
X102.81Y-95.442
X102.87Y-47.668
X102.963Y-105.784
X102.963Y-113.404
X103.008Y-57.755
X103.057Y-130.997
X103.057Y-151.317
X103.183Y-32.748
X103.328Y-40.407
X103.765Y-81.585
X104.582Y-82.378
X104.871Y-33.983
X104.951Y-29.28
X105.845Y-83.039
X106.036Y-82.037
X106.341Y-88.903
X106.536Y-112.105
X106.896Y-65.83
X106.915Y-61.685
X107.274Y-74.93
X107.49Y-63.239
X107.978Y-34.598
X108.091Y-59.776
X108.295Y-66.88
X108.335Y-44.608
X109.176Y-55.855
X109.371Y-41.368
X109.505Y-57.212
X109.688Y-77.583
X109.688Y-86.545
X110.238Y-61.943
X110.511Y-49.098
X111.544Y-57.451
X111.593Y-102.363
X111.713Y-55.566
X112.259Y-40.654
X113.024Y-42.065
X113.643Y-82.126
X113.964Y-107.871
X114.867Y-86.585
X114.868Y-104.678
X115.425Y-88.077
X115.529Y-143.344
X115.664Y-35.922
X116.067Y-83.491
X116.539Y-63.811
X117.276Y-60.05
X117.297Y-82.066
X117.543Y-63.786
X118.017Y-138.083
X118.017Y-158.357
X118.117Y-55.746
X118.163Y-110.289
X118.164Y-117.903
X118.395Y-97.599
X118.395Y-153.479
X118.459Y-105.517
X118.459Y-112.986
X118.459Y-115.649
X118.459Y-133.457
X118.459Y-141.077
X118.673Y-56.654
X119.36Y-83.217
X120.137Y-55.61
X120.26Y-156.117
X120.555Y-90.137
X120.632Y-107.744
X120.65Y-46.434
X120.771Y-116.041
X120.844Y-111.246
X120.859Y-113.721
X120.932Y-143.883
X121.039Y-101.164
X121.039Y-160.683
X121.04Y-136.724
X121.302Y-125.91
X121.305Y-121.662
X121.384Y-33.356
X121.754Y-124.908
X122.446Y-166.676
X122.75Y-87.816
X123.014Y-39.029
X123.19Y-75.505
X123.197Y-62.216
X123.475Y-86.45
X124.298Y-102.823
X124.445Y-83.035
X124.814Y-113.643
X124.816Y-87.452
X125.199Y-140.877
X125.222Y-133.257
X125.981Y-142.485
X126.518Y-99.654
X126.596Y-88.865
X126.634Y-162.56
X126.642Y-146.13
X126.933Y-87.388
X126.939Y-33.248
X127.094Y-126.897
X127.336Y-85.684
X128.354Y-77.019
X128.448Y-33.068
X128.496Y-75.578
X129.02Y-60.38
X129.241Y-91.362
X129.309Y-63.428
X129.319Y-48.324
X129.342Y-89.228
X129.411Y-76.571
X130.01Y-64.424
X130.276Y-35.942
X130.293Y-72.738
X130.293Y-74.43
X130.336Y-67.915
X130.428Y-92.55
X130.498Y-60.026
X130.629Y-161.288
X130.759Y-131.008
X130.867Y-52.886
X130.873Y-115.928
X131.227Y-125.66
X131.427Y-32.334
X131.462Y-50.237
X131.588Y-27.925
X132.009Y-89.026
X132.327Y-56.039
X132.376Y-66.101
X132.552Y-167.315
X132.581Y-42.83
X132.581Y-46.392
X133.033Y-85.884
X133.033Y-87.2
X133.046Y-51.838
X133.179Y-59.477
X133.391Y-41.366
X133.439Y-117.93
X133.669Y-61.388
X134.056Y-35.293
X134.091Y-44.695
X134.247Y-87.78
X134.402Y-40.406
X134.92Y-75.355
X135.023Y-46.273
X135.147Y-49.666
X135.293Y-53.986
X135.362Y-63.31
X135.365Y-81.249
X135.382Y-72.843
X135.474Y-148.64
X135.598Y-51.689
X135.736Y-44.243
X135.797Y-135.503
X135.797Y-141.359
X135.905Y-163.83
X136.325Y-138.63
X136.573Y-159.561
X136.679Y-40.326
X136.712Y-123.282
X136.951Y-141.503
X136.956Y-74.999
X136.96Y-78.23
X137.017Y-71.73
X137.036Y-43.355
X137.117Y-142.866
X137.207Y-98.242
X137.271Y-81.351
X137.281Y-65.429
X137.439Y-124.461
X137.459Y-82.527
X137.636Y-59.985
X137.942Y-100.16
X138.024Y-133.162
X138.036Y-151.624
X138.486Y-44.362
X138.518Y-165.476
X138.526Y-61.606
X138.612Y-121.809
X138.678Y-117.7
X138.837Y-95.326
X138.858Y-134.246
X138.994Y-100.179
X139.02Y-47.287
X139.442Y-97.021
X139.444Y-151.461
X139.614Y-122.106
X139.752Y-75.072
X139.774Y-60.539
X139.887Y-138.264
X139.969Y-103.676
X140.192Y-90.87
X140.204Y-165.126
X140.21Y-160.663
X140.357Y-154.65
X140.386Y-122.751
X140.58Y-93.483
X140.84Y-133.036
X141.397Y-107.539
X141.407Y-56.072
X141.494Y-94.73
X141.596Y-42.251
X142.176Y-59.437
X142.57Y-73.397
X142.624Y-93.551
X143.264Y-132.785
X144.325Y-77.05
X144.8Y-59.926
X145.212Y-85.089
X145.761Y-117.903
X146.129Y-126.291
X146.199Y-95.5
X146.413Y-67.154
X148.031Y-131.117
X148.795Y-118.047
X148.957Y-44.857
X149.015Y-60.199
X149.087Y-40.017
X149.111Y-75.483
X149.309Y-67.734
X149.86Y-50.94
X150.23Y-113.213
X150.355Y-68.115
X150.369Y-156.527
X151.061Y-66.735
X151.315Y-146.577
X151.359Y-44.714
X151.666Y-65.405
X151.694Y-75.871
X153.855Y-148.329
X154.187Y-133.264
X154.569Y-75.192
X154.94Y-172.086
X155.009Y-141.784
X156.067Y-74.456
X156.158Y-60.698
X156.21Y-156.522
X156.21Y-118.635
X156.395Y-149.637
X156.845Y-121.51
X157.425Y-58.736
X157.918Y-36.902
X158.672Y-141.038
X158.697Y-60.697
X158.96Y-118.087
X159.179Y-57.794
X159.679Y-156.875
X159.876Y-42.029
X159.878Y-39.671
X160.815Y-167.316
X161.939Y-156.659
X162.823Y-83.453
X162.823Y-89.409
X163.247Y-121.51
X163.778Y-60.696
X163.784Y-133.07
X163.958Y-58.315
X164.04Y-118.273
X164.479Y-157.162
X165.246Y-55.919
X165.81Y-146.875
X166.121Y-144.896
X166.29Y-60.658
X166.302Y-30.206
X166.511Y-54.53
X166.595Y-139.145
X167.75Y-99.662
X168.398Y-93.273
X168.589Y-120.427
X169.002Y-162.148
X169.182Y-151.019
X169.292Y-47.582
X169.322Y-52.746
X169.972Y-103.687
X170.231Y-42.157
X170.594Y-48.481
X170.854Y-111.933
X171.307Y-154.071
X171.582Y-95.385
X171.618Y-121.448
X171.951Y-138.926
X172.174Y-53.737
X172.407Y-114.415
X172.429Y-106.344
X172.972Y-150.159
X173.508Y-114.543
X173.549Y-70.47
X173.552Y-106.344
X173.847Y-74.299
X173.853Y-123.982
X174.123Y-120.792
X174.128Y-96.315
X174.72Y-41.393
X174.994Y-123.482
X175.79Y-121.101
X175.973Y-41.158
X176.368Y-149.168
X176.818Y-153.736
X176.87Y-99.543
X177.777Y-103.653
X177.794Y-59.774
X178.793Y-123.52
X179.536Y-130.857
X180.444Y-69.055
X181.047Y-100.111
X181.22Y-104.99
X181.221Y-92.99
X181.589Y-128.121
X183.867Y-50.54
X184.084Y-66.484
T3
X21.9Y-177.55
X22.845Y-175.27
X22.845Y-179.83
X25.125Y-174.325
X25.125Y-180.775
X27.405Y-175.27
X27.405Y-179.83
X28.35Y-177.55
X44.77Y-20.07
X45.714Y-17.789
X45.714Y-22.35
X47.995Y-16.845
X47.995Y-23.295
X50.275Y-17.789
X50.275Y-22.35
X51.22Y-20.07
X176.745Y-177.52
X176.87Y-20.045
X177.689Y-175.239
X177.689Y-179.8
X177.814Y-17.764
X177.814Y-22.325
X179.97Y-174.295
X179.97Y-180.745
X180.095Y-16.82
X180.095Y-23.27
X182.25Y-175.239
X182.25Y-179.8
X182.375Y-17.764
X182.375Y-22.325
X183.195Y-177.52
X183.32Y-20.045
T4
X96.52Y-45.72
X96.52Y-48.26
X96.52Y-50.8
X96.52Y-53.34
X96.52Y-55.88
X96.52Y-58.42
X96.52Y-60.96
X96.52Y-63.5
X96.52Y-66.04
X96.52Y-68.58
X96.52Y-71.12
X96.52Y-73.66
X96.52Y-76.2
X99.06Y-45.72
X99.06Y-48.26
X99.06Y-50.8
X99.06Y-53.34
X99.06Y-55.88
X99.06Y-58.42
X99.06Y-60.96
X99.06Y-63.5
X99.06Y-66.04
X99.06Y-68.58
X99.06Y-71.12
X99.06Y-73.66
X99.06Y-76.2
X101.6Y-45.72
X101.6Y-48.26
X101.6Y-50.8
X101.6Y-53.34
X101.6Y-55.88
X101.6Y-58.42
X101.6Y-60.96
X101.6Y-63.5
X101.6Y-66.04
X101.6Y-68.58
X101.6Y-71.12
X101.6Y-73.66
X101.6Y-76.2
X104.14Y-45.72
X104.14Y-48.26
X104.14Y-50.8
X104.14Y-53.34
X104.14Y-63.5
X104.14Y-68.58
X104.14Y-71.12
X104.14Y-73.66
X104.14Y-76.2
X106.68Y-45.72
X106.68Y-48.26
X106.68Y-50.8
X106.68Y-71.12
X106.68Y-73.66
X106.68Y-76.2
X109.22Y-45.72
X109.22Y-48.26
X109.22Y-50.8
X109.22Y-71.12
X109.22Y-73.66
X109.22Y-76.2
X111.76Y-45.72
X111.76Y-48.26
X111.76Y-50.8
X111.76Y-71.12
X111.76Y-73.66
X111.76Y-76.2
X114.3Y-45.72
X114.3Y-48.26
X114.3Y-50.8
X114.3Y-71.12
X114.3Y-73.66
X114.3Y-76.2
X116.84Y-45.72
X116.84Y-48.26
X116.84Y-50.8
X116.84Y-53.34
X116.84Y-68.58
X116.84Y-71.12
X116.84Y-73.66
X116.84Y-76.2
X119.38Y-45.72
X119.38Y-48.26
X119.38Y-50.8
X119.38Y-53.34
X119.38Y-63.5
X119.38Y-68.58
X119.38Y-71.12
X119.38Y-73.66
X119.38Y-76.2
X121.92Y-45.72
X121.92Y-48.26
X121.92Y-50.8
X121.92Y-53.34
X121.92Y-55.88
X121.92Y-58.42
X121.92Y-60.96
X121.92Y-63.5
X121.92Y-66.04
X121.92Y-68.58
X121.92Y-71.12
X121.92Y-73.66
X121.92Y-76.2
X124.46Y-45.72
X124.46Y-48.26
X124.46Y-50.8
X124.46Y-53.34
X124.46Y-55.88
X124.46Y-58.42
X124.46Y-60.96
X124.46Y-63.5
X124.46Y-66.04
X124.46Y-68.58
X124.46Y-71.12
X124.46Y-73.66
X124.46Y-76.2
X127.0Y-45.72
X127.0Y-48.26
X127.0Y-50.8
X127.0Y-53.34
X127.0Y-55.88
X127.0Y-58.42
X127.0Y-60.96
X127.0Y-63.5
X127.0Y-66.04
X127.0Y-68.58
X127.0Y-71.12
X127.0Y-73.66
X127.0Y-76.2
T5
X16.17Y-43.0
X18.01Y-46.23
X18.01Y-48.77
X18.01Y-51.31
X18.01Y-53.85
X18.01Y-56.39
X18.01Y-58.93
X18.01Y-61.47
X18.01Y-64.01
X18.01Y-66.55
X18.01Y-69.09
X18.01Y-71.63
X18.01Y-74.17
X18.01Y-76.71
X18.01Y-79.25
X18.01Y-81.79
X18.01Y-84.33
X18.01Y-86.87
X18.01Y-89.41
X18.01Y-91.95
X18.01Y-94.49
X20.5Y-97.75
X23.0Y-97.75
X26.25Y-121.92
X26.25Y-132.08
X26.33Y-43.0
X26.67Y-98.25
X30.75Y-43.0
X32.0Y-16.0
X33.25Y-43.0
X33.25Y-46.23
X33.25Y-48.77
X33.25Y-51.31
X33.25Y-53.85
X33.25Y-56.39
X33.25Y-58.93
X33.25Y-61.47
X33.25Y-64.01
X33.25Y-66.55
X33.25Y-69.09
X33.25Y-71.63
X33.25Y-74.17
X33.25Y-76.71
X33.25Y-79.25
X33.25Y-81.79
X33.25Y-84.33
X33.25Y-86.87
X33.25Y-89.41
X33.25Y-91.95
X33.25Y-94.49
X35.25Y-30.25
X36.0Y-58.0
X36.0Y-72.5
X36.25Y-50.25
X36.25Y-52.75
X36.83Y-98.25
X37.0Y-16.0
X37.63Y-36.19
X37.63Y-43.81
X38.0Y-62.8
X38.0Y-67.7
X40.205Y-16.5
X40.25Y-30.25
X40.64Y-149.86
X40.64Y-152.4
X40.64Y-154.94
X40.64Y-157.48
X40.64Y-160.02
X41.0Y-58.0
X41.0Y-72.5
X42.205Y-16.5
X43.18Y-147.32
X43.18Y-149.86
X43.18Y-152.4
X43.18Y-154.94
X43.18Y-157.48
X43.18Y-160.02
X43.18Y-162.56
X43.34Y-69.5
X43.42Y-66.25
X43.42Y-72.5
X44.928Y-48.047
X44.928Y-55.667
X45.72Y-147.32
X45.72Y-149.86
X45.72Y-160.02
X45.72Y-162.56
X47.468Y-48.047
X47.468Y-55.667
X47.696Y-88.433
X47.696Y-96.053
X48.09Y-78.5
X48.09Y-81.75
X48.17Y-84.75
X48.26Y-147.32
X48.26Y-149.86
X48.26Y-160.02
X48.26Y-162.56
X48.5Y-178.0
X48.5Y-180.0
X50.008Y-48.047
X50.008Y-55.667
X50.236Y-88.433
X50.236Y-96.053
X50.8Y-147.32
X50.8Y-149.86
X50.8Y-152.4
X50.8Y-154.94
X50.8Y-157.48
X50.8Y-160.02
X50.8Y-162.56
X52.42Y-171.0
X52.548Y-48.047
X52.548Y-55.667
X52.776Y-88.433
X52.776Y-96.053
X52.87Y-36.19
X52.87Y-43.81
X53.2Y-174.18
X53.2Y-181.8
X53.34Y-149.86
X53.34Y-152.4
X53.34Y-154.94
X53.34Y-157.48
X53.34Y-160.02
X53.5Y-69.5
X53.58Y-66.25
X53.58Y-72.5
X54.0Y-23.0
X54.015Y-16.942
X55.088Y-48.047
X55.088Y-55.667
X55.316Y-88.433
X55.316Y-96.053
X55.74Y-174.18
X55.74Y-181.8
X55.75Y-29.5
X56.25Y-58.67
X56.25Y-68.83
X57.628Y-48.047
X57.628Y-55.667
X57.67Y-34.75
X57.856Y-88.433
X57.856Y-96.053
X58.25Y-78.5
X58.25Y-81.75
X58.28Y-174.18
X58.28Y-181.8
X58.33Y-84.75
X58.5Y-162.25
X58.5Y-164.75
X59.0Y-23.0
X59.015Y-16.942
X59.13Y-59.01
X59.13Y-61.55
X59.13Y-64.09
X59.13Y-66.63
X59.13Y-69.17
X59.13Y-71.71
X59.13Y-74.25
X60.168Y-48.047
X60.168Y-55.667
X60.396Y-88.433
X60.396Y-96.053
X60.75Y-29.5
X60.82Y-174.18
X60.82Y-181.8
X61.8Y-159.88
X61.8Y-167.5
X62.5Y-80.5
X62.5Y-83.0
X62.58Y-171.0
X62.789Y-98.882
X62.789Y-106.502
X62.936Y-88.433
X62.936Y-96.053
X64.34Y-159.88
X64.34Y-167.5
X65.329Y-98.882
X65.329Y-106.502
X66.0Y-77.92
X66.0Y-88.08
X66.75Y-59.01
X66.75Y-61.55
X66.75Y-64.09
X66.75Y-66.63
X66.75Y-69.17
X66.75Y-71.71
X66.75Y-74.25
X66.88Y-159.88
X66.88Y-167.5
X67.83Y-34.75
X67.869Y-98.882
X67.869Y-106.502
X69.42Y-159.88
X69.42Y-167.5
X69.625Y-80.18
X69.625Y-87.8
X70.409Y-98.882
X70.409Y-106.502
X71.0Y-34.0
X71.12Y-60.26
X71.12Y-75.5
X71.96Y-159.88
X71.96Y-167.5
X72.165Y-80.18
X72.165Y-87.8
X72.873Y-39.573
X72.873Y-42.113
X72.873Y-44.653
X72.873Y-47.193
X72.873Y-49.733
X72.873Y-52.273
X72.873Y-54.813
X72.949Y-98.882
X72.949Y-106.502
X73.09Y-94.75
X73.17Y-91.5
X73.5Y-34.0
X74.5Y-159.88
X74.5Y-167.5
X74.705Y-80.18
X74.705Y-87.8
X75.489Y-98.882
X75.489Y-106.502
X76.72Y-28.0
X76.72Y-35.62
X77.04Y-159.88
X77.04Y-167.5
X77.245Y-80.18
X77.245Y-87.8
X78.029Y-98.882
X78.029Y-106.502
X78.74Y-60.26
X78.74Y-75.5
X79.26Y-28.0
X79.26Y-35.62
X79.785Y-80.18
X79.785Y-87.8
X80.493Y-39.573
X80.493Y-42.113
X80.493Y-44.653
X80.493Y-47.193
X80.493Y-49.733
X80.493Y-52.273
X80.493Y-54.813
X80.569Y-98.882
X80.569Y-106.502
X81.8Y-28.0
X81.8Y-35.62
X82.325Y-80.18
X82.325Y-87.8
X83.25Y-94.75
X83.33Y-91.5
X83.5Y-49.22
X83.5Y-51.76
X83.5Y-54.3
X83.5Y-56.84
X83.5Y-59.38
X83.5Y-61.92
X83.5Y-64.46
X83.5Y-67.0
X83.5Y-69.54
X83.5Y-72.08
X83.5Y-74.62
X83.5Y-77.16
X84.34Y-28.0
X84.34Y-35.62
X84.42Y-25.0
X84.865Y-80.18
X84.865Y-87.8
X86.88Y-28.0
X86.88Y-35.62
X87.405Y-80.18
X87.405Y-87.8
X89.42Y-28.0
X89.42Y-35.62
X91.12Y-49.22
X91.12Y-51.76
X91.12Y-54.3
X91.12Y-56.84
X91.12Y-59.38
X91.12Y-61.92
X91.12Y-64.46
X91.12Y-67.0
X91.12Y-69.54
X91.12Y-72.08
X91.12Y-74.62
X91.12Y-77.16
X91.96Y-28.0
X91.96Y-35.62
X92.0Y-81.7
X92.0Y-85.25
X94.5Y-28.0
X94.5Y-35.62
X94.5Y-81.7
X94.5Y-85.25
X94.58Y-25.0
X94.92Y-41.25
X98.92Y-24.5
X98.92Y-27.5
X99.67Y-21.25
X101.6Y-30.48
X101.6Y-38.1
X104.14Y-30.48
X104.14Y-38.1
X105.08Y-41.25
X106.68Y-30.48
X106.68Y-38.1
X107.42Y-41.25
X109.08Y-24.5
X109.08Y-27.5
X109.22Y-30.48
X109.22Y-38.1
X109.83Y-21.25
X111.76Y-30.48
X111.76Y-38.1
X114.3Y-25.44
X114.3Y-27.94
X114.3Y-30.48
X114.3Y-38.1
X115.75Y-172.75
X116.84Y-30.48
X116.84Y-38.1
X117.58Y-41.25
X118.25Y-172.75
X119.38Y-25.4
X119.38Y-30.48
X119.38Y-38.1
X120.0Y-41.25
X121.92Y-30.48
X121.92Y-38.1
X122.5Y-41.25
X124.28Y-25.4
X124.46Y-30.48
X124.46Y-38.1
X127.0Y-30.48
X127.0Y-38.1
X128.42Y-41.0
X128.92Y-82.5
X128.92Y-85.75
X129.54Y-25.44
X129.54Y-27.94
X129.54Y-30.48
X129.54Y-38.1
X131.92Y-22.5
X131.92Y-25.75
X132.08Y-30.48
X132.08Y-38.1
X134.62Y-30.48
X134.62Y-38.1
X138.0Y-70.25
X138.0Y-72.75
X138.25Y-53.25
X138.25Y-55.75
X138.58Y-41.0
X138.75Y-88.5
X138.75Y-91.0
X138.75Y-107.5
X138.75Y-110.0
X138.75Y-126.25
X138.75Y-128.75
X139.0Y-34.5
X139.0Y-37.0
X139.0Y-144.0
X139.0Y-146.5
X139.0Y-161.5
X139.0Y-164.0
X139.08Y-82.5
X139.08Y-85.75
X142.08Y-22.5
X142.08Y-25.75
X142.24Y-28.448
X142.24Y-43.688
X142.24Y-46.228
X142.24Y-61.468
X142.24Y-64.008
X142.24Y-79.248
X142.24Y-101.6
X142.24Y-116.84
X142.24Y-119.38
X142.24Y-134.62
X142.24Y-154.94
X142.24Y-170.18
X142.296Y-81.896
X142.296Y-97.136
X142.296Y-137.096
X142.296Y-152.336
X144.78Y-28.448
X144.78Y-43.688
X144.78Y-46.228
X144.78Y-61.468
X144.78Y-64.008
X144.78Y-79.248
X144.78Y-101.6
X144.78Y-116.84
X144.78Y-119.38
X144.78Y-134.62
X144.78Y-154.94
X144.78Y-170.18
X144.836Y-81.896
X144.836Y-97.136
X144.836Y-137.096
X144.836Y-152.336
X147.32Y-28.448
X147.32Y-43.688
X147.32Y-46.228
X147.32Y-61.468
X147.32Y-64.008
X147.32Y-79.248
X147.32Y-101.6
X147.32Y-116.84
X147.32Y-119.38
X147.32Y-134.62
X147.32Y-154.94
X147.32Y-170.18
X147.376Y-81.896
X147.376Y-97.136
X147.376Y-137.096
X147.376Y-152.336
X149.86Y-28.448
X149.86Y-43.688
X149.86Y-46.228
X149.86Y-61.468
X149.86Y-64.008
X149.86Y-79.248
X149.86Y-101.6
X149.86Y-116.84
X149.86Y-119.38
X149.86Y-134.62
X149.86Y-154.94
X149.86Y-170.18
X149.916Y-81.896
X149.916Y-97.136
X149.916Y-137.096
X149.916Y-152.336
X152.4Y-28.448
X152.4Y-43.688
X152.4Y-46.228
X152.4Y-61.468
X152.4Y-64.008
X152.4Y-79.248
X152.4Y-101.6
X152.4Y-116.84
X152.4Y-119.38
X152.4Y-134.62
X152.4Y-154.94
X152.4Y-170.18
X152.456Y-81.896
X152.456Y-97.136
X152.456Y-137.096
X152.456Y-152.336
X154.94Y-28.448
X154.94Y-43.688
X154.94Y-46.228
X154.94Y-61.468
X154.94Y-64.008
X154.94Y-79.248
X154.94Y-101.6
X154.94Y-116.84
X154.94Y-119.38
X154.94Y-134.62
X154.94Y-154.94
X154.94Y-170.18
X154.996Y-81.896
X154.996Y-97.136
X154.996Y-137.096
X154.996Y-152.336
X157.48Y-28.448
X157.48Y-43.688
X157.48Y-46.228
X157.48Y-61.468
X157.48Y-64.008
X157.48Y-79.248
X157.48Y-101.6
X157.48Y-116.84
X157.48Y-119.38
X157.48Y-134.62
X157.48Y-154.94
X157.48Y-170.18
X157.536Y-81.896
X157.536Y-97.136
X157.536Y-137.096
X157.536Y-152.336
X160.02Y-28.448
X160.02Y-43.688
X160.02Y-46.228
X160.02Y-61.468
X160.02Y-64.008
X160.02Y-79.248
X160.02Y-101.6
X160.02Y-116.84
X160.02Y-119.38
X160.02Y-134.62
X160.02Y-154.94
X160.02Y-170.18
X160.076Y-81.896
X160.076Y-97.136
X160.076Y-137.096
X160.076Y-152.336
X162.56Y-28.448
X162.56Y-43.688
X162.56Y-46.228
X162.56Y-61.468
X162.56Y-64.008
X162.56Y-79.248
X162.56Y-101.6
X162.56Y-116.84
X162.56Y-119.38
X162.56Y-134.62
X162.56Y-154.94
X162.56Y-170.18
X162.616Y-81.896
X162.616Y-97.136
X162.616Y-137.096
X162.616Y-152.336
X165.1Y-28.448
X165.1Y-43.688
X165.1Y-46.228
X165.1Y-61.468
X165.1Y-64.008
X165.1Y-79.248
X165.1Y-101.6
X165.1Y-116.84
X165.1Y-119.38
X165.1Y-134.62
X165.1Y-154.94
X165.1Y-170.18
X165.156Y-81.896
X165.156Y-97.136
X165.156Y-137.096
X165.156Y-152.336
X167.64Y-28.448
X167.64Y-43.688
X167.64Y-46.228
X167.64Y-61.468
X167.64Y-64.008
X167.64Y-79.248
X167.64Y-101.6
X167.64Y-116.84
X167.64Y-119.38
X167.64Y-134.62
X167.64Y-154.94
X167.64Y-170.18
X167.696Y-81.896
X167.696Y-97.136
X167.696Y-137.096
X167.696Y-152.336
X170.18Y-28.448
X170.18Y-43.688
X170.18Y-46.228
X170.18Y-61.468
X170.18Y-64.008
X170.18Y-79.248
X170.18Y-101.6
X170.18Y-116.84
X170.18Y-119.38
X170.18Y-134.62
X170.18Y-154.94
X170.18Y-170.18
X170.236Y-81.896
X170.236Y-97.136
X170.236Y-137.096
X170.236Y-152.336
X172.72Y-28.448
X172.72Y-43.688
X172.72Y-46.228
X172.72Y-61.468
X172.72Y-64.008
X172.72Y-79.248
X172.72Y-101.6
X172.72Y-116.84
X172.72Y-119.38
X172.72Y-134.62
X172.72Y-154.94
X172.72Y-170.18
X172.776Y-81.896
X172.776Y-97.136
X172.776Y-137.096
X172.776Y-152.336
X175.26Y-28.448
X175.26Y-43.688
X175.26Y-46.228
X175.26Y-61.468
X175.26Y-64.008
X175.26Y-79.248
X175.26Y-101.6
X175.26Y-116.84
X175.26Y-119.38
X175.26Y-134.62
X175.26Y-154.94
X175.26Y-170.18
X175.316Y-81.896
X175.316Y-97.136
X175.316Y-137.096
X175.316Y-152.336
X177.8Y-28.448
X177.8Y-43.688
X177.8Y-46.228
X177.8Y-61.468
X177.8Y-64.008
X177.8Y-79.248
X177.8Y-101.6
X177.8Y-116.84
X177.8Y-119.38
X177.8Y-134.62
X177.8Y-154.94
X177.8Y-170.18
X177.856Y-81.896
X177.856Y-97.136
X177.856Y-137.096
X177.856Y-152.336
X180.34Y-28.448
X180.34Y-43.688
X180.34Y-46.228
X180.34Y-61.468
X180.34Y-64.008
X180.34Y-79.248
X180.34Y-101.6
X180.34Y-116.84
X180.34Y-119.38
X180.34Y-134.62
X180.34Y-154.94
X180.34Y-170.18
X180.396Y-81.896
X180.396Y-97.136
X180.396Y-137.096
X180.396Y-152.336
T6
X45.25Y-60.235
X45.25Y-62.775
X51.0Y-60.25
X51.0Y-62.79
T7
X18.0Y-169.75
X20.32Y-101.6
X20.32Y-104.14
X20.32Y-106.68
X20.32Y-109.22
X20.32Y-111.76
X20.32Y-114.3
X20.32Y-116.84
X20.32Y-119.38
X20.32Y-121.92
X20.32Y-124.46
X20.32Y-127.0
X20.32Y-129.54
X20.32Y-132.08
X20.32Y-134.62
X20.32Y-137.16
X20.32Y-139.7
X20.32Y-142.24
X20.32Y-144.78
X20.32Y-147.32
X20.32Y-149.86
X20.32Y-152.4
X20.32Y-154.94
X20.32Y-157.48
X20.32Y-160.02
X20.32Y-162.56
X22.0Y-169.75
X22.86Y-101.6
X22.86Y-104.14
X22.86Y-106.68
X22.86Y-109.22
X22.86Y-111.76
X22.86Y-114.3
X22.86Y-116.84
X22.86Y-119.38
X22.86Y-121.92
X22.86Y-124.46
X22.86Y-127.0
X22.86Y-129.54
X22.86Y-132.08
X22.86Y-134.62
X22.86Y-137.16
X22.86Y-139.7
X22.86Y-142.24
X22.86Y-144.78
X22.86Y-147.32
X22.86Y-149.86
X22.86Y-152.4
X22.86Y-154.94
X22.86Y-157.48
X22.86Y-160.02
X22.86Y-162.56
X33.02Y-177.8
X33.02Y-180.34
X37.0Y-76.42
X37.0Y-78.96
X37.0Y-81.5
X37.0Y-84.04
X37.0Y-86.58
X37.0Y-89.12
X37.0Y-91.66
X37.0Y-94.2
X38.1Y-177.8
X38.1Y-180.34
X41.0Y-76.71
X41.0Y-79.25
X41.0Y-81.79
X41.0Y-84.33
X41.0Y-86.87
X41.0Y-89.41
X81.17Y-21.0
X83.71Y-21.0
X86.25Y-21.0
X86.36Y-91.44
X86.36Y-93.98
X86.36Y-96.52
X86.36Y-99.06
X86.36Y-101.6
X86.36Y-104.14
X86.36Y-106.68
X86.36Y-109.22
X86.36Y-111.76
X86.36Y-114.3
X86.36Y-116.84
X86.36Y-119.38
X86.36Y-121.92
X86.36Y-124.46
X86.36Y-127.0
X86.36Y-129.54
X86.36Y-132.08
X86.36Y-134.62
X86.36Y-137.16
X86.36Y-139.7
X86.36Y-142.24
X86.36Y-144.78
X86.36Y-147.32
X86.36Y-149.86
X86.36Y-152.4
X86.36Y-154.94
X86.36Y-157.48
X86.36Y-160.02
X86.36Y-162.56
X86.36Y-165.1
X88.9Y-91.44
X88.9Y-93.98
X88.9Y-96.52
X88.9Y-99.06
X88.9Y-101.6
X88.9Y-104.14
X88.9Y-106.68
X88.9Y-109.22
X88.9Y-111.76
X88.9Y-114.3
X88.9Y-116.84
X88.9Y-119.38
X88.9Y-121.92
X88.9Y-124.46
X88.9Y-127.0
X88.9Y-129.54
X88.9Y-132.08
X88.9Y-134.62
X88.9Y-137.16
X88.9Y-139.7
X88.9Y-142.24
X88.9Y-144.78
X88.9Y-147.32
X88.9Y-149.86
X88.9Y-152.4
X88.9Y-154.94
X88.9Y-157.48
X88.9Y-160.02
X88.9Y-162.56
X88.9Y-165.1
X91.42Y-21.0
X93.96Y-21.0
X96.5Y-21.0
X101.6Y-91.44
X101.6Y-93.98
X101.6Y-96.52
X101.6Y-99.06
X101.6Y-101.6
X101.6Y-104.14
X101.6Y-106.68
X101.6Y-109.22
X101.6Y-111.76
X101.6Y-114.3
X101.6Y-116.84
X101.6Y-119.38
X101.6Y-121.92
X101.6Y-124.46
X101.6Y-127.0
X101.6Y-129.54
X101.6Y-132.08
X101.6Y-134.62
X101.6Y-137.16
X101.6Y-139.7
X101.6Y-142.24
X101.6Y-144.78
X101.6Y-147.32
X101.6Y-149.86
X101.6Y-152.4
X101.6Y-154.94
X101.6Y-157.48
X101.6Y-160.02
X101.6Y-162.56
X101.6Y-165.1
X104.14Y-91.44
X104.14Y-93.98
X104.14Y-96.52
X104.14Y-99.06
X104.14Y-101.6
X104.14Y-104.14
X104.14Y-106.68
X104.14Y-109.22
X104.14Y-111.76
X104.14Y-114.3
X104.14Y-116.84
X104.14Y-119.38
X104.14Y-121.92
X104.14Y-124.46
X104.14Y-127.0
X104.14Y-129.54
X104.14Y-132.08
X104.14Y-134.62
X104.14Y-137.16
X104.14Y-139.7
X104.14Y-142.24
X104.14Y-144.78
X104.14Y-147.32
X104.14Y-149.86
X104.14Y-152.4
X104.14Y-154.94
X104.14Y-157.48
X104.14Y-160.02
X104.14Y-162.56
X104.14Y-165.1
X116.84Y-91.44
X116.84Y-93.98
X116.84Y-96.52
X116.84Y-99.06
X116.84Y-101.6
X116.84Y-104.14
X116.84Y-106.68
X116.84Y-109.22
X116.84Y-111.76
X116.84Y-114.3
X116.84Y-116.84
X116.84Y-119.38
X116.84Y-121.92
X116.84Y-124.46
X116.84Y-127.0
X116.84Y-129.54
X116.84Y-132.08
X116.84Y-134.62
X116.84Y-137.16
X116.84Y-139.7
X116.84Y-142.24
X116.84Y-144.78
X116.84Y-147.32
X116.84Y-149.86
X116.84Y-152.4
X116.84Y-154.94
X116.84Y-157.48
X116.84Y-160.02
X116.84Y-162.56
X116.84Y-165.1
X119.38Y-91.44
X119.38Y-93.98
X119.38Y-96.52
X119.38Y-99.06
X119.38Y-101.6
X119.38Y-104.14
X119.38Y-106.68
X119.38Y-109.22
X119.38Y-111.76
X119.38Y-114.3
X119.38Y-116.84
X119.38Y-119.38
X119.38Y-121.92
X119.38Y-124.46
X119.38Y-127.0
X119.38Y-129.54
X119.38Y-132.08
X119.38Y-134.62
X119.38Y-137.16
X119.38Y-139.7
X119.38Y-142.24
X119.38Y-144.78
X119.38Y-147.32
X119.38Y-149.86
X119.38Y-152.4
X119.38Y-154.94
X119.38Y-157.48
X119.38Y-160.02
X119.38Y-162.56
X119.38Y-165.1
X119.38Y-177.8
X119.38Y-180.34
X121.92Y-177.8
X121.92Y-180.34
X124.46Y-177.8
X124.46Y-180.34
X127.0Y-177.8
X127.0Y-180.34
X129.54Y-177.8
X129.54Y-180.34
X132.08Y-91.44
X132.08Y-93.98
X132.08Y-96.52
X132.08Y-99.06
X132.08Y-101.6
X132.08Y-104.14
X132.08Y-106.68
X132.08Y-109.22
X132.08Y-111.76
X132.08Y-114.3
X132.08Y-116.84
X132.08Y-119.38
X132.08Y-121.92
X132.08Y-124.46
X132.08Y-127.0
X132.08Y-129.54
X132.08Y-132.08
X132.08Y-134.62
X132.08Y-137.16
X132.08Y-139.7
X132.08Y-142.24
X132.08Y-144.78
X132.08Y-147.32
X132.08Y-149.86
X132.08Y-152.4
X132.08Y-154.94
X132.08Y-157.48
X132.08Y-160.02
X132.08Y-162.56
X132.08Y-165.1
X132.08Y-177.8
X132.08Y-180.34
X134.62Y-91.44
X134.62Y-93.98
X134.62Y-96.52
X134.62Y-99.06
X134.62Y-101.6
X134.62Y-104.14
X134.62Y-106.68
X134.62Y-109.22
X134.62Y-111.76
X134.62Y-114.3
X134.62Y-116.84
X134.62Y-119.38
X134.62Y-121.92
X134.62Y-124.46
X134.62Y-127.0
X134.62Y-129.54
X134.62Y-132.08
X134.62Y-134.62
X134.62Y-137.16
X134.62Y-139.7
X134.62Y-142.24
X134.62Y-144.78
X134.62Y-147.32
X134.62Y-149.86
X134.62Y-152.4
X134.62Y-154.94
X134.62Y-157.48
X134.62Y-160.02
X134.62Y-162.56
X134.62Y-165.1
X134.62Y-177.8
X134.62Y-180.34
X137.16Y-177.8
X137.16Y-180.34
X139.7Y-177.8
X139.7Y-180.34
X142.24Y-177.8
X142.24Y-180.34
X144.78Y-177.8
X144.78Y-180.34
X147.32Y-20.32
X147.32Y-177.8
X147.32Y-180.34
X149.86Y-20.32
X149.86Y-177.8
X149.86Y-180.34
X152.4Y-20.32
X152.4Y-177.8
X152.4Y-180.34
X154.94Y-20.32
X154.94Y-177.8
X154.94Y-180.34
X157.48Y-177.8
X157.48Y-180.34
X160.02Y-177.8
X160.02Y-180.34
X162.56Y-20.32
X162.56Y-177.8
X162.56Y-180.34
X165.1Y-20.32
X165.1Y-177.8
X165.1Y-180.34
X167.64Y-20.32
X167.64Y-177.8
X167.64Y-180.34
X170.18Y-20.32
T8
X31.6Y-167.64
X31.6Y-172.14
X38.1Y-167.64
X38.1Y-172.14
X42.47Y-167.64
X42.47Y-172.14
X48.97Y-167.64
X48.97Y-172.14
T9
X68.78Y-172.72
X68.78Y-178.22
X72.98Y-172.72
X72.98Y-178.22
X77.18Y-172.72
X77.18Y-178.22
X81.38Y-172.72
X81.38Y-178.22
X85.58Y-172.72
X85.58Y-178.22
X89.78Y-172.72
X89.78Y-178.22
X93.98Y-172.72
X93.98Y-178.22
X98.18Y-172.72
X98.18Y-178.22
X102.38Y-172.72
X102.38Y-178.22
X106.58Y-172.72
X106.58Y-178.22
T10
X25.125Y-177.55
X47.995Y-20.07
X179.97Y-177.52
X180.095Y-20.045
T2
X64.139Y-21.848G85X64.139Y-22.848
G05
X69.639Y-17.348G85X68.639Y-17.348
G05
X74.139Y-22.848G85X74.139Y-21.848
G05
T5
X66.639Y-21.998G85X66.639Y-22.698
G05
X71.639Y-22.698G85X71.639Y-21.998
G05
M30
