M48
; DRILL file {KiCad 7.0.10} date Thu Jan 18 14:13:56 2024
; FORMAT={-:-/ absolute / metric / decimal}
; #@! TF.CreationDate,2024-01-18T14:13:56+02:00
; #@! TF.GenerationSoftware,Kicad,Pcbnew,7.0.10
; #@! TF.FileFunction,Plated,1,2,PTH
FMAT,2
METRIC
; #@! TA.AperFunction,Plated,PTH,ComponentDrill
T1C0.600
; #@! TA.AperFunction,Plated,PTH,ComponentDrill
T2C0.787
; #@! TA.AperFunction,Plated,PTH,ComponentDrill
T3C0.800
; #@! TA.AperFunction,Plated,PTH,ComponentDrill
T4C1.000
; #@! TA.AperFunction,Plated,PTH,ComponentDrill
T5C1.100
; #@! TA.AperFunction,Plated,PTH,ComponentDrill
T6C4.300
%
G90
G05
T1
X21.727Y-177.44
X21.927Y-177.54
X22.672Y-175.159
X22.672Y-179.72
X22.871Y-175.26
X22.871Y-179.821
X24.952Y-174.215
X24.952Y-180.665
X25.152Y-174.315
X25.152Y-180.765
X27.233Y-175.159
X27.233Y-179.72
X27.432Y-175.26
X27.432Y-179.821
X28.177Y-177.44
X28.377Y-177.54
X44.672Y-19.92
X44.767Y-19.84
X45.617Y-17.64
X45.617Y-22.2
X45.711Y-17.559
X45.711Y-22.12
X47.897Y-16.695
X47.897Y-23.145
X47.992Y-16.615
X47.992Y-23.065
X50.177Y-17.64
X50.177Y-22.2
X50.272Y-17.559
X50.272Y-22.12
X51.122Y-19.92
X51.217Y-19.84
X176.822Y-177.52
X176.867Y-20.067
X176.867Y-177.54
X176.967Y-20.04
X177.767Y-175.24
X177.767Y-179.8
X177.811Y-17.787
X177.811Y-22.348
X177.811Y-175.26
X177.811Y-179.821
X177.911Y-17.759
X177.911Y-22.32
X180.047Y-174.295
X180.047Y-180.745
X180.092Y-16.842
X180.092Y-23.292
X180.092Y-174.315
X180.092Y-180.765
X180.192Y-16.815
X180.192Y-23.265
X182.327Y-175.24
X182.327Y-179.8
X182.372Y-17.787
X182.372Y-22.348
X182.372Y-175.26
X182.372Y-179.821
X182.472Y-17.759
X182.472Y-22.32
X183.272Y-177.52
X183.317Y-20.067
X183.317Y-177.54
X183.417Y-20.04
T2
X87.412Y-68.14
X87.412Y-70.68
X87.412Y-73.22
X87.412Y-75.76
X87.412Y-78.3
X87.412Y-80.84
X87.412Y-83.38
X87.412Y-85.92
X87.412Y-88.46
X87.412Y-91.0
X87.412Y-93.54
X87.412Y-96.08
X87.412Y-98.62
X89.952Y-68.14
X89.952Y-70.68
X89.952Y-73.22
X89.952Y-75.76
X89.952Y-78.3
X89.952Y-80.84
X89.952Y-83.38
X89.952Y-85.92
X89.952Y-88.46
X89.952Y-91.0
X89.952Y-93.54
X89.952Y-96.08
X89.952Y-98.62
X92.492Y-68.14
X92.492Y-70.68
X92.492Y-73.22
X92.492Y-75.76
X92.492Y-78.3
X92.492Y-80.84
X92.492Y-83.38
X92.492Y-85.92
X92.492Y-88.46
X92.492Y-91.0
X92.492Y-93.54
X92.492Y-96.08
X92.492Y-98.62
X95.032Y-68.14
X95.032Y-70.68
X95.032Y-73.22
X95.032Y-75.76
X95.032Y-85.92
X95.032Y-91.0
X95.032Y-93.54
X95.032Y-96.08
X95.032Y-98.62
X97.572Y-68.14
X97.572Y-70.68
X97.572Y-73.22
X97.572Y-93.54
X97.572Y-96.08
X97.572Y-98.62
X100.112Y-68.14
X100.112Y-70.68
X100.112Y-73.22
X100.112Y-93.54
X100.112Y-96.08
X100.112Y-98.62
X102.652Y-68.14
X102.652Y-70.68
X102.652Y-73.22
X102.652Y-93.54
X102.652Y-96.08
X102.652Y-98.62
X105.192Y-68.14
X105.192Y-70.68
X105.192Y-73.22
X105.192Y-93.54
X105.192Y-96.08
X105.192Y-98.62
X107.732Y-68.14
X107.732Y-70.68
X107.732Y-73.22
X107.732Y-75.76
X107.732Y-91.0
X107.732Y-93.54
X107.732Y-96.08
X107.732Y-98.62
X110.272Y-68.14
X110.272Y-70.68
X110.272Y-73.22
X110.272Y-75.76
X110.272Y-85.92
X110.272Y-91.0
X110.272Y-93.54
X110.272Y-96.08
X110.272Y-98.62
X112.812Y-68.14
X112.812Y-70.68
X112.812Y-73.22
X112.812Y-75.76
X112.812Y-78.3
X112.812Y-80.84
X112.812Y-83.38
X112.812Y-85.92
X112.812Y-88.46
X112.812Y-91.0
X112.812Y-93.54
X112.812Y-96.08
X112.812Y-98.62
X115.352Y-68.14
X115.352Y-70.68
X115.352Y-73.22
X115.352Y-75.76
X115.352Y-78.3
X115.352Y-80.84
X115.352Y-83.38
X115.352Y-85.92
X115.352Y-88.46
X115.352Y-91.0
X115.352Y-93.54
X115.352Y-96.08
X115.352Y-98.62
X117.892Y-68.14
X117.892Y-70.68
X117.892Y-73.22
X117.892Y-75.76
X117.892Y-78.3
X117.892Y-80.84
X117.892Y-83.38
X117.892Y-85.92
X117.892Y-88.46
X117.892Y-91.0
X117.892Y-93.54
X117.892Y-96.08
X117.892Y-98.62
T3
X18.22Y-48.29
X18.22Y-50.83
X18.22Y-53.37
X18.22Y-55.91
X18.22Y-58.45
X18.22Y-60.99
X18.22Y-63.53
X18.22Y-66.07
X18.22Y-68.61
X18.22Y-71.15
X18.22Y-73.69
X18.22Y-76.23
X25.84Y-48.29
X25.84Y-50.83
X25.84Y-53.37
X25.84Y-55.91
X25.84Y-58.45
X25.84Y-60.99
X25.84Y-63.53
X25.84Y-66.07
X25.84Y-68.61
X25.84Y-71.15
X25.84Y-73.69
X25.84Y-76.23
X28.35Y-109.87
X29.07Y-48.29
X29.07Y-50.83
X29.07Y-53.37
X29.07Y-55.91
X29.07Y-58.45
X29.07Y-60.99
X29.07Y-63.53
X29.07Y-66.07
X30.48Y-91.44
X30.48Y-93.98
X30.48Y-96.52
X30.48Y-99.06
X30.48Y-101.6
X31.242Y-142.296
X31.242Y-144.836
X31.242Y-147.376
X31.242Y-149.916
X31.242Y-152.456
X31.242Y-154.996
X31.242Y-157.536
X31.242Y-160.076
X31.242Y-162.616
X31.242Y-165.156
X31.242Y-167.696
X31.242Y-170.236
X31.242Y-172.776
X31.242Y-175.316
X31.242Y-177.856
X31.242Y-180.396
X33.02Y-88.9
X33.02Y-91.44
X33.02Y-93.98
X33.02Y-96.52
X33.02Y-99.06
X33.02Y-101.6
X33.02Y-104.14
X35.56Y-88.9
X35.56Y-91.44
X35.56Y-101.6
X35.56Y-104.14
X36.69Y-48.29
X36.69Y-50.83
X36.69Y-53.37
X36.69Y-55.91
X36.69Y-58.45
X36.69Y-60.99
X36.69Y-63.53
X36.69Y-66.07
X38.1Y-88.9
X38.1Y-91.44
X38.1Y-101.6
X38.1Y-104.14
X38.51Y-109.87
X39.92Y-48.29
X39.92Y-50.83
X39.92Y-53.37
X39.92Y-55.91
X39.92Y-58.45
X39.92Y-60.99
X39.92Y-63.53
X40.64Y-88.9
X40.64Y-91.44
X40.64Y-93.98
X40.64Y-96.52
X40.64Y-99.06
X40.64Y-101.6
X40.64Y-104.14
X43.18Y-91.44
X43.18Y-93.98
X43.18Y-96.52
X43.18Y-99.06
X43.18Y-101.6
X46.482Y-142.296
X46.482Y-144.836
X46.482Y-147.376
X46.482Y-149.916
X46.482Y-152.456
X46.482Y-154.996
X46.482Y-157.536
X46.482Y-160.076
X46.482Y-162.616
X46.482Y-165.156
X46.482Y-167.696
X46.482Y-170.236
X46.482Y-172.776
X46.482Y-175.316
X46.482Y-177.856
X46.482Y-180.396
X47.54Y-48.29
X47.54Y-50.83
X47.54Y-53.37
X47.54Y-55.91
X47.54Y-58.45
X47.54Y-60.99
X47.54Y-63.53
X48.832Y-142.296
X48.832Y-144.836
X48.832Y-147.376
X48.832Y-149.916
X48.832Y-152.456
X48.832Y-154.996
X48.832Y-157.536
X48.832Y-160.076
X48.832Y-162.616
X48.832Y-165.156
X48.832Y-167.696
X48.832Y-170.236
X48.832Y-172.776
X48.832Y-175.316
X48.832Y-177.856
X48.832Y-180.396
X50.77Y-48.29
X50.77Y-50.83
X50.77Y-53.37
X50.77Y-55.91
X50.77Y-58.45
X50.77Y-60.99
X50.77Y-63.53
X58.39Y-48.29
X58.39Y-50.83
X58.39Y-53.37
X58.39Y-55.91
X58.39Y-58.45
X58.39Y-60.99
X58.39Y-63.53
X61.62Y-62.54
X61.62Y-65.08
X61.62Y-67.62
X61.62Y-70.16
X62.36Y-75.49
X63.5Y-49.53
X63.5Y-57.15
X64.072Y-142.296
X64.072Y-144.836
X64.072Y-147.376
X64.072Y-149.916
X64.072Y-152.456
X64.072Y-154.996
X64.072Y-157.536
X64.072Y-160.076
X64.072Y-162.616
X64.072Y-165.156
X64.072Y-167.696
X64.072Y-170.236
X64.072Y-172.776
X64.072Y-175.316
X64.072Y-177.856
X64.072Y-180.396
X64.36Y-75.49
X66.548Y-142.24
X66.548Y-144.78
X66.548Y-147.32
X66.548Y-149.86
X66.548Y-152.4
X66.548Y-154.94
X66.548Y-157.48
X66.548Y-160.02
X66.548Y-162.56
X66.548Y-165.1
X66.548Y-167.64
X66.548Y-170.18
X66.548Y-172.72
X66.548Y-175.26
X66.548Y-177.8
X66.548Y-180.34
X69.24Y-62.54
X69.24Y-65.08
X69.24Y-67.62
X69.24Y-70.16
X70.23Y-22.86
X70.23Y-33.02
X74.28Y-22.86
X74.28Y-33.02
X78.33Y-22.86
X78.33Y-33.02
X78.74Y-49.53
X78.74Y-57.15
X81.788Y-142.24
X81.788Y-144.78
X81.788Y-147.32
X81.788Y-149.86
X81.788Y-152.4
X81.788Y-154.94
X81.788Y-157.48
X81.788Y-160.02
X81.788Y-162.56
X81.788Y-165.1
X81.788Y-167.64
X81.788Y-170.18
X81.788Y-172.72
X81.788Y-175.26
X81.788Y-177.8
X81.788Y-180.34
X82.38Y-22.86
X82.38Y-33.02
X84.328Y-142.24
X84.328Y-144.78
X84.328Y-147.32
X84.328Y-149.86
X84.328Y-152.4
X84.328Y-154.94
X84.328Y-157.48
X84.328Y-160.02
X84.328Y-162.56
X84.328Y-165.1
X84.328Y-167.64
X84.328Y-170.18
X84.328Y-172.72
X84.328Y-175.26
X84.328Y-177.8
X84.328Y-180.34
X86.43Y-22.86
X86.43Y-33.02
X90.48Y-22.86
X90.48Y-33.02
X94.53Y-22.86
X94.53Y-33.02
X98.58Y-22.86
X98.58Y-33.02
X99.568Y-142.24
X99.568Y-144.78
X99.568Y-147.32
X99.568Y-149.86
X99.568Y-152.4
X99.568Y-154.94
X99.568Y-157.48
X99.568Y-160.02
X99.568Y-162.56
X99.568Y-165.1
X99.568Y-167.64
X99.568Y-170.18
X99.568Y-172.72
X99.568Y-175.26
X99.568Y-177.8
X99.568Y-180.34
X102.63Y-22.86
X102.63Y-33.02
X104.032Y-142.296
X104.032Y-144.836
X104.032Y-147.376
X104.032Y-149.916
X104.032Y-152.456
X104.032Y-154.996
X104.032Y-157.536
X104.032Y-160.076
X104.032Y-162.616
X104.032Y-165.156
X104.032Y-167.696
X104.032Y-170.236
X104.032Y-172.776
X104.032Y-175.316
X104.032Y-177.856
X104.032Y-180.396
X106.68Y-22.86
X106.68Y-33.02
X110.73Y-22.86
X110.73Y-33.02
X114.78Y-22.86
X114.78Y-33.02
X118.83Y-22.86
X118.83Y-33.02
X119.272Y-142.296
X119.272Y-144.836
X119.272Y-147.376
X119.272Y-149.916
X119.272Y-152.456
X119.272Y-154.996
X119.272Y-157.536
X119.272Y-160.076
X119.272Y-162.616
X119.272Y-165.156
X119.272Y-167.696
X119.272Y-170.236
X119.272Y-172.776
X119.272Y-175.316
X119.272Y-177.856
X119.272Y-180.396
X121.92Y-142.24
X121.92Y-144.78
X121.92Y-147.32
X121.92Y-149.86
X121.92Y-152.4
X121.92Y-154.94
X121.92Y-157.48
X121.92Y-160.02
X121.92Y-162.56
X121.92Y-165.1
X121.92Y-167.64
X121.92Y-170.18
X121.92Y-172.72
X121.92Y-175.26
X121.92Y-177.8
X121.92Y-180.34
X122.88Y-22.86
X122.88Y-33.02
X126.93Y-22.86
X126.93Y-33.02
X130.98Y-22.86
X130.98Y-33.02
X137.16Y-142.24
X137.16Y-144.78
X137.16Y-147.32
X137.16Y-149.86
X137.16Y-152.4
X137.16Y-154.94
X137.16Y-157.48
X137.16Y-160.02
X137.16Y-162.56
X137.16Y-165.1
X137.16Y-167.64
X137.16Y-170.18
X137.16Y-172.72
X137.16Y-175.26
X137.16Y-177.8
X137.16Y-180.34
X139.7Y-142.24
X139.7Y-144.78
X139.7Y-147.32
X139.7Y-149.86
X139.7Y-152.4
X139.7Y-154.94
X139.7Y-157.48
X139.7Y-160.02
X139.7Y-162.56
X139.7Y-165.1
X139.7Y-167.64
X139.7Y-170.18
X139.7Y-172.72
X139.7Y-175.26
X139.7Y-177.8
X139.7Y-180.34
X147.32Y-71.12
X147.32Y-73.66
X147.32Y-76.2
X147.32Y-78.74
X147.32Y-81.28
X147.32Y-83.82
X147.32Y-86.36
X147.32Y-88.9
X147.32Y-91.44
X147.32Y-93.98
X147.32Y-96.52
X147.32Y-99.06
X147.32Y-101.6
X147.32Y-104.14
X147.32Y-106.68
X147.32Y-109.22
X147.32Y-111.76
X147.32Y-114.3
X147.32Y-116.84
X147.32Y-119.38
X154.94Y-142.24
X154.94Y-144.78
X154.94Y-147.32
X154.94Y-149.86
X154.94Y-152.4
X154.94Y-154.94
X154.94Y-157.48
X154.94Y-160.02
X154.94Y-162.56
X154.94Y-165.1
X154.94Y-167.64
X154.94Y-170.18
X154.94Y-172.72
X154.94Y-175.26
X154.94Y-177.8
X154.94Y-180.34
X157.48Y-142.24
X157.48Y-144.78
X157.48Y-147.32
X157.48Y-149.86
X157.48Y-152.4
X157.48Y-154.94
X157.48Y-157.48
X157.48Y-160.02
X157.48Y-162.56
X157.48Y-165.1
X157.48Y-167.64
X157.48Y-170.18
X157.48Y-172.72
X157.48Y-175.26
X157.48Y-177.8
X157.48Y-180.34
X162.56Y-71.12
X162.56Y-73.66
X162.56Y-76.2
X162.56Y-78.74
X162.56Y-81.28
X162.56Y-83.82
X162.56Y-86.36
X162.56Y-88.9
X162.56Y-91.44
X162.56Y-93.98
X162.56Y-96.52
X162.56Y-99.06
X162.56Y-101.6
X162.56Y-104.14
X162.56Y-106.68
X162.56Y-109.22
X162.56Y-111.76
X162.56Y-114.3
X162.56Y-116.84
X162.56Y-119.38
X165.72Y-93.47
X165.72Y-113.57
X165.72Y-117.02
X168.17Y-98.82
X170.72Y-113.57
X170.72Y-117.02
X172.72Y-142.24
X172.72Y-144.78
X172.72Y-147.32
X172.72Y-149.86
X172.72Y-152.4
X172.72Y-154.94
X172.72Y-157.48
X172.72Y-160.02
X172.72Y-162.56
X172.72Y-165.1
X172.72Y-167.64
X172.72Y-170.18
X172.72Y-172.72
X172.72Y-175.26
X172.72Y-177.8
X172.72Y-180.34
X173.07Y-98.82
X175.88Y-93.47
T4
X166.47Y-71.37
X166.47Y-73.91
X166.47Y-76.45
X166.47Y-78.99
X166.47Y-81.53
X166.47Y-84.07
X166.47Y-86.61
X166.47Y-89.15
X166.47Y-104.47
X166.47Y-107.01
X166.47Y-109.55
X171.12Y-71.37
X171.12Y-73.91
X171.12Y-76.45
X171.12Y-78.99
X171.12Y-81.53
X171.12Y-84.07
X171.12Y-104.47
X171.12Y-107.01
X171.12Y-109.55
T5
X72.87Y-62.49
X72.87Y-66.99
X79.37Y-62.49
X79.37Y-66.99
T6
X24.952Y-177.44
X25.152Y-177.54
X47.897Y-19.92
X47.992Y-19.84
X180.047Y-177.52
X180.092Y-20.067
X180.092Y-177.54
X180.192Y-20.04
M30
