%TF.GenerationSoftware,KiCad,Pcbnew,7.0.10*%
%TF.CreationDate,2024-01-18T14:13:19+02:00*%
%TF.ProjectId,jox030,6a6f7830-3330-42e6-9b69-6361645f7063,rev?*%
%TF.SameCoordinates,Original*%
%TF.FileFunction,Legend,Bot*%
%TF.FilePolarity,Positive*%
%FSLAX46Y46*%
G04 Gerber Fmt 4.6, Leading zero omitted, Abs format (unit mm)*
G04 Created by KiCad (PCBNEW 7.0.10) date 2024-01-18 14:13:19*
%MOMM*%
%LPD*%
G01*
G04 APERTURE LIST*
%ADD10C,1.500000*%
%ADD11R,1.600000X1.600000*%
%ADD12O,1.600000X1.600000*%
%ADD13R,1.397000X1.397000*%
%ADD14C,1.397000*%
%ADD15C,1.600000*%
%ADD16R,1.700000X1.700000*%
%ADD17O,1.700000X1.700000*%
%ADD18R,1.422400X1.422400*%
%ADD19C,1.422400*%
%ADD20C,0.900000*%
%ADD21C,8.600000*%
%ADD22C,2.000000*%
G04 APERTURE END LIST*
%LPC*%
D10*
%TO.C,Y1*%
X168170000Y-98820000D03*
X173070000Y-98820000D03*
%TD*%
D11*
%TO.C,U16*%
X147320000Y-71120000D03*
D12*
X147320000Y-73660000D03*
X147320000Y-76200000D03*
X147320000Y-78740000D03*
X147320000Y-81280000D03*
X147320000Y-83820000D03*
X147320000Y-86360000D03*
X147320000Y-88900000D03*
X147320000Y-91440000D03*
X147320000Y-93980000D03*
X147320000Y-96520000D03*
X147320000Y-99060000D03*
X147320000Y-101600000D03*
X147320000Y-104140000D03*
X147320000Y-106680000D03*
X147320000Y-109220000D03*
X147320000Y-111760000D03*
X147320000Y-114300000D03*
X147320000Y-116840000D03*
X147320000Y-119380000D03*
X162560000Y-119380000D03*
X162560000Y-116840000D03*
X162560000Y-114300000D03*
X162560000Y-111760000D03*
X162560000Y-109220000D03*
X162560000Y-106680000D03*
X162560000Y-104140000D03*
X162560000Y-101600000D03*
X162560000Y-99060000D03*
X162560000Y-96520000D03*
X162560000Y-93980000D03*
X162560000Y-91440000D03*
X162560000Y-88900000D03*
X162560000Y-86360000D03*
X162560000Y-83820000D03*
X162560000Y-81280000D03*
X162560000Y-78740000D03*
X162560000Y-76200000D03*
X162560000Y-73660000D03*
X162560000Y-71120000D03*
%TD*%
D13*
%TO.C,U1*%
X117892000Y-98620000D03*
D14*
X115352000Y-98620000D03*
X112812000Y-98620000D03*
X110272000Y-98620000D03*
X107732000Y-98620000D03*
X105192000Y-98620000D03*
X102652000Y-98620000D03*
X100112000Y-98620000D03*
X97572000Y-98620000D03*
X95032000Y-98620000D03*
X92492000Y-98620000D03*
X89952000Y-98620000D03*
X87412000Y-98620000D03*
X117892000Y-96080000D03*
X115352000Y-96080000D03*
X112812000Y-96080000D03*
X110272000Y-96080000D03*
X107732000Y-96080000D03*
X105192000Y-96080000D03*
X102652000Y-96080000D03*
X100112000Y-96080000D03*
X97572000Y-96080000D03*
X95032000Y-96080000D03*
X92492000Y-96080000D03*
X89952000Y-96080000D03*
X87412000Y-96080000D03*
X117892000Y-93540000D03*
X115352000Y-93540000D03*
X112812000Y-93540000D03*
X110272000Y-93540000D03*
X107732000Y-93540000D03*
X105192000Y-93540000D03*
X102652000Y-93540000D03*
X100112000Y-93540000D03*
X97572000Y-93540000D03*
X95032000Y-93540000D03*
X92492000Y-93540000D03*
X89952000Y-93540000D03*
X87412000Y-93540000D03*
X117892000Y-91000000D03*
X115352000Y-91000000D03*
X112812000Y-91000000D03*
X110272000Y-91000000D03*
X107732000Y-91000000D03*
X95032000Y-91000000D03*
X92492000Y-91000000D03*
X89952000Y-91000000D03*
X87412000Y-91000000D03*
X117892000Y-88460000D03*
X115352000Y-88460000D03*
X112812000Y-88460000D03*
X92492000Y-88460000D03*
X89952000Y-88460000D03*
X87412000Y-88460000D03*
X117892000Y-85920000D03*
X115352000Y-85920000D03*
X112812000Y-85920000D03*
X110272000Y-85920000D03*
X95032000Y-85920000D03*
X92492000Y-85920000D03*
X89952000Y-85920000D03*
X87412000Y-85920000D03*
X117892000Y-83380000D03*
X115352000Y-83380000D03*
X112812000Y-83380000D03*
X92492000Y-83380000D03*
X89952000Y-83380000D03*
X87412000Y-83380000D03*
X117892000Y-80840000D03*
X115352000Y-80840000D03*
X112812000Y-80840000D03*
X92492000Y-80840000D03*
X89952000Y-80840000D03*
X87412000Y-80840000D03*
X117892000Y-78300000D03*
X115352000Y-78300000D03*
X112812000Y-78300000D03*
X92492000Y-78300000D03*
X89952000Y-78300000D03*
X87412000Y-78300000D03*
X117892000Y-75760000D03*
X115352000Y-75760000D03*
X112812000Y-75760000D03*
X110272000Y-75760000D03*
X107732000Y-75760000D03*
X95032000Y-75760000D03*
X92492000Y-75760000D03*
X89952000Y-75760000D03*
X87412000Y-75760000D03*
X117892000Y-73220000D03*
X115352000Y-73220000D03*
X112812000Y-73220000D03*
X110272000Y-73220000D03*
X107732000Y-73220000D03*
X105192000Y-73220000D03*
X102652000Y-73220000D03*
X100112000Y-73220000D03*
X97572000Y-73220000D03*
X95032000Y-73220000D03*
X92492000Y-73220000D03*
X89952000Y-73220000D03*
X87412000Y-73220000D03*
X117892000Y-70680000D03*
X115352000Y-70680000D03*
X112812000Y-70680000D03*
X110272000Y-70680000D03*
X107732000Y-70680000D03*
X105192000Y-70680000D03*
X102652000Y-70680000D03*
X100112000Y-70680000D03*
X97572000Y-70680000D03*
X95032000Y-70680000D03*
X92492000Y-70680000D03*
X89952000Y-70680000D03*
X87412000Y-70680000D03*
X117892000Y-68140000D03*
X115352000Y-68140000D03*
X112812000Y-68140000D03*
X110272000Y-68140000D03*
X107732000Y-68140000D03*
X105192000Y-68140000D03*
X102652000Y-68140000D03*
X100112000Y-68140000D03*
X97572000Y-68140000D03*
X95032000Y-68140000D03*
X92492000Y-68140000D03*
X89952000Y-68140000D03*
X87412000Y-68140000D03*
%TD*%
D15*
%TO.C,R18*%
X165720000Y-93470000D03*
D12*
X175880000Y-93470000D03*
%TD*%
D16*
%TO.C,J4*%
X171120000Y-104470000D03*
D17*
X171120000Y-107010000D03*
X171120000Y-109550000D03*
%TD*%
D16*
%TO.C,J3*%
X166470000Y-104470000D03*
D17*
X166470000Y-107010000D03*
X166470000Y-109550000D03*
%TD*%
D16*
%TO.C,J2*%
X171120000Y-71370000D03*
D17*
X171120000Y-73910000D03*
X171120000Y-76450000D03*
X171120000Y-78990000D03*
X171120000Y-81530000D03*
X171120000Y-84070000D03*
%TD*%
D16*
%TO.C,J1*%
X166470000Y-71370000D03*
D17*
X166470000Y-73910000D03*
X166470000Y-76450000D03*
X166470000Y-78990000D03*
X166470000Y-81530000D03*
X166470000Y-84070000D03*
X166470000Y-86610000D03*
X166470000Y-89150000D03*
%TD*%
D15*
%TO.C,C3*%
X165720000Y-117020000D03*
X170720000Y-117020000D03*
%TD*%
%TO.C,C2*%
X165720000Y-113570000D03*
X170720000Y-113570000D03*
%TD*%
D18*
%TO.C,U14*%
X38100000Y-91440000D03*
D19*
X35560000Y-88900000D03*
X35560000Y-91440000D03*
X33020000Y-88900000D03*
X30480000Y-91440000D03*
X33020000Y-91440000D03*
X30480000Y-93980000D03*
X33020000Y-93980000D03*
X30480000Y-96520000D03*
X33020000Y-96520000D03*
X30480000Y-99060000D03*
X33020000Y-99060000D03*
X30480000Y-101600000D03*
X33020000Y-104140000D03*
X33020000Y-101600000D03*
X35560000Y-104140000D03*
X35560000Y-101600000D03*
X38100000Y-104140000D03*
X38100000Y-101600000D03*
X40640000Y-104140000D03*
X43180000Y-101600000D03*
X40640000Y-101600000D03*
X43180000Y-99060000D03*
X40640000Y-99060000D03*
X43180000Y-96520000D03*
X40640000Y-96520000D03*
X43180000Y-93980000D03*
X40640000Y-93980000D03*
X43180000Y-91440000D03*
X40640000Y-88900000D03*
X40640000Y-91440000D03*
X38100000Y-88900000D03*
%TD*%
D15*
%TO.C,R17*%
X28350000Y-109870000D03*
D12*
X38510000Y-109870000D03*
%TD*%
D20*
%TO.C,H1*%
X21926581Y-177540419D03*
X22871162Y-175260000D03*
X22871162Y-179820838D03*
X25151581Y-174315419D03*
D21*
X25151581Y-177540419D03*
D20*
X25151581Y-180765419D03*
X27432000Y-175260000D03*
X27432000Y-179820838D03*
X28376581Y-177540419D03*
%TD*%
%TO.C,H2*%
X176866581Y-177540419D03*
X177811162Y-175260000D03*
X177811162Y-179820838D03*
X180091581Y-174315419D03*
D21*
X180091581Y-177540419D03*
D20*
X180091581Y-180765419D03*
X182372000Y-175260000D03*
X182372000Y-179820838D03*
X183316581Y-177540419D03*
%TD*%
D11*
%TO.C,X1*%
X63500000Y-57150000D03*
D15*
X78740000Y-57150000D03*
X78740000Y-49530000D03*
X63500000Y-49530000D03*
%TD*%
D11*
%TO.C,U22*%
X18220000Y-48290000D03*
D12*
X18220000Y-50830000D03*
X18220000Y-53370000D03*
X18220000Y-55910000D03*
X18220000Y-58450000D03*
X18220000Y-60990000D03*
X18220000Y-63530000D03*
X18220000Y-66070000D03*
X18220000Y-68610000D03*
X18220000Y-71150000D03*
X18220000Y-73690000D03*
X18220000Y-76230000D03*
X25840000Y-76230000D03*
X25840000Y-73690000D03*
X25840000Y-71150000D03*
X25840000Y-68610000D03*
X25840000Y-66070000D03*
X25840000Y-63530000D03*
X25840000Y-60990000D03*
X25840000Y-58450000D03*
X25840000Y-55910000D03*
X25840000Y-53370000D03*
X25840000Y-50830000D03*
X25840000Y-48290000D03*
%TD*%
D11*
%TO.C,U13*%
X157480000Y-142240000D03*
D12*
X157480000Y-144780000D03*
X157480000Y-147320000D03*
X157480000Y-149860000D03*
X157480000Y-152400000D03*
X157480000Y-154940000D03*
X157480000Y-157480000D03*
X157480000Y-160020000D03*
X157480000Y-162560000D03*
X157480000Y-165100000D03*
X157480000Y-167640000D03*
X157480000Y-170180000D03*
X157480000Y-172720000D03*
X157480000Y-175260000D03*
X157480000Y-177800000D03*
X157480000Y-180340000D03*
X172720000Y-180340000D03*
X172720000Y-177800000D03*
X172720000Y-175260000D03*
X172720000Y-172720000D03*
X172720000Y-170180000D03*
X172720000Y-167640000D03*
X172720000Y-165100000D03*
X172720000Y-162560000D03*
X172720000Y-160020000D03*
X172720000Y-157480000D03*
X172720000Y-154940000D03*
X172720000Y-152400000D03*
X172720000Y-149860000D03*
X172720000Y-147320000D03*
X172720000Y-144780000D03*
X172720000Y-142240000D03*
%TD*%
D11*
%TO.C,U12*%
X139700000Y-142240000D03*
D12*
X139700000Y-144780000D03*
X139700000Y-147320000D03*
X139700000Y-149860000D03*
X139700000Y-152400000D03*
X139700000Y-154940000D03*
X139700000Y-157480000D03*
X139700000Y-160020000D03*
X139700000Y-162560000D03*
X139700000Y-165100000D03*
X139700000Y-167640000D03*
X139700000Y-170180000D03*
X139700000Y-172720000D03*
X139700000Y-175260000D03*
X139700000Y-177800000D03*
X139700000Y-180340000D03*
X154940000Y-180340000D03*
X154940000Y-177800000D03*
X154940000Y-175260000D03*
X154940000Y-172720000D03*
X154940000Y-170180000D03*
X154940000Y-167640000D03*
X154940000Y-165100000D03*
X154940000Y-162560000D03*
X154940000Y-160020000D03*
X154940000Y-157480000D03*
X154940000Y-154940000D03*
X154940000Y-152400000D03*
X154940000Y-149860000D03*
X154940000Y-147320000D03*
X154940000Y-144780000D03*
X154940000Y-142240000D03*
%TD*%
D11*
%TO.C,U11*%
X121920000Y-142240000D03*
D12*
X121920000Y-144780000D03*
X121920000Y-147320000D03*
X121920000Y-149860000D03*
X121920000Y-152400000D03*
X121920000Y-154940000D03*
X121920000Y-157480000D03*
X121920000Y-160020000D03*
X121920000Y-162560000D03*
X121920000Y-165100000D03*
X121920000Y-167640000D03*
X121920000Y-170180000D03*
X121920000Y-172720000D03*
X121920000Y-175260000D03*
X121920000Y-177800000D03*
X121920000Y-180340000D03*
X137160000Y-180340000D03*
X137160000Y-177800000D03*
X137160000Y-175260000D03*
X137160000Y-172720000D03*
X137160000Y-170180000D03*
X137160000Y-167640000D03*
X137160000Y-165100000D03*
X137160000Y-162560000D03*
X137160000Y-160020000D03*
X137160000Y-157480000D03*
X137160000Y-154940000D03*
X137160000Y-152400000D03*
X137160000Y-149860000D03*
X137160000Y-147320000D03*
X137160000Y-144780000D03*
X137160000Y-142240000D03*
%TD*%
D11*
%TO.C,U10*%
X104032000Y-142296000D03*
D12*
X104032000Y-144836000D03*
X104032000Y-147376000D03*
X104032000Y-149916000D03*
X104032000Y-152456000D03*
X104032000Y-154996000D03*
X104032000Y-157536000D03*
X104032000Y-160076000D03*
X104032000Y-162616000D03*
X104032000Y-165156000D03*
X104032000Y-167696000D03*
X104032000Y-170236000D03*
X104032000Y-172776000D03*
X104032000Y-175316000D03*
X104032000Y-177856000D03*
X104032000Y-180396000D03*
X119272000Y-180396000D03*
X119272000Y-177856000D03*
X119272000Y-175316000D03*
X119272000Y-172776000D03*
X119272000Y-170236000D03*
X119272000Y-167696000D03*
X119272000Y-165156000D03*
X119272000Y-162616000D03*
X119272000Y-160076000D03*
X119272000Y-157536000D03*
X119272000Y-154996000D03*
X119272000Y-152456000D03*
X119272000Y-149916000D03*
X119272000Y-147376000D03*
X119272000Y-144836000D03*
X119272000Y-142296000D03*
%TD*%
D11*
%TO.C,U9*%
X84328000Y-142240000D03*
D12*
X84328000Y-144780000D03*
X84328000Y-147320000D03*
X84328000Y-149860000D03*
X84328000Y-152400000D03*
X84328000Y-154940000D03*
X84328000Y-157480000D03*
X84328000Y-160020000D03*
X84328000Y-162560000D03*
X84328000Y-165100000D03*
X84328000Y-167640000D03*
X84328000Y-170180000D03*
X84328000Y-172720000D03*
X84328000Y-175260000D03*
X84328000Y-177800000D03*
X84328000Y-180340000D03*
X99568000Y-180340000D03*
X99568000Y-177800000D03*
X99568000Y-175260000D03*
X99568000Y-172720000D03*
X99568000Y-170180000D03*
X99568000Y-167640000D03*
X99568000Y-165100000D03*
X99568000Y-162560000D03*
X99568000Y-160020000D03*
X99568000Y-157480000D03*
X99568000Y-154940000D03*
X99568000Y-152400000D03*
X99568000Y-149860000D03*
X99568000Y-147320000D03*
X99568000Y-144780000D03*
X99568000Y-142240000D03*
%TD*%
D11*
%TO.C,U8*%
X66548000Y-142240000D03*
D12*
X66548000Y-144780000D03*
X66548000Y-147320000D03*
X66548000Y-149860000D03*
X66548000Y-152400000D03*
X66548000Y-154940000D03*
X66548000Y-157480000D03*
X66548000Y-160020000D03*
X66548000Y-162560000D03*
X66548000Y-165100000D03*
X66548000Y-167640000D03*
X66548000Y-170180000D03*
X66548000Y-172720000D03*
X66548000Y-175260000D03*
X66548000Y-177800000D03*
X66548000Y-180340000D03*
X81788000Y-180340000D03*
X81788000Y-177800000D03*
X81788000Y-175260000D03*
X81788000Y-172720000D03*
X81788000Y-170180000D03*
X81788000Y-167640000D03*
X81788000Y-165100000D03*
X81788000Y-162560000D03*
X81788000Y-160020000D03*
X81788000Y-157480000D03*
X81788000Y-154940000D03*
X81788000Y-152400000D03*
X81788000Y-149860000D03*
X81788000Y-147320000D03*
X81788000Y-144780000D03*
X81788000Y-142240000D03*
%TD*%
D11*
%TO.C,U7*%
X48832000Y-142296000D03*
D12*
X48832000Y-144836000D03*
X48832000Y-147376000D03*
X48832000Y-149916000D03*
X48832000Y-152456000D03*
X48832000Y-154996000D03*
X48832000Y-157536000D03*
X48832000Y-160076000D03*
X48832000Y-162616000D03*
X48832000Y-165156000D03*
X48832000Y-167696000D03*
X48832000Y-170236000D03*
X48832000Y-172776000D03*
X48832000Y-175316000D03*
X48832000Y-177856000D03*
X48832000Y-180396000D03*
X64072000Y-180396000D03*
X64072000Y-177856000D03*
X64072000Y-175316000D03*
X64072000Y-172776000D03*
X64072000Y-170236000D03*
X64072000Y-167696000D03*
X64072000Y-165156000D03*
X64072000Y-162616000D03*
X64072000Y-160076000D03*
X64072000Y-157536000D03*
X64072000Y-154996000D03*
X64072000Y-152456000D03*
X64072000Y-149916000D03*
X64072000Y-147376000D03*
X64072000Y-144836000D03*
X64072000Y-142296000D03*
%TD*%
%TO.C,U6*%
X46482000Y-142296000D03*
X46482000Y-144836000D03*
X46482000Y-147376000D03*
X46482000Y-149916000D03*
X46482000Y-152456000D03*
X46482000Y-154996000D03*
X46482000Y-157536000D03*
X46482000Y-160076000D03*
X46482000Y-162616000D03*
X46482000Y-165156000D03*
X46482000Y-167696000D03*
X46482000Y-170236000D03*
X46482000Y-172776000D03*
X46482000Y-175316000D03*
X46482000Y-177856000D03*
X46482000Y-180396000D03*
X31242000Y-180396000D03*
X31242000Y-177856000D03*
X31242000Y-175316000D03*
X31242000Y-172776000D03*
X31242000Y-170236000D03*
X31242000Y-167696000D03*
X31242000Y-165156000D03*
X31242000Y-162616000D03*
X31242000Y-160076000D03*
X31242000Y-157536000D03*
X31242000Y-154996000D03*
X31242000Y-152456000D03*
X31242000Y-149916000D03*
X31242000Y-147376000D03*
X31242000Y-144836000D03*
D11*
X31242000Y-142296000D03*
%TD*%
%TO.C,U5*%
X29070000Y-48290000D03*
D12*
X29070000Y-50830000D03*
X29070000Y-53370000D03*
X29070000Y-55910000D03*
X29070000Y-58450000D03*
X29070000Y-60990000D03*
X29070000Y-63530000D03*
X29070000Y-66070000D03*
X36690000Y-66070000D03*
X36690000Y-63530000D03*
X36690000Y-60990000D03*
X36690000Y-58450000D03*
X36690000Y-55910000D03*
X36690000Y-53370000D03*
X36690000Y-50830000D03*
X36690000Y-48290000D03*
%TD*%
D11*
%TO.C,U4*%
X50770000Y-48290000D03*
D12*
X50770000Y-50830000D03*
X50770000Y-53370000D03*
X50770000Y-55910000D03*
X50770000Y-58450000D03*
X50770000Y-60990000D03*
X50770000Y-63530000D03*
X58390000Y-63530000D03*
X58390000Y-60990000D03*
X58390000Y-58450000D03*
X58390000Y-55910000D03*
X58390000Y-53370000D03*
X58390000Y-50830000D03*
X58390000Y-48290000D03*
%TD*%
D11*
%TO.C,U3*%
X39920000Y-48290000D03*
D12*
X39920000Y-50830000D03*
X39920000Y-53370000D03*
X39920000Y-55910000D03*
X39920000Y-58450000D03*
X39920000Y-60990000D03*
X39920000Y-63530000D03*
X47540000Y-63530000D03*
X47540000Y-60990000D03*
X47540000Y-58450000D03*
X47540000Y-55910000D03*
X47540000Y-53370000D03*
X47540000Y-50830000D03*
X47540000Y-48290000D03*
%TD*%
D11*
%TO.C,U2*%
X61620000Y-62540000D03*
D12*
X61620000Y-65080000D03*
X61620000Y-67620000D03*
X61620000Y-70160000D03*
X69240000Y-70160000D03*
X69240000Y-67620000D03*
X69240000Y-65080000D03*
X69240000Y-62540000D03*
%TD*%
D22*
%TO.C,SW1*%
X79370000Y-62490000D03*
X72870000Y-62490000D03*
X79370000Y-66990000D03*
X72870000Y-66990000D03*
%TD*%
D15*
%TO.C,R16*%
X130980000Y-33020000D03*
D12*
X130980000Y-22860000D03*
%TD*%
D15*
%TO.C,R15*%
X126930000Y-33020000D03*
D12*
X126930000Y-22860000D03*
%TD*%
D15*
%TO.C,R14*%
X122880000Y-33020000D03*
D12*
X122880000Y-22860000D03*
%TD*%
D15*
%TO.C,R13*%
X118830000Y-33020000D03*
D12*
X118830000Y-22860000D03*
%TD*%
D15*
%TO.C,R12*%
X114780000Y-33020000D03*
D12*
X114780000Y-22860000D03*
%TD*%
D15*
%TO.C,R11*%
X110730000Y-33020000D03*
D12*
X110730000Y-22860000D03*
%TD*%
D15*
%TO.C,R10*%
X106680000Y-33020000D03*
D12*
X106680000Y-22860000D03*
%TD*%
D15*
%TO.C,R9*%
X102630000Y-33020000D03*
D12*
X102630000Y-22860000D03*
%TD*%
D15*
%TO.C,R8*%
X98580000Y-33020000D03*
D12*
X98580000Y-22860000D03*
%TD*%
D15*
%TO.C,R7*%
X94530000Y-33020000D03*
D12*
X94530000Y-22860000D03*
%TD*%
D15*
%TO.C,R6*%
X90480000Y-33020000D03*
D12*
X90480000Y-22860000D03*
%TD*%
D15*
%TO.C,R5*%
X86430000Y-33020000D03*
D12*
X86430000Y-22860000D03*
%TD*%
D15*
%TO.C,R4*%
X82380000Y-33020000D03*
D12*
X82380000Y-22860000D03*
%TD*%
D15*
%TO.C,R3*%
X78330000Y-33020000D03*
D12*
X78330000Y-22860000D03*
%TD*%
D15*
%TO.C,R2*%
X74280000Y-33020000D03*
D12*
X74280000Y-22860000D03*
%TD*%
D15*
%TO.C,R1*%
X70230000Y-33020000D03*
D12*
X70230000Y-22860000D03*
%TD*%
D20*
%TO.C,H4*%
X176966581Y-20039581D03*
X177911162Y-17759162D03*
X177911162Y-22320000D03*
X180191581Y-16814581D03*
D21*
X180191581Y-20039581D03*
D20*
X180191581Y-23264581D03*
X182472000Y-17759162D03*
X182472000Y-22320000D03*
X183416581Y-20039581D03*
%TD*%
%TO.C,H3*%
X44672000Y-19920000D03*
X45616581Y-17639581D03*
X45616581Y-22200419D03*
X47897000Y-16695000D03*
D21*
X47897000Y-19920000D03*
D20*
X47897000Y-23145000D03*
X50177419Y-17639581D03*
X50177419Y-22200419D03*
X51122000Y-19920000D03*
%TD*%
%TO.C,H2*%
X183272000Y-177520000D03*
X182327419Y-179800419D03*
X182327419Y-175239581D03*
X180047000Y-180745000D03*
D21*
X180047000Y-177520000D03*
D20*
X180047000Y-174295000D03*
X177766581Y-179800419D03*
X177766581Y-175239581D03*
X176822000Y-177520000D03*
%TD*%
%TO.C,H1*%
X28177419Y-177439581D03*
X27232838Y-179720000D03*
X27232838Y-175159162D03*
X24952419Y-180664581D03*
D21*
X24952419Y-177439581D03*
D20*
X24952419Y-174214581D03*
X22672000Y-179720000D03*
X22672000Y-175159162D03*
X21727419Y-177439581D03*
%TD*%
D11*
%TO.C,C1*%
X62359775Y-75490000D03*
D15*
X64359775Y-75490000D03*
%TD*%
D20*
%TO.C,H3*%
X176866581Y-20067219D03*
X177811162Y-17786800D03*
X177811162Y-22347638D03*
X180091581Y-16842219D03*
D21*
X180091581Y-20067219D03*
D20*
X180091581Y-23292219D03*
X182372000Y-17786800D03*
X182372000Y-22347638D03*
X183316581Y-20067219D03*
%TD*%
%TO.C,H4*%
X44766581Y-19839581D03*
X45711162Y-17559162D03*
X45711162Y-22120000D03*
X47991581Y-16614581D03*
D21*
X47991581Y-19839581D03*
D20*
X47991581Y-23064581D03*
X50272000Y-17559162D03*
X50272000Y-22120000D03*
X51216581Y-19839581D03*
%TD*%
%LPD*%
M02*
