%TF.GenerationSoftware,KiCad,Pcbnew,7.0.10*%
%TF.CreationDate,2024-01-18T14:13:19+02:00*%
%TF.ProjectId,jox030,6a6f7830-3330-42e6-9b69-6361645f7063,rev?*%
%TF.SameCoordinates,Original*%
%TF.FileFunction,Legend,Top*%
%TF.FilePolarity,Positive*%
%FSLAX46Y46*%
G04 Gerber Fmt 4.6, Leading zero omitted, Abs format (unit mm)*
G04 Created by KiCad (PCBNEW 7.0.10) date 2024-01-18 14:13:19*
%MOMM*%
%LPD*%
G01*
G04 APERTURE LIST*
G04 Aperture macros list*
%AMRoundRect*
0 Rectangle with rounded corners*
0 $1 Rounding radius*
0 $2 $3 $4 $5 $6 $7 $8 $9 X,Y pos of 4 corners*
0 Add a 4 corners polygon primitive as box body*
4,1,4,$2,$3,$4,$5,$6,$7,$8,$9,$2,$3,0*
0 Add four circle primitives for the rounded corners*
1,1,$1+$1,$2,$3*
1,1,$1+$1,$4,$5*
1,1,$1+$1,$6,$7*
1,1,$1+$1,$8,$9*
0 Add four rect primitives between the rounded corners*
20,1,$1+$1,$2,$3,$4,$5,0*
20,1,$1+$1,$4,$5,$6,$7,0*
20,1,$1+$1,$6,$7,$8,$9,0*
20,1,$1+$1,$8,$9,$2,$3,0*%
G04 Aperture macros list end*
%ADD10C,0.150000*%
%ADD11C,0.254000*%
%ADD12C,0.120000*%
%ADD13C,0.381000*%
%ADD14R,1.397000X1.397000*%
%ADD15C,1.397000*%
%ADD16C,1.500000*%
%ADD17R,1.600000X1.600000*%
%ADD18O,1.600000X1.600000*%
%ADD19C,1.600000*%
%ADD20R,1.700000X1.700000*%
%ADD21O,1.700000X1.700000*%
%ADD22RoundRect,0.150000X-0.825000X-0.150000X0.825000X-0.150000X0.825000X0.150000X-0.825000X0.150000X0*%
%ADD23R,1.422400X1.422400*%
%ADD24C,1.422400*%
%ADD25C,0.900000*%
%ADD26C,8.600000*%
%ADD27C,2.000000*%
G04 APERTURE END LIST*
D10*
X183648809Y-165423086D02*
X183601190Y-165470705D01*
X183601190Y-165470705D02*
X183553571Y-165565943D01*
X183553571Y-165565943D02*
X183553571Y-165661181D01*
X183553571Y-165661181D02*
X183601190Y-165756419D01*
X183601190Y-165756419D02*
X183648809Y-165804038D01*
X183648809Y-165804038D02*
X183744047Y-165851657D01*
X183744047Y-165851657D02*
X183839285Y-165851657D01*
X183839285Y-165851657D02*
X183934523Y-165804038D01*
X183934523Y-165804038D02*
X183982142Y-165756419D01*
X183982142Y-165756419D02*
X184029761Y-165661181D01*
X184029761Y-165661181D02*
X184029761Y-165565943D01*
X184029761Y-165565943D02*
X183982142Y-165470705D01*
X183982142Y-165470705D02*
X183934523Y-165423086D01*
X183553571Y-165423086D02*
X183934523Y-165423086D01*
X183934523Y-165423086D02*
X183982142Y-165375467D01*
X183982142Y-165375467D02*
X183982142Y-165327848D01*
X183982142Y-165327848D02*
X183934523Y-165232609D01*
X183934523Y-165232609D02*
X183839285Y-165184990D01*
X183839285Y-165184990D02*
X183601190Y-165184990D01*
X183601190Y-165184990D02*
X183458333Y-165280229D01*
X183458333Y-165280229D02*
X183363095Y-165423086D01*
X183363095Y-165423086D02*
X183315476Y-165613562D01*
X183315476Y-165613562D02*
X183363095Y-165804038D01*
X183363095Y-165804038D02*
X183458333Y-165946895D01*
X183458333Y-165946895D02*
X183601190Y-166042133D01*
X183601190Y-166042133D02*
X183791666Y-166089752D01*
X183791666Y-166089752D02*
X183982142Y-166042133D01*
X183982142Y-166042133D02*
X184125000Y-165946895D01*
X184125000Y-165946895D02*
X184220238Y-165804038D01*
X184220238Y-165804038D02*
X184267857Y-165613562D01*
X184267857Y-165613562D02*
X184220238Y-165423086D01*
X184220238Y-165423086D02*
X184125000Y-165280229D01*
X184077381Y-164804038D02*
X184125000Y-164661181D01*
X184125000Y-164661181D02*
X184125000Y-164423086D01*
X184125000Y-164423086D02*
X184077381Y-164327848D01*
X184077381Y-164327848D02*
X184029761Y-164280229D01*
X184029761Y-164280229D02*
X183934523Y-164232610D01*
X183934523Y-164232610D02*
X183839285Y-164232610D01*
X183839285Y-164232610D02*
X183744047Y-164280229D01*
X183744047Y-164280229D02*
X183696428Y-164327848D01*
X183696428Y-164327848D02*
X183648809Y-164423086D01*
X183648809Y-164423086D02*
X183601190Y-164613562D01*
X183601190Y-164613562D02*
X183553571Y-164708800D01*
X183553571Y-164708800D02*
X183505952Y-164756419D01*
X183505952Y-164756419D02*
X183410714Y-164804038D01*
X183410714Y-164804038D02*
X183315476Y-164804038D01*
X183315476Y-164804038D02*
X183220238Y-164756419D01*
X183220238Y-164756419D02*
X183172619Y-164708800D01*
X183172619Y-164708800D02*
X183125000Y-164613562D01*
X183125000Y-164613562D02*
X183125000Y-164375467D01*
X183125000Y-164375467D02*
X183172619Y-164232610D01*
X183458333Y-163375467D02*
X184125000Y-163375467D01*
X183458333Y-163804038D02*
X183982142Y-163804038D01*
X183982142Y-163804038D02*
X184077381Y-163756419D01*
X184077381Y-163756419D02*
X184125000Y-163661181D01*
X184125000Y-163661181D02*
X184125000Y-163518324D01*
X184125000Y-163518324D02*
X184077381Y-163423086D01*
X184077381Y-163423086D02*
X184029761Y-163375467D01*
X184125000Y-162756419D02*
X184077381Y-162851657D01*
X184077381Y-162851657D02*
X183982142Y-162899276D01*
X183982142Y-162899276D02*
X183125000Y-162899276D01*
X183458333Y-162518323D02*
X183458333Y-162137371D01*
X184125000Y-162375466D02*
X183267857Y-162375466D01*
X183267857Y-162375466D02*
X183172619Y-162327847D01*
X183172619Y-162327847D02*
X183125000Y-162232609D01*
X183125000Y-162232609D02*
X183125000Y-162137371D01*
X183458333Y-161375466D02*
X184125000Y-161375466D01*
X183458333Y-161804037D02*
X183982142Y-161804037D01*
X183982142Y-161804037D02*
X184077381Y-161756418D01*
X184077381Y-161756418D02*
X184125000Y-161661180D01*
X184125000Y-161661180D02*
X184125000Y-161518323D01*
X184125000Y-161518323D02*
X184077381Y-161423085D01*
X184077381Y-161423085D02*
X184029761Y-161375466D01*
X184125000Y-160899275D02*
X183458333Y-160899275D01*
X183648809Y-160899275D02*
X183553571Y-160851656D01*
X183553571Y-160851656D02*
X183505952Y-160804037D01*
X183505952Y-160804037D02*
X183458333Y-160708799D01*
X183458333Y-160708799D02*
X183458333Y-160613561D01*
X184125000Y-160137370D02*
X184077381Y-160232608D01*
X184077381Y-160232608D02*
X184029761Y-160280227D01*
X184029761Y-160280227D02*
X183934523Y-160327846D01*
X183934523Y-160327846D02*
X183648809Y-160327846D01*
X183648809Y-160327846D02*
X183553571Y-160280227D01*
X183553571Y-160280227D02*
X183505952Y-160232608D01*
X183505952Y-160232608D02*
X183458333Y-160137370D01*
X183458333Y-160137370D02*
X183458333Y-159994513D01*
X183458333Y-159994513D02*
X183505952Y-159899275D01*
X183505952Y-159899275D02*
X183553571Y-159851656D01*
X183553571Y-159851656D02*
X183648809Y-159804037D01*
X183648809Y-159804037D02*
X183934523Y-159804037D01*
X183934523Y-159804037D02*
X184029761Y-159851656D01*
X184029761Y-159851656D02*
X184077381Y-159899275D01*
X184077381Y-159899275D02*
X184125000Y-159994513D01*
X184125000Y-159994513D02*
X184125000Y-160137370D01*
X184125000Y-159375465D02*
X183458333Y-159375465D01*
X183125000Y-159375465D02*
X183172619Y-159423084D01*
X183172619Y-159423084D02*
X183220238Y-159375465D01*
X183220238Y-159375465D02*
X183172619Y-159327846D01*
X183172619Y-159327846D02*
X183125000Y-159375465D01*
X183125000Y-159375465D02*
X183220238Y-159375465D01*
X184125000Y-158470704D02*
X183125000Y-158470704D01*
X184077381Y-158470704D02*
X184125000Y-158565942D01*
X184125000Y-158565942D02*
X184125000Y-158756418D01*
X184125000Y-158756418D02*
X184077381Y-158851656D01*
X184077381Y-158851656D02*
X184029761Y-158899275D01*
X184029761Y-158899275D02*
X183934523Y-158946894D01*
X183934523Y-158946894D02*
X183648809Y-158946894D01*
X183648809Y-158946894D02*
X183553571Y-158899275D01*
X183553571Y-158899275D02*
X183505952Y-158851656D01*
X183505952Y-158851656D02*
X183458333Y-158756418D01*
X183458333Y-158756418D02*
X183458333Y-158565942D01*
X183458333Y-158565942D02*
X183505952Y-158470704D01*
X180703800Y-165050036D02*
X179703800Y-165050036D01*
X179703800Y-165050036D02*
X180418085Y-164716703D01*
X180418085Y-164716703D02*
X179703800Y-164383370D01*
X179703800Y-164383370D02*
X180703800Y-164383370D01*
X180703800Y-163907179D02*
X179703800Y-163907179D01*
X180703800Y-163430989D02*
X179703800Y-163430989D01*
X179703800Y-163430989D02*
X180703800Y-162859561D01*
X180703800Y-162859561D02*
X179703800Y-162859561D01*
X180703800Y-162383370D02*
X179703800Y-162383370D01*
X180322847Y-161907180D02*
X180322847Y-161145276D01*
X180703800Y-160669085D02*
X179703800Y-160669085D01*
X179703800Y-160335752D02*
X179703800Y-159764324D01*
X180703800Y-160050038D02*
X179703800Y-160050038D01*
X179703800Y-159526228D02*
X180703800Y-158859562D01*
X179703800Y-158859562D02*
X180703800Y-159526228D01*
X182313800Y-167573847D02*
X181313800Y-167573847D01*
X182313800Y-167002419D02*
X181742371Y-167430990D01*
X181313800Y-167002419D02*
X181885228Y-167573847D01*
X182313800Y-166573847D02*
X181647133Y-166573847D01*
X181313800Y-166573847D02*
X181361419Y-166621466D01*
X181361419Y-166621466D02*
X181409038Y-166573847D01*
X181409038Y-166573847D02*
X181361419Y-166526228D01*
X181361419Y-166526228D02*
X181313800Y-166573847D01*
X181313800Y-166573847D02*
X181409038Y-166573847D01*
X182266181Y-165669086D02*
X182313800Y-165764324D01*
X182313800Y-165764324D02*
X182313800Y-165954800D01*
X182313800Y-165954800D02*
X182266181Y-166050038D01*
X182266181Y-166050038D02*
X182218561Y-166097657D01*
X182218561Y-166097657D02*
X182123323Y-166145276D01*
X182123323Y-166145276D02*
X181837609Y-166145276D01*
X181837609Y-166145276D02*
X181742371Y-166097657D01*
X181742371Y-166097657D02*
X181694752Y-166050038D01*
X181694752Y-166050038D02*
X181647133Y-165954800D01*
X181647133Y-165954800D02*
X181647133Y-165764324D01*
X181647133Y-165764324D02*
X181694752Y-165669086D01*
X182313800Y-164811943D02*
X181789990Y-164811943D01*
X181789990Y-164811943D02*
X181694752Y-164859562D01*
X181694752Y-164859562D02*
X181647133Y-164954800D01*
X181647133Y-164954800D02*
X181647133Y-165145276D01*
X181647133Y-165145276D02*
X181694752Y-165240514D01*
X182266181Y-164811943D02*
X182313800Y-164907181D01*
X182313800Y-164907181D02*
X182313800Y-165145276D01*
X182313800Y-165145276D02*
X182266181Y-165240514D01*
X182266181Y-165240514D02*
X182170942Y-165288133D01*
X182170942Y-165288133D02*
X182075704Y-165288133D01*
X182075704Y-165288133D02*
X181980466Y-165240514D01*
X181980466Y-165240514D02*
X181932847Y-165145276D01*
X181932847Y-165145276D02*
X181932847Y-164907181D01*
X181932847Y-164907181D02*
X181885228Y-164811943D01*
X182313800Y-163907181D02*
X181313800Y-163907181D01*
X182266181Y-163907181D02*
X182313800Y-164002419D01*
X182313800Y-164002419D02*
X182313800Y-164192895D01*
X182313800Y-164192895D02*
X182266181Y-164288133D01*
X182266181Y-164288133D02*
X182218561Y-164335752D01*
X182218561Y-164335752D02*
X182123323Y-164383371D01*
X182123323Y-164383371D02*
X181837609Y-164383371D01*
X181837609Y-164383371D02*
X181742371Y-164335752D01*
X181742371Y-164335752D02*
X181694752Y-164288133D01*
X181694752Y-164288133D02*
X181647133Y-164192895D01*
X181647133Y-164192895D02*
X181647133Y-164002419D01*
X181647133Y-164002419D02*
X181694752Y-163907181D01*
X181313800Y-162811942D02*
X181313800Y-162240514D01*
X182313800Y-162526228D02*
X181313800Y-162526228D01*
X182266181Y-161526228D02*
X182313800Y-161621466D01*
X182313800Y-161621466D02*
X182313800Y-161811942D01*
X182313800Y-161811942D02*
X182266181Y-161907180D01*
X182266181Y-161907180D02*
X182170942Y-161954799D01*
X182170942Y-161954799D02*
X181789990Y-161954799D01*
X181789990Y-161954799D02*
X181694752Y-161907180D01*
X181694752Y-161907180D02*
X181647133Y-161811942D01*
X181647133Y-161811942D02*
X181647133Y-161621466D01*
X181647133Y-161621466D02*
X181694752Y-161526228D01*
X181694752Y-161526228D02*
X181789990Y-161478609D01*
X181789990Y-161478609D02*
X181885228Y-161478609D01*
X181885228Y-161478609D02*
X181980466Y-161954799D01*
X182313800Y-161050037D02*
X181647133Y-161050037D01*
X181742371Y-161050037D02*
X181694752Y-161002418D01*
X181694752Y-161002418D02*
X181647133Y-160907180D01*
X181647133Y-160907180D02*
X181647133Y-160764323D01*
X181647133Y-160764323D02*
X181694752Y-160669085D01*
X181694752Y-160669085D02*
X181789990Y-160621466D01*
X181789990Y-160621466D02*
X182313800Y-160621466D01*
X181789990Y-160621466D02*
X181694752Y-160573847D01*
X181694752Y-160573847D02*
X181647133Y-160478609D01*
X181647133Y-160478609D02*
X181647133Y-160335752D01*
X181647133Y-160335752D02*
X181694752Y-160240513D01*
X181694752Y-160240513D02*
X181789990Y-160192894D01*
X181789990Y-160192894D02*
X182313800Y-160192894D01*
X181647133Y-159716704D02*
X182647133Y-159716704D01*
X181694752Y-159716704D02*
X181647133Y-159621466D01*
X181647133Y-159621466D02*
X181647133Y-159430990D01*
X181647133Y-159430990D02*
X181694752Y-159335752D01*
X181694752Y-159335752D02*
X181742371Y-159288133D01*
X181742371Y-159288133D02*
X181837609Y-159240514D01*
X181837609Y-159240514D02*
X182123323Y-159240514D01*
X182123323Y-159240514D02*
X182218561Y-159288133D01*
X182218561Y-159288133D02*
X182266181Y-159335752D01*
X182266181Y-159335752D02*
X182313800Y-159430990D01*
X182313800Y-159430990D02*
X182313800Y-159621466D01*
X182313800Y-159621466D02*
X182266181Y-159716704D01*
X182313800Y-158669085D02*
X182266181Y-158764323D01*
X182266181Y-158764323D02*
X182170942Y-158811942D01*
X182170942Y-158811942D02*
X181313800Y-158811942D01*
X182313800Y-157859561D02*
X181789990Y-157859561D01*
X181789990Y-157859561D02*
X181694752Y-157907180D01*
X181694752Y-157907180D02*
X181647133Y-158002418D01*
X181647133Y-158002418D02*
X181647133Y-158192894D01*
X181647133Y-158192894D02*
X181694752Y-158288132D01*
X182266181Y-157859561D02*
X182313800Y-157954799D01*
X182313800Y-157954799D02*
X182313800Y-158192894D01*
X182313800Y-158192894D02*
X182266181Y-158288132D01*
X182266181Y-158288132D02*
X182170942Y-158335751D01*
X182170942Y-158335751D02*
X182075704Y-158335751D01*
X182075704Y-158335751D02*
X181980466Y-158288132D01*
X181980466Y-158288132D02*
X181932847Y-158192894D01*
X181932847Y-158192894D02*
X181932847Y-157954799D01*
X181932847Y-157954799D02*
X181885228Y-157859561D01*
X181647133Y-157526227D02*
X181647133Y-157145275D01*
X181313800Y-157383370D02*
X182170942Y-157383370D01*
X182170942Y-157383370D02*
X182266181Y-157335751D01*
X182266181Y-157335751D02*
X182313800Y-157240513D01*
X182313800Y-157240513D02*
X182313800Y-157145275D01*
X182266181Y-156430989D02*
X182313800Y-156526227D01*
X182313800Y-156526227D02*
X182313800Y-156716703D01*
X182313800Y-156716703D02*
X182266181Y-156811941D01*
X182266181Y-156811941D02*
X182170942Y-156859560D01*
X182170942Y-156859560D02*
X181789990Y-156859560D01*
X181789990Y-156859560D02*
X181694752Y-156811941D01*
X181694752Y-156811941D02*
X181647133Y-156716703D01*
X181647133Y-156716703D02*
X181647133Y-156526227D01*
X181647133Y-156526227D02*
X181694752Y-156430989D01*
X181694752Y-156430989D02*
X181789990Y-156383370D01*
X181789990Y-156383370D02*
X181885228Y-156383370D01*
X181885228Y-156383370D02*
X181980466Y-156859560D01*
X170143809Y-95273628D02*
X170143809Y-95749819D01*
X169810476Y-94749819D02*
X170143809Y-95273628D01*
X170143809Y-95273628D02*
X170477142Y-94749819D01*
X171334285Y-95749819D02*
X170762857Y-95749819D01*
X171048571Y-95749819D02*
X171048571Y-94749819D01*
X171048571Y-94749819D02*
X170953333Y-94892676D01*
X170953333Y-94892676D02*
X170858095Y-94987914D01*
X170858095Y-94987914D02*
X170762857Y-95035533D01*
X153701905Y-68244819D02*
X153701905Y-69054342D01*
X153701905Y-69054342D02*
X153749524Y-69149580D01*
X153749524Y-69149580D02*
X153797143Y-69197200D01*
X153797143Y-69197200D02*
X153892381Y-69244819D01*
X153892381Y-69244819D02*
X154082857Y-69244819D01*
X154082857Y-69244819D02*
X154178095Y-69197200D01*
X154178095Y-69197200D02*
X154225714Y-69149580D01*
X154225714Y-69149580D02*
X154273333Y-69054342D01*
X154273333Y-69054342D02*
X154273333Y-68244819D01*
X155273333Y-69244819D02*
X154701905Y-69244819D01*
X154987619Y-69244819D02*
X154987619Y-68244819D01*
X154987619Y-68244819D02*
X154892381Y-68387676D01*
X154892381Y-68387676D02*
X154797143Y-68482914D01*
X154797143Y-68482914D02*
X154701905Y-68530533D01*
X156130476Y-68244819D02*
X155940000Y-68244819D01*
X155940000Y-68244819D02*
X155844762Y-68292438D01*
X155844762Y-68292438D02*
X155797143Y-68340057D01*
X155797143Y-68340057D02*
X155701905Y-68482914D01*
X155701905Y-68482914D02*
X155654286Y-68673390D01*
X155654286Y-68673390D02*
X155654286Y-69054342D01*
X155654286Y-69054342D02*
X155701905Y-69149580D01*
X155701905Y-69149580D02*
X155749524Y-69197200D01*
X155749524Y-69197200D02*
X155844762Y-69244819D01*
X155844762Y-69244819D02*
X156035238Y-69244819D01*
X156035238Y-69244819D02*
X156130476Y-69197200D01*
X156130476Y-69197200D02*
X156178095Y-69149580D01*
X156178095Y-69149580D02*
X156225714Y-69054342D01*
X156225714Y-69054342D02*
X156225714Y-68816247D01*
X156225714Y-68816247D02*
X156178095Y-68721009D01*
X156178095Y-68721009D02*
X156130476Y-68673390D01*
X156130476Y-68673390D02*
X156035238Y-68625771D01*
X156035238Y-68625771D02*
X155844762Y-68625771D01*
X155844762Y-68625771D02*
X155749524Y-68673390D01*
X155749524Y-68673390D02*
X155701905Y-68721009D01*
X155701905Y-68721009D02*
X155654286Y-68816247D01*
D11*
X101103809Y-78826844D02*
X101103809Y-80883034D01*
X101103809Y-80883034D02*
X101200571Y-81124939D01*
X101200571Y-81124939D02*
X101297333Y-81245892D01*
X101297333Y-81245892D02*
X101490857Y-81366844D01*
X101490857Y-81366844D02*
X101877904Y-81366844D01*
X101877904Y-81366844D02*
X102071428Y-81245892D01*
X102071428Y-81245892D02*
X102168190Y-81124939D01*
X102168190Y-81124939D02*
X102264952Y-80883034D01*
X102264952Y-80883034D02*
X102264952Y-78826844D01*
X104296952Y-81366844D02*
X103135809Y-81366844D01*
X103716381Y-81366844D02*
X103716381Y-78826844D01*
X103716381Y-78826844D02*
X103522857Y-79189701D01*
X103522857Y-79189701D02*
X103329333Y-79431606D01*
X103329333Y-79431606D02*
X103135809Y-79552558D01*
X98377541Y-87081844D02*
X98077579Y-87081844D01*
X98077579Y-87081844D02*
X97927598Y-87202796D01*
X97927598Y-87202796D02*
X97852608Y-87323749D01*
X97852608Y-87323749D02*
X97702627Y-87686606D01*
X97702627Y-87686606D02*
X97627636Y-88170415D01*
X97627636Y-88170415D02*
X97627636Y-89138034D01*
X97627636Y-89138034D02*
X97702627Y-89379939D01*
X97702627Y-89379939D02*
X97777617Y-89500892D01*
X97777617Y-89500892D02*
X97927598Y-89621844D01*
X97927598Y-89621844D02*
X98227560Y-89621844D01*
X98227560Y-89621844D02*
X98377541Y-89500892D01*
X98377541Y-89500892D02*
X98452532Y-89379939D01*
X98452532Y-89379939D02*
X98527522Y-89138034D01*
X98527522Y-89138034D02*
X98527522Y-88533272D01*
X98527522Y-88533272D02*
X98452532Y-88291368D01*
X98452532Y-88291368D02*
X98377541Y-88170415D01*
X98377541Y-88170415D02*
X98227560Y-88049463D01*
X98227560Y-88049463D02*
X97927598Y-88049463D01*
X97927598Y-88049463D02*
X97777617Y-88170415D01*
X97777617Y-88170415D02*
X97702627Y-88291368D01*
X97702627Y-88291368D02*
X97627636Y-88533272D01*
X99427408Y-88170415D02*
X99277427Y-88049463D01*
X99277427Y-88049463D02*
X99202437Y-87928511D01*
X99202437Y-87928511D02*
X99127446Y-87686606D01*
X99127446Y-87686606D02*
X99127446Y-87565653D01*
X99127446Y-87565653D02*
X99202437Y-87323749D01*
X99202437Y-87323749D02*
X99277427Y-87202796D01*
X99277427Y-87202796D02*
X99427408Y-87081844D01*
X99427408Y-87081844D02*
X99727370Y-87081844D01*
X99727370Y-87081844D02*
X99877351Y-87202796D01*
X99877351Y-87202796D02*
X99952342Y-87323749D01*
X99952342Y-87323749D02*
X100027332Y-87565653D01*
X100027332Y-87565653D02*
X100027332Y-87686606D01*
X100027332Y-87686606D02*
X99952342Y-87928511D01*
X99952342Y-87928511D02*
X99877351Y-88049463D01*
X99877351Y-88049463D02*
X99727370Y-88170415D01*
X99727370Y-88170415D02*
X99427408Y-88170415D01*
X99427408Y-88170415D02*
X99277427Y-88291368D01*
X99277427Y-88291368D02*
X99202437Y-88412320D01*
X99202437Y-88412320D02*
X99127446Y-88654225D01*
X99127446Y-88654225D02*
X99127446Y-89138034D01*
X99127446Y-89138034D02*
X99202437Y-89379939D01*
X99202437Y-89379939D02*
X99277427Y-89500892D01*
X99277427Y-89500892D02*
X99427408Y-89621844D01*
X99427408Y-89621844D02*
X99727370Y-89621844D01*
X99727370Y-89621844D02*
X99877351Y-89500892D01*
X99877351Y-89500892D02*
X99952342Y-89379939D01*
X99952342Y-89379939D02*
X100027332Y-89138034D01*
X100027332Y-89138034D02*
X100027332Y-88654225D01*
X100027332Y-88654225D02*
X99952342Y-88412320D01*
X99952342Y-88412320D02*
X99877351Y-88291368D01*
X99877351Y-88291368D02*
X99727370Y-88170415D01*
X101002209Y-87081844D02*
X101152190Y-87081844D01*
X101152190Y-87081844D02*
X101302171Y-87202796D01*
X101302171Y-87202796D02*
X101377161Y-87323749D01*
X101377161Y-87323749D02*
X101452152Y-87565653D01*
X101452152Y-87565653D02*
X101527142Y-88049463D01*
X101527142Y-88049463D02*
X101527142Y-88654225D01*
X101527142Y-88654225D02*
X101452152Y-89138034D01*
X101452152Y-89138034D02*
X101377161Y-89379939D01*
X101377161Y-89379939D02*
X101302171Y-89500892D01*
X101302171Y-89500892D02*
X101152190Y-89621844D01*
X101152190Y-89621844D02*
X101002209Y-89621844D01*
X101002209Y-89621844D02*
X100852228Y-89500892D01*
X100852228Y-89500892D02*
X100777237Y-89379939D01*
X100777237Y-89379939D02*
X100702247Y-89138034D01*
X100702247Y-89138034D02*
X100627256Y-88654225D01*
X100627256Y-88654225D02*
X100627256Y-88049463D01*
X100627256Y-88049463D02*
X100702247Y-87565653D01*
X100702247Y-87565653D02*
X100777237Y-87323749D01*
X100777237Y-87323749D02*
X100852228Y-87202796D01*
X100852228Y-87202796D02*
X101002209Y-87081844D01*
X102052076Y-87081844D02*
X103026952Y-87081844D01*
X103026952Y-87081844D02*
X102502019Y-88049463D01*
X102502019Y-88049463D02*
X102726990Y-88049463D01*
X102726990Y-88049463D02*
X102876971Y-88170415D01*
X102876971Y-88170415D02*
X102951962Y-88291368D01*
X102951962Y-88291368D02*
X103026952Y-88533272D01*
X103026952Y-88533272D02*
X103026952Y-89138034D01*
X103026952Y-89138034D02*
X102951962Y-89379939D01*
X102951962Y-89379939D02*
X102876971Y-89500892D01*
X102876971Y-89500892D02*
X102726990Y-89621844D01*
X102726990Y-89621844D02*
X102277047Y-89621844D01*
X102277047Y-89621844D02*
X102127066Y-89500892D01*
X102127066Y-89500892D02*
X102052076Y-89379939D01*
X104001829Y-87081844D02*
X104151810Y-87081844D01*
X104151810Y-87081844D02*
X104301791Y-87202796D01*
X104301791Y-87202796D02*
X104376781Y-87323749D01*
X104376781Y-87323749D02*
X104451772Y-87565653D01*
X104451772Y-87565653D02*
X104526762Y-88049463D01*
X104526762Y-88049463D02*
X104526762Y-88654225D01*
X104526762Y-88654225D02*
X104451772Y-89138034D01*
X104451772Y-89138034D02*
X104376781Y-89379939D01*
X104376781Y-89379939D02*
X104301791Y-89500892D01*
X104301791Y-89500892D02*
X104151810Y-89621844D01*
X104151810Y-89621844D02*
X104001829Y-89621844D01*
X104001829Y-89621844D02*
X103851848Y-89500892D01*
X103851848Y-89500892D02*
X103776857Y-89379939D01*
X103776857Y-89379939D02*
X103701867Y-89138034D01*
X103701867Y-89138034D02*
X103626876Y-88654225D01*
X103626876Y-88654225D02*
X103626876Y-88049463D01*
X103626876Y-88049463D02*
X103701867Y-87565653D01*
X103701867Y-87565653D02*
X103776857Y-87323749D01*
X103776857Y-87323749D02*
X103851848Y-87202796D01*
X103851848Y-87202796D02*
X104001829Y-87081844D01*
X106101563Y-89621844D02*
X105576629Y-88412320D01*
X105201677Y-89621844D02*
X105201677Y-87081844D01*
X105201677Y-87081844D02*
X105801601Y-87081844D01*
X105801601Y-87081844D02*
X105951582Y-87202796D01*
X105951582Y-87202796D02*
X106026572Y-87323749D01*
X106026572Y-87323749D02*
X106101563Y-87565653D01*
X106101563Y-87565653D02*
X106101563Y-87928511D01*
X106101563Y-87928511D02*
X106026572Y-88170415D01*
X106026572Y-88170415D02*
X105951582Y-88291368D01*
X105951582Y-88291368D02*
X105801601Y-88412320D01*
X105801601Y-88412320D02*
X105201677Y-88412320D01*
X107676363Y-89379939D02*
X107601372Y-89500892D01*
X107601372Y-89500892D02*
X107376401Y-89621844D01*
X107376401Y-89621844D02*
X107226420Y-89621844D01*
X107226420Y-89621844D02*
X107001448Y-89500892D01*
X107001448Y-89500892D02*
X106851467Y-89258987D01*
X106851467Y-89258987D02*
X106776477Y-89017082D01*
X106776477Y-89017082D02*
X106701486Y-88533272D01*
X106701486Y-88533272D02*
X106701486Y-88170415D01*
X106701486Y-88170415D02*
X106776477Y-87686606D01*
X106776477Y-87686606D02*
X106851467Y-87444701D01*
X106851467Y-87444701D02*
X107001448Y-87202796D01*
X107001448Y-87202796D02*
X107226420Y-87081844D01*
X107226420Y-87081844D02*
X107376401Y-87081844D01*
X107376401Y-87081844D02*
X107601372Y-87202796D01*
X107601372Y-87202796D02*
X107676363Y-87323749D01*
D10*
X170157142Y-91554819D02*
X169823809Y-91078628D01*
X169585714Y-91554819D02*
X169585714Y-90554819D01*
X169585714Y-90554819D02*
X169966666Y-90554819D01*
X169966666Y-90554819D02*
X170061904Y-90602438D01*
X170061904Y-90602438D02*
X170109523Y-90650057D01*
X170109523Y-90650057D02*
X170157142Y-90745295D01*
X170157142Y-90745295D02*
X170157142Y-90888152D01*
X170157142Y-90888152D02*
X170109523Y-90983390D01*
X170109523Y-90983390D02*
X170061904Y-91031009D01*
X170061904Y-91031009D02*
X169966666Y-91078628D01*
X169966666Y-91078628D02*
X169585714Y-91078628D01*
X171109523Y-91554819D02*
X170538095Y-91554819D01*
X170823809Y-91554819D02*
X170823809Y-90554819D01*
X170823809Y-90554819D02*
X170728571Y-90697676D01*
X170728571Y-90697676D02*
X170633333Y-90792914D01*
X170633333Y-90792914D02*
X170538095Y-90840533D01*
X171680952Y-90983390D02*
X171585714Y-90935771D01*
X171585714Y-90935771D02*
X171538095Y-90888152D01*
X171538095Y-90888152D02*
X171490476Y-90792914D01*
X171490476Y-90792914D02*
X171490476Y-90745295D01*
X171490476Y-90745295D02*
X171538095Y-90650057D01*
X171538095Y-90650057D02*
X171585714Y-90602438D01*
X171585714Y-90602438D02*
X171680952Y-90554819D01*
X171680952Y-90554819D02*
X171871428Y-90554819D01*
X171871428Y-90554819D02*
X171966666Y-90602438D01*
X171966666Y-90602438D02*
X172014285Y-90650057D01*
X172014285Y-90650057D02*
X172061904Y-90745295D01*
X172061904Y-90745295D02*
X172061904Y-90792914D01*
X172061904Y-90792914D02*
X172014285Y-90888152D01*
X172014285Y-90888152D02*
X171966666Y-90935771D01*
X171966666Y-90935771D02*
X171871428Y-90983390D01*
X171871428Y-90983390D02*
X171680952Y-90983390D01*
X171680952Y-90983390D02*
X171585714Y-91031009D01*
X171585714Y-91031009D02*
X171538095Y-91078628D01*
X171538095Y-91078628D02*
X171490476Y-91173866D01*
X171490476Y-91173866D02*
X171490476Y-91364342D01*
X171490476Y-91364342D02*
X171538095Y-91459580D01*
X171538095Y-91459580D02*
X171585714Y-91507200D01*
X171585714Y-91507200D02*
X171680952Y-91554819D01*
X171680952Y-91554819D02*
X171871428Y-91554819D01*
X171871428Y-91554819D02*
X171966666Y-91507200D01*
X171966666Y-91507200D02*
X172014285Y-91459580D01*
X172014285Y-91459580D02*
X172061904Y-91364342D01*
X172061904Y-91364342D02*
X172061904Y-91173866D01*
X172061904Y-91173866D02*
X172014285Y-91078628D01*
X172014285Y-91078628D02*
X171966666Y-91031009D01*
X171966666Y-91031009D02*
X171871428Y-90983390D01*
X170786666Y-101594819D02*
X170786666Y-102309104D01*
X170786666Y-102309104D02*
X170739047Y-102451961D01*
X170739047Y-102451961D02*
X170643809Y-102547200D01*
X170643809Y-102547200D02*
X170500952Y-102594819D01*
X170500952Y-102594819D02*
X170405714Y-102594819D01*
X171691428Y-101928152D02*
X171691428Y-102594819D01*
X171453333Y-101547200D02*
X171215238Y-102261485D01*
X171215238Y-102261485D02*
X171834285Y-102261485D01*
X166136666Y-101594819D02*
X166136666Y-102309104D01*
X166136666Y-102309104D02*
X166089047Y-102451961D01*
X166089047Y-102451961D02*
X165993809Y-102547200D01*
X165993809Y-102547200D02*
X165850952Y-102594819D01*
X165850952Y-102594819D02*
X165755714Y-102594819D01*
X166517619Y-101594819D02*
X167136666Y-101594819D01*
X167136666Y-101594819D02*
X166803333Y-101975771D01*
X166803333Y-101975771D02*
X166946190Y-101975771D01*
X166946190Y-101975771D02*
X167041428Y-102023390D01*
X167041428Y-102023390D02*
X167089047Y-102071009D01*
X167089047Y-102071009D02*
X167136666Y-102166247D01*
X167136666Y-102166247D02*
X167136666Y-102404342D01*
X167136666Y-102404342D02*
X167089047Y-102499580D01*
X167089047Y-102499580D02*
X167041428Y-102547200D01*
X167041428Y-102547200D02*
X166946190Y-102594819D01*
X166946190Y-102594819D02*
X166660476Y-102594819D01*
X166660476Y-102594819D02*
X166565238Y-102547200D01*
X166565238Y-102547200D02*
X166517619Y-102499580D01*
X170786666Y-68494819D02*
X170786666Y-69209104D01*
X170786666Y-69209104D02*
X170739047Y-69351961D01*
X170739047Y-69351961D02*
X170643809Y-69447200D01*
X170643809Y-69447200D02*
X170500952Y-69494819D01*
X170500952Y-69494819D02*
X170405714Y-69494819D01*
X171215238Y-68590057D02*
X171262857Y-68542438D01*
X171262857Y-68542438D02*
X171358095Y-68494819D01*
X171358095Y-68494819D02*
X171596190Y-68494819D01*
X171596190Y-68494819D02*
X171691428Y-68542438D01*
X171691428Y-68542438D02*
X171739047Y-68590057D01*
X171739047Y-68590057D02*
X171786666Y-68685295D01*
X171786666Y-68685295D02*
X171786666Y-68780533D01*
X171786666Y-68780533D02*
X171739047Y-68923390D01*
X171739047Y-68923390D02*
X171167619Y-69494819D01*
X171167619Y-69494819D02*
X171786666Y-69494819D01*
X166136666Y-68494819D02*
X166136666Y-69209104D01*
X166136666Y-69209104D02*
X166089047Y-69351961D01*
X166089047Y-69351961D02*
X165993809Y-69447200D01*
X165993809Y-69447200D02*
X165850952Y-69494819D01*
X165850952Y-69494819D02*
X165755714Y-69494819D01*
X167136666Y-69494819D02*
X166565238Y-69494819D01*
X166850952Y-69494819D02*
X166850952Y-68494819D01*
X166850952Y-68494819D02*
X166755714Y-68637676D01*
X166755714Y-68637676D02*
X166660476Y-68732914D01*
X166660476Y-68732914D02*
X166565238Y-68780533D01*
X168053333Y-115179580D02*
X168005714Y-115227200D01*
X168005714Y-115227200D02*
X167862857Y-115274819D01*
X167862857Y-115274819D02*
X167767619Y-115274819D01*
X167767619Y-115274819D02*
X167624762Y-115227200D01*
X167624762Y-115227200D02*
X167529524Y-115131961D01*
X167529524Y-115131961D02*
X167481905Y-115036723D01*
X167481905Y-115036723D02*
X167434286Y-114846247D01*
X167434286Y-114846247D02*
X167434286Y-114703390D01*
X167434286Y-114703390D02*
X167481905Y-114512914D01*
X167481905Y-114512914D02*
X167529524Y-114417676D01*
X167529524Y-114417676D02*
X167624762Y-114322438D01*
X167624762Y-114322438D02*
X167767619Y-114274819D01*
X167767619Y-114274819D02*
X167862857Y-114274819D01*
X167862857Y-114274819D02*
X168005714Y-114322438D01*
X168005714Y-114322438D02*
X168053333Y-114370057D01*
X168386667Y-114274819D02*
X169005714Y-114274819D01*
X169005714Y-114274819D02*
X168672381Y-114655771D01*
X168672381Y-114655771D02*
X168815238Y-114655771D01*
X168815238Y-114655771D02*
X168910476Y-114703390D01*
X168910476Y-114703390D02*
X168958095Y-114751009D01*
X168958095Y-114751009D02*
X169005714Y-114846247D01*
X169005714Y-114846247D02*
X169005714Y-115084342D01*
X169005714Y-115084342D02*
X168958095Y-115179580D01*
X168958095Y-115179580D02*
X168910476Y-115227200D01*
X168910476Y-115227200D02*
X168815238Y-115274819D01*
X168815238Y-115274819D02*
X168529524Y-115274819D01*
X168529524Y-115274819D02*
X168434286Y-115227200D01*
X168434286Y-115227200D02*
X168386667Y-115179580D01*
X168053333Y-111729580D02*
X168005714Y-111777200D01*
X168005714Y-111777200D02*
X167862857Y-111824819D01*
X167862857Y-111824819D02*
X167767619Y-111824819D01*
X167767619Y-111824819D02*
X167624762Y-111777200D01*
X167624762Y-111777200D02*
X167529524Y-111681961D01*
X167529524Y-111681961D02*
X167481905Y-111586723D01*
X167481905Y-111586723D02*
X167434286Y-111396247D01*
X167434286Y-111396247D02*
X167434286Y-111253390D01*
X167434286Y-111253390D02*
X167481905Y-111062914D01*
X167481905Y-111062914D02*
X167529524Y-110967676D01*
X167529524Y-110967676D02*
X167624762Y-110872438D01*
X167624762Y-110872438D02*
X167767619Y-110824819D01*
X167767619Y-110824819D02*
X167862857Y-110824819D01*
X167862857Y-110824819D02*
X168005714Y-110872438D01*
X168005714Y-110872438D02*
X168053333Y-110920057D01*
X168434286Y-110920057D02*
X168481905Y-110872438D01*
X168481905Y-110872438D02*
X168577143Y-110824819D01*
X168577143Y-110824819D02*
X168815238Y-110824819D01*
X168815238Y-110824819D02*
X168910476Y-110872438D01*
X168910476Y-110872438D02*
X168958095Y-110920057D01*
X168958095Y-110920057D02*
X169005714Y-111015295D01*
X169005714Y-111015295D02*
X169005714Y-111110533D01*
X169005714Y-111110533D02*
X168958095Y-111253390D01*
X168958095Y-111253390D02*
X168386667Y-111824819D01*
X168386667Y-111824819D02*
X169005714Y-111824819D01*
X49871905Y-84474819D02*
X49871905Y-85284342D01*
X49871905Y-85284342D02*
X49919524Y-85379580D01*
X49919524Y-85379580D02*
X49967143Y-85427200D01*
X49967143Y-85427200D02*
X50062381Y-85474819D01*
X50062381Y-85474819D02*
X50252857Y-85474819D01*
X50252857Y-85474819D02*
X50348095Y-85427200D01*
X50348095Y-85427200D02*
X50395714Y-85379580D01*
X50395714Y-85379580D02*
X50443333Y-85284342D01*
X50443333Y-85284342D02*
X50443333Y-84474819D01*
X51443333Y-85474819D02*
X50871905Y-85474819D01*
X51157619Y-85474819D02*
X51157619Y-84474819D01*
X51157619Y-84474819D02*
X51062381Y-84617676D01*
X51062381Y-84617676D02*
X50967143Y-84712914D01*
X50967143Y-84712914D02*
X50871905Y-84760533D01*
X52348095Y-84474819D02*
X51871905Y-84474819D01*
X51871905Y-84474819D02*
X51824286Y-84951009D01*
X51824286Y-84951009D02*
X51871905Y-84903390D01*
X51871905Y-84903390D02*
X51967143Y-84855771D01*
X51967143Y-84855771D02*
X52205238Y-84855771D01*
X52205238Y-84855771D02*
X52300476Y-84903390D01*
X52300476Y-84903390D02*
X52348095Y-84951009D01*
X52348095Y-84951009D02*
X52395714Y-85046247D01*
X52395714Y-85046247D02*
X52395714Y-85284342D01*
X52395714Y-85284342D02*
X52348095Y-85379580D01*
X52348095Y-85379580D02*
X52300476Y-85427200D01*
X52300476Y-85427200D02*
X52205238Y-85474819D01*
X52205238Y-85474819D02*
X51967143Y-85474819D01*
X51967143Y-85474819D02*
X51871905Y-85427200D01*
X51871905Y-85427200D02*
X51824286Y-85379580D01*
X35591905Y-84674819D02*
X35591905Y-85484342D01*
X35591905Y-85484342D02*
X35639524Y-85579580D01*
X35639524Y-85579580D02*
X35687143Y-85627200D01*
X35687143Y-85627200D02*
X35782381Y-85674819D01*
X35782381Y-85674819D02*
X35972857Y-85674819D01*
X35972857Y-85674819D02*
X36068095Y-85627200D01*
X36068095Y-85627200D02*
X36115714Y-85579580D01*
X36115714Y-85579580D02*
X36163333Y-85484342D01*
X36163333Y-85484342D02*
X36163333Y-84674819D01*
X37163333Y-85674819D02*
X36591905Y-85674819D01*
X36877619Y-85674819D02*
X36877619Y-84674819D01*
X36877619Y-84674819D02*
X36782381Y-84817676D01*
X36782381Y-84817676D02*
X36687143Y-84912914D01*
X36687143Y-84912914D02*
X36591905Y-84960533D01*
X38020476Y-85008152D02*
X38020476Y-85674819D01*
X37782381Y-84627200D02*
X37544286Y-85341485D01*
X37544286Y-85341485D02*
X38163333Y-85341485D01*
X32787142Y-107954819D02*
X32453809Y-107478628D01*
X32215714Y-107954819D02*
X32215714Y-106954819D01*
X32215714Y-106954819D02*
X32596666Y-106954819D01*
X32596666Y-106954819D02*
X32691904Y-107002438D01*
X32691904Y-107002438D02*
X32739523Y-107050057D01*
X32739523Y-107050057D02*
X32787142Y-107145295D01*
X32787142Y-107145295D02*
X32787142Y-107288152D01*
X32787142Y-107288152D02*
X32739523Y-107383390D01*
X32739523Y-107383390D02*
X32691904Y-107431009D01*
X32691904Y-107431009D02*
X32596666Y-107478628D01*
X32596666Y-107478628D02*
X32215714Y-107478628D01*
X33739523Y-107954819D02*
X33168095Y-107954819D01*
X33453809Y-107954819D02*
X33453809Y-106954819D01*
X33453809Y-106954819D02*
X33358571Y-107097676D01*
X33358571Y-107097676D02*
X33263333Y-107192914D01*
X33263333Y-107192914D02*
X33168095Y-107240533D01*
X34072857Y-106954819D02*
X34739523Y-106954819D01*
X34739523Y-106954819D02*
X34310952Y-107954819D01*
X242880476Y-146740819D02*
X243547142Y-147740819D01*
X243547142Y-146740819D02*
X242880476Y-147740819D01*
X244451904Y-147740819D02*
X243880476Y-147740819D01*
X244166190Y-147740819D02*
X244166190Y-146740819D01*
X244166190Y-146740819D02*
X244070952Y-146883676D01*
X244070952Y-146883676D02*
X243975714Y-146978914D01*
X243975714Y-146978914D02*
X243880476Y-147026533D01*
X193361905Y-146810819D02*
X193361905Y-147620342D01*
X193361905Y-147620342D02*
X193409524Y-147715580D01*
X193409524Y-147715580D02*
X193457143Y-147763200D01*
X193457143Y-147763200D02*
X193552381Y-147810819D01*
X193552381Y-147810819D02*
X193742857Y-147810819D01*
X193742857Y-147810819D02*
X193838095Y-147763200D01*
X193838095Y-147763200D02*
X193885714Y-147715580D01*
X193885714Y-147715580D02*
X193933333Y-147620342D01*
X193933333Y-147620342D02*
X193933333Y-146810819D01*
X194361905Y-146906057D02*
X194409524Y-146858438D01*
X194409524Y-146858438D02*
X194504762Y-146810819D01*
X194504762Y-146810819D02*
X194742857Y-146810819D01*
X194742857Y-146810819D02*
X194838095Y-146858438D01*
X194838095Y-146858438D02*
X194885714Y-146906057D01*
X194885714Y-146906057D02*
X194933333Y-147001295D01*
X194933333Y-147001295D02*
X194933333Y-147096533D01*
X194933333Y-147096533D02*
X194885714Y-147239390D01*
X194885714Y-147239390D02*
X194314286Y-147810819D01*
X194314286Y-147810819D02*
X194933333Y-147810819D01*
X195314286Y-146906057D02*
X195361905Y-146858438D01*
X195361905Y-146858438D02*
X195457143Y-146810819D01*
X195457143Y-146810819D02*
X195695238Y-146810819D01*
X195695238Y-146810819D02*
X195790476Y-146858438D01*
X195790476Y-146858438D02*
X195838095Y-146906057D01*
X195838095Y-146906057D02*
X195885714Y-147001295D01*
X195885714Y-147001295D02*
X195885714Y-147096533D01*
X195885714Y-147096533D02*
X195838095Y-147239390D01*
X195838095Y-147239390D02*
X195266667Y-147810819D01*
X195266667Y-147810819D02*
X195885714Y-147810819D01*
X163861905Y-139364819D02*
X163861905Y-140174342D01*
X163861905Y-140174342D02*
X163909524Y-140269580D01*
X163909524Y-140269580D02*
X163957143Y-140317200D01*
X163957143Y-140317200D02*
X164052381Y-140364819D01*
X164052381Y-140364819D02*
X164242857Y-140364819D01*
X164242857Y-140364819D02*
X164338095Y-140317200D01*
X164338095Y-140317200D02*
X164385714Y-140269580D01*
X164385714Y-140269580D02*
X164433333Y-140174342D01*
X164433333Y-140174342D02*
X164433333Y-139364819D01*
X165433333Y-140364819D02*
X164861905Y-140364819D01*
X165147619Y-140364819D02*
X165147619Y-139364819D01*
X165147619Y-139364819D02*
X165052381Y-139507676D01*
X165052381Y-139507676D02*
X164957143Y-139602914D01*
X164957143Y-139602914D02*
X164861905Y-139650533D01*
X165766667Y-139364819D02*
X166385714Y-139364819D01*
X166385714Y-139364819D02*
X166052381Y-139745771D01*
X166052381Y-139745771D02*
X166195238Y-139745771D01*
X166195238Y-139745771D02*
X166290476Y-139793390D01*
X166290476Y-139793390D02*
X166338095Y-139841009D01*
X166338095Y-139841009D02*
X166385714Y-139936247D01*
X166385714Y-139936247D02*
X166385714Y-140174342D01*
X166385714Y-140174342D02*
X166338095Y-140269580D01*
X166338095Y-140269580D02*
X166290476Y-140317200D01*
X166290476Y-140317200D02*
X166195238Y-140364819D01*
X166195238Y-140364819D02*
X165909524Y-140364819D01*
X165909524Y-140364819D02*
X165814286Y-140317200D01*
X165814286Y-140317200D02*
X165766667Y-140269580D01*
X146081905Y-139364819D02*
X146081905Y-140174342D01*
X146081905Y-140174342D02*
X146129524Y-140269580D01*
X146129524Y-140269580D02*
X146177143Y-140317200D01*
X146177143Y-140317200D02*
X146272381Y-140364819D01*
X146272381Y-140364819D02*
X146462857Y-140364819D01*
X146462857Y-140364819D02*
X146558095Y-140317200D01*
X146558095Y-140317200D02*
X146605714Y-140269580D01*
X146605714Y-140269580D02*
X146653333Y-140174342D01*
X146653333Y-140174342D02*
X146653333Y-139364819D01*
X147653333Y-140364819D02*
X147081905Y-140364819D01*
X147367619Y-140364819D02*
X147367619Y-139364819D01*
X147367619Y-139364819D02*
X147272381Y-139507676D01*
X147272381Y-139507676D02*
X147177143Y-139602914D01*
X147177143Y-139602914D02*
X147081905Y-139650533D01*
X148034286Y-139460057D02*
X148081905Y-139412438D01*
X148081905Y-139412438D02*
X148177143Y-139364819D01*
X148177143Y-139364819D02*
X148415238Y-139364819D01*
X148415238Y-139364819D02*
X148510476Y-139412438D01*
X148510476Y-139412438D02*
X148558095Y-139460057D01*
X148558095Y-139460057D02*
X148605714Y-139555295D01*
X148605714Y-139555295D02*
X148605714Y-139650533D01*
X148605714Y-139650533D02*
X148558095Y-139793390D01*
X148558095Y-139793390D02*
X147986667Y-140364819D01*
X147986667Y-140364819D02*
X148605714Y-140364819D01*
X128301905Y-139364819D02*
X128301905Y-140174342D01*
X128301905Y-140174342D02*
X128349524Y-140269580D01*
X128349524Y-140269580D02*
X128397143Y-140317200D01*
X128397143Y-140317200D02*
X128492381Y-140364819D01*
X128492381Y-140364819D02*
X128682857Y-140364819D01*
X128682857Y-140364819D02*
X128778095Y-140317200D01*
X128778095Y-140317200D02*
X128825714Y-140269580D01*
X128825714Y-140269580D02*
X128873333Y-140174342D01*
X128873333Y-140174342D02*
X128873333Y-139364819D01*
X129873333Y-140364819D02*
X129301905Y-140364819D01*
X129587619Y-140364819D02*
X129587619Y-139364819D01*
X129587619Y-139364819D02*
X129492381Y-139507676D01*
X129492381Y-139507676D02*
X129397143Y-139602914D01*
X129397143Y-139602914D02*
X129301905Y-139650533D01*
X130825714Y-140364819D02*
X130254286Y-140364819D01*
X130540000Y-140364819D02*
X130540000Y-139364819D01*
X130540000Y-139364819D02*
X130444762Y-139507676D01*
X130444762Y-139507676D02*
X130349524Y-139602914D01*
X130349524Y-139602914D02*
X130254286Y-139650533D01*
X110413905Y-139420819D02*
X110413905Y-140230342D01*
X110413905Y-140230342D02*
X110461524Y-140325580D01*
X110461524Y-140325580D02*
X110509143Y-140373200D01*
X110509143Y-140373200D02*
X110604381Y-140420819D01*
X110604381Y-140420819D02*
X110794857Y-140420819D01*
X110794857Y-140420819D02*
X110890095Y-140373200D01*
X110890095Y-140373200D02*
X110937714Y-140325580D01*
X110937714Y-140325580D02*
X110985333Y-140230342D01*
X110985333Y-140230342D02*
X110985333Y-139420819D01*
X111985333Y-140420819D02*
X111413905Y-140420819D01*
X111699619Y-140420819D02*
X111699619Y-139420819D01*
X111699619Y-139420819D02*
X111604381Y-139563676D01*
X111604381Y-139563676D02*
X111509143Y-139658914D01*
X111509143Y-139658914D02*
X111413905Y-139706533D01*
X112604381Y-139420819D02*
X112699619Y-139420819D01*
X112699619Y-139420819D02*
X112794857Y-139468438D01*
X112794857Y-139468438D02*
X112842476Y-139516057D01*
X112842476Y-139516057D02*
X112890095Y-139611295D01*
X112890095Y-139611295D02*
X112937714Y-139801771D01*
X112937714Y-139801771D02*
X112937714Y-140039866D01*
X112937714Y-140039866D02*
X112890095Y-140230342D01*
X112890095Y-140230342D02*
X112842476Y-140325580D01*
X112842476Y-140325580D02*
X112794857Y-140373200D01*
X112794857Y-140373200D02*
X112699619Y-140420819D01*
X112699619Y-140420819D02*
X112604381Y-140420819D01*
X112604381Y-140420819D02*
X112509143Y-140373200D01*
X112509143Y-140373200D02*
X112461524Y-140325580D01*
X112461524Y-140325580D02*
X112413905Y-140230342D01*
X112413905Y-140230342D02*
X112366286Y-140039866D01*
X112366286Y-140039866D02*
X112366286Y-139801771D01*
X112366286Y-139801771D02*
X112413905Y-139611295D01*
X112413905Y-139611295D02*
X112461524Y-139516057D01*
X112461524Y-139516057D02*
X112509143Y-139468438D01*
X112509143Y-139468438D02*
X112604381Y-139420819D01*
X91186095Y-139364819D02*
X91186095Y-140174342D01*
X91186095Y-140174342D02*
X91233714Y-140269580D01*
X91233714Y-140269580D02*
X91281333Y-140317200D01*
X91281333Y-140317200D02*
X91376571Y-140364819D01*
X91376571Y-140364819D02*
X91567047Y-140364819D01*
X91567047Y-140364819D02*
X91662285Y-140317200D01*
X91662285Y-140317200D02*
X91709904Y-140269580D01*
X91709904Y-140269580D02*
X91757523Y-140174342D01*
X91757523Y-140174342D02*
X91757523Y-139364819D01*
X92281333Y-140364819D02*
X92471809Y-140364819D01*
X92471809Y-140364819D02*
X92567047Y-140317200D01*
X92567047Y-140317200D02*
X92614666Y-140269580D01*
X92614666Y-140269580D02*
X92709904Y-140126723D01*
X92709904Y-140126723D02*
X92757523Y-139936247D01*
X92757523Y-139936247D02*
X92757523Y-139555295D01*
X92757523Y-139555295D02*
X92709904Y-139460057D01*
X92709904Y-139460057D02*
X92662285Y-139412438D01*
X92662285Y-139412438D02*
X92567047Y-139364819D01*
X92567047Y-139364819D02*
X92376571Y-139364819D01*
X92376571Y-139364819D02*
X92281333Y-139412438D01*
X92281333Y-139412438D02*
X92233714Y-139460057D01*
X92233714Y-139460057D02*
X92186095Y-139555295D01*
X92186095Y-139555295D02*
X92186095Y-139793390D01*
X92186095Y-139793390D02*
X92233714Y-139888628D01*
X92233714Y-139888628D02*
X92281333Y-139936247D01*
X92281333Y-139936247D02*
X92376571Y-139983866D01*
X92376571Y-139983866D02*
X92567047Y-139983866D01*
X92567047Y-139983866D02*
X92662285Y-139936247D01*
X92662285Y-139936247D02*
X92709904Y-139888628D01*
X92709904Y-139888628D02*
X92757523Y-139793390D01*
X73406095Y-139364819D02*
X73406095Y-140174342D01*
X73406095Y-140174342D02*
X73453714Y-140269580D01*
X73453714Y-140269580D02*
X73501333Y-140317200D01*
X73501333Y-140317200D02*
X73596571Y-140364819D01*
X73596571Y-140364819D02*
X73787047Y-140364819D01*
X73787047Y-140364819D02*
X73882285Y-140317200D01*
X73882285Y-140317200D02*
X73929904Y-140269580D01*
X73929904Y-140269580D02*
X73977523Y-140174342D01*
X73977523Y-140174342D02*
X73977523Y-139364819D01*
X74596571Y-139793390D02*
X74501333Y-139745771D01*
X74501333Y-139745771D02*
X74453714Y-139698152D01*
X74453714Y-139698152D02*
X74406095Y-139602914D01*
X74406095Y-139602914D02*
X74406095Y-139555295D01*
X74406095Y-139555295D02*
X74453714Y-139460057D01*
X74453714Y-139460057D02*
X74501333Y-139412438D01*
X74501333Y-139412438D02*
X74596571Y-139364819D01*
X74596571Y-139364819D02*
X74787047Y-139364819D01*
X74787047Y-139364819D02*
X74882285Y-139412438D01*
X74882285Y-139412438D02*
X74929904Y-139460057D01*
X74929904Y-139460057D02*
X74977523Y-139555295D01*
X74977523Y-139555295D02*
X74977523Y-139602914D01*
X74977523Y-139602914D02*
X74929904Y-139698152D01*
X74929904Y-139698152D02*
X74882285Y-139745771D01*
X74882285Y-139745771D02*
X74787047Y-139793390D01*
X74787047Y-139793390D02*
X74596571Y-139793390D01*
X74596571Y-139793390D02*
X74501333Y-139841009D01*
X74501333Y-139841009D02*
X74453714Y-139888628D01*
X74453714Y-139888628D02*
X74406095Y-139983866D01*
X74406095Y-139983866D02*
X74406095Y-140174342D01*
X74406095Y-140174342D02*
X74453714Y-140269580D01*
X74453714Y-140269580D02*
X74501333Y-140317200D01*
X74501333Y-140317200D02*
X74596571Y-140364819D01*
X74596571Y-140364819D02*
X74787047Y-140364819D01*
X74787047Y-140364819D02*
X74882285Y-140317200D01*
X74882285Y-140317200D02*
X74929904Y-140269580D01*
X74929904Y-140269580D02*
X74977523Y-140174342D01*
X74977523Y-140174342D02*
X74977523Y-139983866D01*
X74977523Y-139983866D02*
X74929904Y-139888628D01*
X74929904Y-139888628D02*
X74882285Y-139841009D01*
X74882285Y-139841009D02*
X74787047Y-139793390D01*
X55690095Y-139420819D02*
X55690095Y-140230342D01*
X55690095Y-140230342D02*
X55737714Y-140325580D01*
X55737714Y-140325580D02*
X55785333Y-140373200D01*
X55785333Y-140373200D02*
X55880571Y-140420819D01*
X55880571Y-140420819D02*
X56071047Y-140420819D01*
X56071047Y-140420819D02*
X56166285Y-140373200D01*
X56166285Y-140373200D02*
X56213904Y-140325580D01*
X56213904Y-140325580D02*
X56261523Y-140230342D01*
X56261523Y-140230342D02*
X56261523Y-139420819D01*
X56642476Y-139420819D02*
X57309142Y-139420819D01*
X57309142Y-139420819D02*
X56880571Y-140420819D01*
X38100095Y-139420819D02*
X38100095Y-140230342D01*
X38100095Y-140230342D02*
X38147714Y-140325580D01*
X38147714Y-140325580D02*
X38195333Y-140373200D01*
X38195333Y-140373200D02*
X38290571Y-140420819D01*
X38290571Y-140420819D02*
X38481047Y-140420819D01*
X38481047Y-140420819D02*
X38576285Y-140373200D01*
X38576285Y-140373200D02*
X38623904Y-140325580D01*
X38623904Y-140325580D02*
X38671523Y-140230342D01*
X38671523Y-140230342D02*
X38671523Y-139420819D01*
X39576285Y-139420819D02*
X39385809Y-139420819D01*
X39385809Y-139420819D02*
X39290571Y-139468438D01*
X39290571Y-139468438D02*
X39242952Y-139516057D01*
X39242952Y-139516057D02*
X39147714Y-139658914D01*
X39147714Y-139658914D02*
X39100095Y-139849390D01*
X39100095Y-139849390D02*
X39100095Y-140230342D01*
X39100095Y-140230342D02*
X39147714Y-140325580D01*
X39147714Y-140325580D02*
X39195333Y-140373200D01*
X39195333Y-140373200D02*
X39290571Y-140420819D01*
X39290571Y-140420819D02*
X39481047Y-140420819D01*
X39481047Y-140420819D02*
X39576285Y-140373200D01*
X39576285Y-140373200D02*
X39623904Y-140325580D01*
X39623904Y-140325580D02*
X39671523Y-140230342D01*
X39671523Y-140230342D02*
X39671523Y-139992247D01*
X39671523Y-139992247D02*
X39623904Y-139897009D01*
X39623904Y-139897009D02*
X39576285Y-139849390D01*
X39576285Y-139849390D02*
X39481047Y-139801771D01*
X39481047Y-139801771D02*
X39290571Y-139801771D01*
X39290571Y-139801771D02*
X39195333Y-139849390D01*
X39195333Y-139849390D02*
X39147714Y-139897009D01*
X39147714Y-139897009D02*
X39100095Y-139992247D01*
X204688095Y-146810819D02*
X204688095Y-147620342D01*
X204688095Y-147620342D02*
X204735714Y-147715580D01*
X204735714Y-147715580D02*
X204783333Y-147763200D01*
X204783333Y-147763200D02*
X204878571Y-147810819D01*
X204878571Y-147810819D02*
X205069047Y-147810819D01*
X205069047Y-147810819D02*
X205164285Y-147763200D01*
X205164285Y-147763200D02*
X205211904Y-147715580D01*
X205211904Y-147715580D02*
X205259523Y-147620342D01*
X205259523Y-147620342D02*
X205259523Y-146810819D01*
X206211904Y-146810819D02*
X205735714Y-146810819D01*
X205735714Y-146810819D02*
X205688095Y-147287009D01*
X205688095Y-147287009D02*
X205735714Y-147239390D01*
X205735714Y-147239390D02*
X205830952Y-147191771D01*
X205830952Y-147191771D02*
X206069047Y-147191771D01*
X206069047Y-147191771D02*
X206164285Y-147239390D01*
X206164285Y-147239390D02*
X206211904Y-147287009D01*
X206211904Y-147287009D02*
X206259523Y-147382247D01*
X206259523Y-147382247D02*
X206259523Y-147620342D01*
X206259523Y-147620342D02*
X206211904Y-147715580D01*
X206211904Y-147715580D02*
X206164285Y-147763200D01*
X206164285Y-147763200D02*
X206069047Y-147810819D01*
X206069047Y-147810819D02*
X205830952Y-147810819D01*
X205830952Y-147810819D02*
X205735714Y-147763200D01*
X205735714Y-147763200D02*
X205688095Y-147715580D01*
X226388095Y-146810819D02*
X226388095Y-147620342D01*
X226388095Y-147620342D02*
X226435714Y-147715580D01*
X226435714Y-147715580D02*
X226483333Y-147763200D01*
X226483333Y-147763200D02*
X226578571Y-147810819D01*
X226578571Y-147810819D02*
X226769047Y-147810819D01*
X226769047Y-147810819D02*
X226864285Y-147763200D01*
X226864285Y-147763200D02*
X226911904Y-147715580D01*
X226911904Y-147715580D02*
X226959523Y-147620342D01*
X226959523Y-147620342D02*
X226959523Y-146810819D01*
X227864285Y-147144152D02*
X227864285Y-147810819D01*
X227626190Y-146763200D02*
X227388095Y-147477485D01*
X227388095Y-147477485D02*
X228007142Y-147477485D01*
X215538095Y-146810819D02*
X215538095Y-147620342D01*
X215538095Y-147620342D02*
X215585714Y-147715580D01*
X215585714Y-147715580D02*
X215633333Y-147763200D01*
X215633333Y-147763200D02*
X215728571Y-147810819D01*
X215728571Y-147810819D02*
X215919047Y-147810819D01*
X215919047Y-147810819D02*
X216014285Y-147763200D01*
X216014285Y-147763200D02*
X216061904Y-147715580D01*
X216061904Y-147715580D02*
X216109523Y-147620342D01*
X216109523Y-147620342D02*
X216109523Y-146810819D01*
X216490476Y-146810819D02*
X217109523Y-146810819D01*
X217109523Y-146810819D02*
X216776190Y-147191771D01*
X216776190Y-147191771D02*
X216919047Y-147191771D01*
X216919047Y-147191771D02*
X217014285Y-147239390D01*
X217014285Y-147239390D02*
X217061904Y-147287009D01*
X217061904Y-147287009D02*
X217109523Y-147382247D01*
X217109523Y-147382247D02*
X217109523Y-147620342D01*
X217109523Y-147620342D02*
X217061904Y-147715580D01*
X217061904Y-147715580D02*
X217014285Y-147763200D01*
X217014285Y-147763200D02*
X216919047Y-147810819D01*
X216919047Y-147810819D02*
X216633333Y-147810819D01*
X216633333Y-147810819D02*
X216538095Y-147763200D01*
X216538095Y-147763200D02*
X216490476Y-147715580D01*
X64668095Y-59664819D02*
X64668095Y-60474342D01*
X64668095Y-60474342D02*
X64715714Y-60569580D01*
X64715714Y-60569580D02*
X64763333Y-60617200D01*
X64763333Y-60617200D02*
X64858571Y-60664819D01*
X64858571Y-60664819D02*
X65049047Y-60664819D01*
X65049047Y-60664819D02*
X65144285Y-60617200D01*
X65144285Y-60617200D02*
X65191904Y-60569580D01*
X65191904Y-60569580D02*
X65239523Y-60474342D01*
X65239523Y-60474342D02*
X65239523Y-59664819D01*
X65668095Y-59760057D02*
X65715714Y-59712438D01*
X65715714Y-59712438D02*
X65810952Y-59664819D01*
X65810952Y-59664819D02*
X66049047Y-59664819D01*
X66049047Y-59664819D02*
X66144285Y-59712438D01*
X66144285Y-59712438D02*
X66191904Y-59760057D01*
X66191904Y-59760057D02*
X66239523Y-59855295D01*
X66239523Y-59855295D02*
X66239523Y-59950533D01*
X66239523Y-59950533D02*
X66191904Y-60093390D01*
X66191904Y-60093390D02*
X65620476Y-60664819D01*
X65620476Y-60664819D02*
X66239523Y-60664819D01*
X74786667Y-60897200D02*
X74929524Y-60944819D01*
X74929524Y-60944819D02*
X75167619Y-60944819D01*
X75167619Y-60944819D02*
X75262857Y-60897200D01*
X75262857Y-60897200D02*
X75310476Y-60849580D01*
X75310476Y-60849580D02*
X75358095Y-60754342D01*
X75358095Y-60754342D02*
X75358095Y-60659104D01*
X75358095Y-60659104D02*
X75310476Y-60563866D01*
X75310476Y-60563866D02*
X75262857Y-60516247D01*
X75262857Y-60516247D02*
X75167619Y-60468628D01*
X75167619Y-60468628D02*
X74977143Y-60421009D01*
X74977143Y-60421009D02*
X74881905Y-60373390D01*
X74881905Y-60373390D02*
X74834286Y-60325771D01*
X74834286Y-60325771D02*
X74786667Y-60230533D01*
X74786667Y-60230533D02*
X74786667Y-60135295D01*
X74786667Y-60135295D02*
X74834286Y-60040057D01*
X74834286Y-60040057D02*
X74881905Y-59992438D01*
X74881905Y-59992438D02*
X74977143Y-59944819D01*
X74977143Y-59944819D02*
X75215238Y-59944819D01*
X75215238Y-59944819D02*
X75358095Y-59992438D01*
X75691429Y-59944819D02*
X75929524Y-60944819D01*
X75929524Y-60944819D02*
X76120000Y-60230533D01*
X76120000Y-60230533D02*
X76310476Y-60944819D01*
X76310476Y-60944819D02*
X76548572Y-59944819D01*
X77453333Y-60944819D02*
X76881905Y-60944819D01*
X77167619Y-60944819D02*
X77167619Y-59944819D01*
X77167619Y-59944819D02*
X77072381Y-60087676D01*
X77072381Y-60087676D02*
X76977143Y-60182914D01*
X76977143Y-60182914D02*
X76881905Y-60230533D01*
X129064819Y-28582857D02*
X128588628Y-28916190D01*
X129064819Y-29154285D02*
X128064819Y-29154285D01*
X128064819Y-29154285D02*
X128064819Y-28773333D01*
X128064819Y-28773333D02*
X128112438Y-28678095D01*
X128112438Y-28678095D02*
X128160057Y-28630476D01*
X128160057Y-28630476D02*
X128255295Y-28582857D01*
X128255295Y-28582857D02*
X128398152Y-28582857D01*
X128398152Y-28582857D02*
X128493390Y-28630476D01*
X128493390Y-28630476D02*
X128541009Y-28678095D01*
X128541009Y-28678095D02*
X128588628Y-28773333D01*
X128588628Y-28773333D02*
X128588628Y-29154285D01*
X129064819Y-27630476D02*
X129064819Y-28201904D01*
X129064819Y-27916190D02*
X128064819Y-27916190D01*
X128064819Y-27916190D02*
X128207676Y-28011428D01*
X128207676Y-28011428D02*
X128302914Y-28106666D01*
X128302914Y-28106666D02*
X128350533Y-28201904D01*
X128064819Y-26773333D02*
X128064819Y-26963809D01*
X128064819Y-26963809D02*
X128112438Y-27059047D01*
X128112438Y-27059047D02*
X128160057Y-27106666D01*
X128160057Y-27106666D02*
X128302914Y-27201904D01*
X128302914Y-27201904D02*
X128493390Y-27249523D01*
X128493390Y-27249523D02*
X128874342Y-27249523D01*
X128874342Y-27249523D02*
X128969580Y-27201904D01*
X128969580Y-27201904D02*
X129017200Y-27154285D01*
X129017200Y-27154285D02*
X129064819Y-27059047D01*
X129064819Y-27059047D02*
X129064819Y-26868571D01*
X129064819Y-26868571D02*
X129017200Y-26773333D01*
X129017200Y-26773333D02*
X128969580Y-26725714D01*
X128969580Y-26725714D02*
X128874342Y-26678095D01*
X128874342Y-26678095D02*
X128636247Y-26678095D01*
X128636247Y-26678095D02*
X128541009Y-26725714D01*
X128541009Y-26725714D02*
X128493390Y-26773333D01*
X128493390Y-26773333D02*
X128445771Y-26868571D01*
X128445771Y-26868571D02*
X128445771Y-27059047D01*
X128445771Y-27059047D02*
X128493390Y-27154285D01*
X128493390Y-27154285D02*
X128541009Y-27201904D01*
X128541009Y-27201904D02*
X128636247Y-27249523D01*
X125014819Y-28582857D02*
X124538628Y-28916190D01*
X125014819Y-29154285D02*
X124014819Y-29154285D01*
X124014819Y-29154285D02*
X124014819Y-28773333D01*
X124014819Y-28773333D02*
X124062438Y-28678095D01*
X124062438Y-28678095D02*
X124110057Y-28630476D01*
X124110057Y-28630476D02*
X124205295Y-28582857D01*
X124205295Y-28582857D02*
X124348152Y-28582857D01*
X124348152Y-28582857D02*
X124443390Y-28630476D01*
X124443390Y-28630476D02*
X124491009Y-28678095D01*
X124491009Y-28678095D02*
X124538628Y-28773333D01*
X124538628Y-28773333D02*
X124538628Y-29154285D01*
X125014819Y-27630476D02*
X125014819Y-28201904D01*
X125014819Y-27916190D02*
X124014819Y-27916190D01*
X124014819Y-27916190D02*
X124157676Y-28011428D01*
X124157676Y-28011428D02*
X124252914Y-28106666D01*
X124252914Y-28106666D02*
X124300533Y-28201904D01*
X124014819Y-26725714D02*
X124014819Y-27201904D01*
X124014819Y-27201904D02*
X124491009Y-27249523D01*
X124491009Y-27249523D02*
X124443390Y-27201904D01*
X124443390Y-27201904D02*
X124395771Y-27106666D01*
X124395771Y-27106666D02*
X124395771Y-26868571D01*
X124395771Y-26868571D02*
X124443390Y-26773333D01*
X124443390Y-26773333D02*
X124491009Y-26725714D01*
X124491009Y-26725714D02*
X124586247Y-26678095D01*
X124586247Y-26678095D02*
X124824342Y-26678095D01*
X124824342Y-26678095D02*
X124919580Y-26725714D01*
X124919580Y-26725714D02*
X124967200Y-26773333D01*
X124967200Y-26773333D02*
X125014819Y-26868571D01*
X125014819Y-26868571D02*
X125014819Y-27106666D01*
X125014819Y-27106666D02*
X124967200Y-27201904D01*
X124967200Y-27201904D02*
X124919580Y-27249523D01*
X120964819Y-28582857D02*
X120488628Y-28916190D01*
X120964819Y-29154285D02*
X119964819Y-29154285D01*
X119964819Y-29154285D02*
X119964819Y-28773333D01*
X119964819Y-28773333D02*
X120012438Y-28678095D01*
X120012438Y-28678095D02*
X120060057Y-28630476D01*
X120060057Y-28630476D02*
X120155295Y-28582857D01*
X120155295Y-28582857D02*
X120298152Y-28582857D01*
X120298152Y-28582857D02*
X120393390Y-28630476D01*
X120393390Y-28630476D02*
X120441009Y-28678095D01*
X120441009Y-28678095D02*
X120488628Y-28773333D01*
X120488628Y-28773333D02*
X120488628Y-29154285D01*
X120964819Y-27630476D02*
X120964819Y-28201904D01*
X120964819Y-27916190D02*
X119964819Y-27916190D01*
X119964819Y-27916190D02*
X120107676Y-28011428D01*
X120107676Y-28011428D02*
X120202914Y-28106666D01*
X120202914Y-28106666D02*
X120250533Y-28201904D01*
X120298152Y-26773333D02*
X120964819Y-26773333D01*
X119917200Y-27011428D02*
X120631485Y-27249523D01*
X120631485Y-27249523D02*
X120631485Y-26630476D01*
X116914819Y-28582857D02*
X116438628Y-28916190D01*
X116914819Y-29154285D02*
X115914819Y-29154285D01*
X115914819Y-29154285D02*
X115914819Y-28773333D01*
X115914819Y-28773333D02*
X115962438Y-28678095D01*
X115962438Y-28678095D02*
X116010057Y-28630476D01*
X116010057Y-28630476D02*
X116105295Y-28582857D01*
X116105295Y-28582857D02*
X116248152Y-28582857D01*
X116248152Y-28582857D02*
X116343390Y-28630476D01*
X116343390Y-28630476D02*
X116391009Y-28678095D01*
X116391009Y-28678095D02*
X116438628Y-28773333D01*
X116438628Y-28773333D02*
X116438628Y-29154285D01*
X116914819Y-27630476D02*
X116914819Y-28201904D01*
X116914819Y-27916190D02*
X115914819Y-27916190D01*
X115914819Y-27916190D02*
X116057676Y-28011428D01*
X116057676Y-28011428D02*
X116152914Y-28106666D01*
X116152914Y-28106666D02*
X116200533Y-28201904D01*
X115914819Y-27297142D02*
X115914819Y-26678095D01*
X115914819Y-26678095D02*
X116295771Y-27011428D01*
X116295771Y-27011428D02*
X116295771Y-26868571D01*
X116295771Y-26868571D02*
X116343390Y-26773333D01*
X116343390Y-26773333D02*
X116391009Y-26725714D01*
X116391009Y-26725714D02*
X116486247Y-26678095D01*
X116486247Y-26678095D02*
X116724342Y-26678095D01*
X116724342Y-26678095D02*
X116819580Y-26725714D01*
X116819580Y-26725714D02*
X116867200Y-26773333D01*
X116867200Y-26773333D02*
X116914819Y-26868571D01*
X116914819Y-26868571D02*
X116914819Y-27154285D01*
X116914819Y-27154285D02*
X116867200Y-27249523D01*
X116867200Y-27249523D02*
X116819580Y-27297142D01*
X112864819Y-28582857D02*
X112388628Y-28916190D01*
X112864819Y-29154285D02*
X111864819Y-29154285D01*
X111864819Y-29154285D02*
X111864819Y-28773333D01*
X111864819Y-28773333D02*
X111912438Y-28678095D01*
X111912438Y-28678095D02*
X111960057Y-28630476D01*
X111960057Y-28630476D02*
X112055295Y-28582857D01*
X112055295Y-28582857D02*
X112198152Y-28582857D01*
X112198152Y-28582857D02*
X112293390Y-28630476D01*
X112293390Y-28630476D02*
X112341009Y-28678095D01*
X112341009Y-28678095D02*
X112388628Y-28773333D01*
X112388628Y-28773333D02*
X112388628Y-29154285D01*
X112864819Y-27630476D02*
X112864819Y-28201904D01*
X112864819Y-27916190D02*
X111864819Y-27916190D01*
X111864819Y-27916190D02*
X112007676Y-28011428D01*
X112007676Y-28011428D02*
X112102914Y-28106666D01*
X112102914Y-28106666D02*
X112150533Y-28201904D01*
X111960057Y-27249523D02*
X111912438Y-27201904D01*
X111912438Y-27201904D02*
X111864819Y-27106666D01*
X111864819Y-27106666D02*
X111864819Y-26868571D01*
X111864819Y-26868571D02*
X111912438Y-26773333D01*
X111912438Y-26773333D02*
X111960057Y-26725714D01*
X111960057Y-26725714D02*
X112055295Y-26678095D01*
X112055295Y-26678095D02*
X112150533Y-26678095D01*
X112150533Y-26678095D02*
X112293390Y-26725714D01*
X112293390Y-26725714D02*
X112864819Y-27297142D01*
X112864819Y-27297142D02*
X112864819Y-26678095D01*
X108814819Y-28582857D02*
X108338628Y-28916190D01*
X108814819Y-29154285D02*
X107814819Y-29154285D01*
X107814819Y-29154285D02*
X107814819Y-28773333D01*
X107814819Y-28773333D02*
X107862438Y-28678095D01*
X107862438Y-28678095D02*
X107910057Y-28630476D01*
X107910057Y-28630476D02*
X108005295Y-28582857D01*
X108005295Y-28582857D02*
X108148152Y-28582857D01*
X108148152Y-28582857D02*
X108243390Y-28630476D01*
X108243390Y-28630476D02*
X108291009Y-28678095D01*
X108291009Y-28678095D02*
X108338628Y-28773333D01*
X108338628Y-28773333D02*
X108338628Y-29154285D01*
X108814819Y-27630476D02*
X108814819Y-28201904D01*
X108814819Y-27916190D02*
X107814819Y-27916190D01*
X107814819Y-27916190D02*
X107957676Y-28011428D01*
X107957676Y-28011428D02*
X108052914Y-28106666D01*
X108052914Y-28106666D02*
X108100533Y-28201904D01*
X108814819Y-26678095D02*
X108814819Y-27249523D01*
X108814819Y-26963809D02*
X107814819Y-26963809D01*
X107814819Y-26963809D02*
X107957676Y-27059047D01*
X107957676Y-27059047D02*
X108052914Y-27154285D01*
X108052914Y-27154285D02*
X108100533Y-27249523D01*
X104764819Y-28582857D02*
X104288628Y-28916190D01*
X104764819Y-29154285D02*
X103764819Y-29154285D01*
X103764819Y-29154285D02*
X103764819Y-28773333D01*
X103764819Y-28773333D02*
X103812438Y-28678095D01*
X103812438Y-28678095D02*
X103860057Y-28630476D01*
X103860057Y-28630476D02*
X103955295Y-28582857D01*
X103955295Y-28582857D02*
X104098152Y-28582857D01*
X104098152Y-28582857D02*
X104193390Y-28630476D01*
X104193390Y-28630476D02*
X104241009Y-28678095D01*
X104241009Y-28678095D02*
X104288628Y-28773333D01*
X104288628Y-28773333D02*
X104288628Y-29154285D01*
X104764819Y-27630476D02*
X104764819Y-28201904D01*
X104764819Y-27916190D02*
X103764819Y-27916190D01*
X103764819Y-27916190D02*
X103907676Y-28011428D01*
X103907676Y-28011428D02*
X104002914Y-28106666D01*
X104002914Y-28106666D02*
X104050533Y-28201904D01*
X103764819Y-27011428D02*
X103764819Y-26916190D01*
X103764819Y-26916190D02*
X103812438Y-26820952D01*
X103812438Y-26820952D02*
X103860057Y-26773333D01*
X103860057Y-26773333D02*
X103955295Y-26725714D01*
X103955295Y-26725714D02*
X104145771Y-26678095D01*
X104145771Y-26678095D02*
X104383866Y-26678095D01*
X104383866Y-26678095D02*
X104574342Y-26725714D01*
X104574342Y-26725714D02*
X104669580Y-26773333D01*
X104669580Y-26773333D02*
X104717200Y-26820952D01*
X104717200Y-26820952D02*
X104764819Y-26916190D01*
X104764819Y-26916190D02*
X104764819Y-27011428D01*
X104764819Y-27011428D02*
X104717200Y-27106666D01*
X104717200Y-27106666D02*
X104669580Y-27154285D01*
X104669580Y-27154285D02*
X104574342Y-27201904D01*
X104574342Y-27201904D02*
X104383866Y-27249523D01*
X104383866Y-27249523D02*
X104145771Y-27249523D01*
X104145771Y-27249523D02*
X103955295Y-27201904D01*
X103955295Y-27201904D02*
X103860057Y-27154285D01*
X103860057Y-27154285D02*
X103812438Y-27106666D01*
X103812438Y-27106666D02*
X103764819Y-27011428D01*
X100714819Y-28106666D02*
X100238628Y-28439999D01*
X100714819Y-28678094D02*
X99714819Y-28678094D01*
X99714819Y-28678094D02*
X99714819Y-28297142D01*
X99714819Y-28297142D02*
X99762438Y-28201904D01*
X99762438Y-28201904D02*
X99810057Y-28154285D01*
X99810057Y-28154285D02*
X99905295Y-28106666D01*
X99905295Y-28106666D02*
X100048152Y-28106666D01*
X100048152Y-28106666D02*
X100143390Y-28154285D01*
X100143390Y-28154285D02*
X100191009Y-28201904D01*
X100191009Y-28201904D02*
X100238628Y-28297142D01*
X100238628Y-28297142D02*
X100238628Y-28678094D01*
X100714819Y-27630475D02*
X100714819Y-27439999D01*
X100714819Y-27439999D02*
X100667200Y-27344761D01*
X100667200Y-27344761D02*
X100619580Y-27297142D01*
X100619580Y-27297142D02*
X100476723Y-27201904D01*
X100476723Y-27201904D02*
X100286247Y-27154285D01*
X100286247Y-27154285D02*
X99905295Y-27154285D01*
X99905295Y-27154285D02*
X99810057Y-27201904D01*
X99810057Y-27201904D02*
X99762438Y-27249523D01*
X99762438Y-27249523D02*
X99714819Y-27344761D01*
X99714819Y-27344761D02*
X99714819Y-27535237D01*
X99714819Y-27535237D02*
X99762438Y-27630475D01*
X99762438Y-27630475D02*
X99810057Y-27678094D01*
X99810057Y-27678094D02*
X99905295Y-27725713D01*
X99905295Y-27725713D02*
X100143390Y-27725713D01*
X100143390Y-27725713D02*
X100238628Y-27678094D01*
X100238628Y-27678094D02*
X100286247Y-27630475D01*
X100286247Y-27630475D02*
X100333866Y-27535237D01*
X100333866Y-27535237D02*
X100333866Y-27344761D01*
X100333866Y-27344761D02*
X100286247Y-27249523D01*
X100286247Y-27249523D02*
X100238628Y-27201904D01*
X100238628Y-27201904D02*
X100143390Y-27154285D01*
X96664819Y-28106666D02*
X96188628Y-28439999D01*
X96664819Y-28678094D02*
X95664819Y-28678094D01*
X95664819Y-28678094D02*
X95664819Y-28297142D01*
X95664819Y-28297142D02*
X95712438Y-28201904D01*
X95712438Y-28201904D02*
X95760057Y-28154285D01*
X95760057Y-28154285D02*
X95855295Y-28106666D01*
X95855295Y-28106666D02*
X95998152Y-28106666D01*
X95998152Y-28106666D02*
X96093390Y-28154285D01*
X96093390Y-28154285D02*
X96141009Y-28201904D01*
X96141009Y-28201904D02*
X96188628Y-28297142D01*
X96188628Y-28297142D02*
X96188628Y-28678094D01*
X96093390Y-27535237D02*
X96045771Y-27630475D01*
X96045771Y-27630475D02*
X95998152Y-27678094D01*
X95998152Y-27678094D02*
X95902914Y-27725713D01*
X95902914Y-27725713D02*
X95855295Y-27725713D01*
X95855295Y-27725713D02*
X95760057Y-27678094D01*
X95760057Y-27678094D02*
X95712438Y-27630475D01*
X95712438Y-27630475D02*
X95664819Y-27535237D01*
X95664819Y-27535237D02*
X95664819Y-27344761D01*
X95664819Y-27344761D02*
X95712438Y-27249523D01*
X95712438Y-27249523D02*
X95760057Y-27201904D01*
X95760057Y-27201904D02*
X95855295Y-27154285D01*
X95855295Y-27154285D02*
X95902914Y-27154285D01*
X95902914Y-27154285D02*
X95998152Y-27201904D01*
X95998152Y-27201904D02*
X96045771Y-27249523D01*
X96045771Y-27249523D02*
X96093390Y-27344761D01*
X96093390Y-27344761D02*
X96093390Y-27535237D01*
X96093390Y-27535237D02*
X96141009Y-27630475D01*
X96141009Y-27630475D02*
X96188628Y-27678094D01*
X96188628Y-27678094D02*
X96283866Y-27725713D01*
X96283866Y-27725713D02*
X96474342Y-27725713D01*
X96474342Y-27725713D02*
X96569580Y-27678094D01*
X96569580Y-27678094D02*
X96617200Y-27630475D01*
X96617200Y-27630475D02*
X96664819Y-27535237D01*
X96664819Y-27535237D02*
X96664819Y-27344761D01*
X96664819Y-27344761D02*
X96617200Y-27249523D01*
X96617200Y-27249523D02*
X96569580Y-27201904D01*
X96569580Y-27201904D02*
X96474342Y-27154285D01*
X96474342Y-27154285D02*
X96283866Y-27154285D01*
X96283866Y-27154285D02*
X96188628Y-27201904D01*
X96188628Y-27201904D02*
X96141009Y-27249523D01*
X96141009Y-27249523D02*
X96093390Y-27344761D01*
X92614819Y-28106666D02*
X92138628Y-28439999D01*
X92614819Y-28678094D02*
X91614819Y-28678094D01*
X91614819Y-28678094D02*
X91614819Y-28297142D01*
X91614819Y-28297142D02*
X91662438Y-28201904D01*
X91662438Y-28201904D02*
X91710057Y-28154285D01*
X91710057Y-28154285D02*
X91805295Y-28106666D01*
X91805295Y-28106666D02*
X91948152Y-28106666D01*
X91948152Y-28106666D02*
X92043390Y-28154285D01*
X92043390Y-28154285D02*
X92091009Y-28201904D01*
X92091009Y-28201904D02*
X92138628Y-28297142D01*
X92138628Y-28297142D02*
X92138628Y-28678094D01*
X91614819Y-27773332D02*
X91614819Y-27106666D01*
X91614819Y-27106666D02*
X92614819Y-27535237D01*
X88564819Y-28106666D02*
X88088628Y-28439999D01*
X88564819Y-28678094D02*
X87564819Y-28678094D01*
X87564819Y-28678094D02*
X87564819Y-28297142D01*
X87564819Y-28297142D02*
X87612438Y-28201904D01*
X87612438Y-28201904D02*
X87660057Y-28154285D01*
X87660057Y-28154285D02*
X87755295Y-28106666D01*
X87755295Y-28106666D02*
X87898152Y-28106666D01*
X87898152Y-28106666D02*
X87993390Y-28154285D01*
X87993390Y-28154285D02*
X88041009Y-28201904D01*
X88041009Y-28201904D02*
X88088628Y-28297142D01*
X88088628Y-28297142D02*
X88088628Y-28678094D01*
X87564819Y-27249523D02*
X87564819Y-27439999D01*
X87564819Y-27439999D02*
X87612438Y-27535237D01*
X87612438Y-27535237D02*
X87660057Y-27582856D01*
X87660057Y-27582856D02*
X87802914Y-27678094D01*
X87802914Y-27678094D02*
X87993390Y-27725713D01*
X87993390Y-27725713D02*
X88374342Y-27725713D01*
X88374342Y-27725713D02*
X88469580Y-27678094D01*
X88469580Y-27678094D02*
X88517200Y-27630475D01*
X88517200Y-27630475D02*
X88564819Y-27535237D01*
X88564819Y-27535237D02*
X88564819Y-27344761D01*
X88564819Y-27344761D02*
X88517200Y-27249523D01*
X88517200Y-27249523D02*
X88469580Y-27201904D01*
X88469580Y-27201904D02*
X88374342Y-27154285D01*
X88374342Y-27154285D02*
X88136247Y-27154285D01*
X88136247Y-27154285D02*
X88041009Y-27201904D01*
X88041009Y-27201904D02*
X87993390Y-27249523D01*
X87993390Y-27249523D02*
X87945771Y-27344761D01*
X87945771Y-27344761D02*
X87945771Y-27535237D01*
X87945771Y-27535237D02*
X87993390Y-27630475D01*
X87993390Y-27630475D02*
X88041009Y-27678094D01*
X88041009Y-27678094D02*
X88136247Y-27725713D01*
X84514819Y-28106666D02*
X84038628Y-28439999D01*
X84514819Y-28678094D02*
X83514819Y-28678094D01*
X83514819Y-28678094D02*
X83514819Y-28297142D01*
X83514819Y-28297142D02*
X83562438Y-28201904D01*
X83562438Y-28201904D02*
X83610057Y-28154285D01*
X83610057Y-28154285D02*
X83705295Y-28106666D01*
X83705295Y-28106666D02*
X83848152Y-28106666D01*
X83848152Y-28106666D02*
X83943390Y-28154285D01*
X83943390Y-28154285D02*
X83991009Y-28201904D01*
X83991009Y-28201904D02*
X84038628Y-28297142D01*
X84038628Y-28297142D02*
X84038628Y-28678094D01*
X83514819Y-27201904D02*
X83514819Y-27678094D01*
X83514819Y-27678094D02*
X83991009Y-27725713D01*
X83991009Y-27725713D02*
X83943390Y-27678094D01*
X83943390Y-27678094D02*
X83895771Y-27582856D01*
X83895771Y-27582856D02*
X83895771Y-27344761D01*
X83895771Y-27344761D02*
X83943390Y-27249523D01*
X83943390Y-27249523D02*
X83991009Y-27201904D01*
X83991009Y-27201904D02*
X84086247Y-27154285D01*
X84086247Y-27154285D02*
X84324342Y-27154285D01*
X84324342Y-27154285D02*
X84419580Y-27201904D01*
X84419580Y-27201904D02*
X84467200Y-27249523D01*
X84467200Y-27249523D02*
X84514819Y-27344761D01*
X84514819Y-27344761D02*
X84514819Y-27582856D01*
X84514819Y-27582856D02*
X84467200Y-27678094D01*
X84467200Y-27678094D02*
X84419580Y-27725713D01*
X80464819Y-28106666D02*
X79988628Y-28439999D01*
X80464819Y-28678094D02*
X79464819Y-28678094D01*
X79464819Y-28678094D02*
X79464819Y-28297142D01*
X79464819Y-28297142D02*
X79512438Y-28201904D01*
X79512438Y-28201904D02*
X79560057Y-28154285D01*
X79560057Y-28154285D02*
X79655295Y-28106666D01*
X79655295Y-28106666D02*
X79798152Y-28106666D01*
X79798152Y-28106666D02*
X79893390Y-28154285D01*
X79893390Y-28154285D02*
X79941009Y-28201904D01*
X79941009Y-28201904D02*
X79988628Y-28297142D01*
X79988628Y-28297142D02*
X79988628Y-28678094D01*
X79798152Y-27249523D02*
X80464819Y-27249523D01*
X79417200Y-27487618D02*
X80131485Y-27725713D01*
X80131485Y-27725713D02*
X80131485Y-27106666D01*
X76414819Y-28106666D02*
X75938628Y-28439999D01*
X76414819Y-28678094D02*
X75414819Y-28678094D01*
X75414819Y-28678094D02*
X75414819Y-28297142D01*
X75414819Y-28297142D02*
X75462438Y-28201904D01*
X75462438Y-28201904D02*
X75510057Y-28154285D01*
X75510057Y-28154285D02*
X75605295Y-28106666D01*
X75605295Y-28106666D02*
X75748152Y-28106666D01*
X75748152Y-28106666D02*
X75843390Y-28154285D01*
X75843390Y-28154285D02*
X75891009Y-28201904D01*
X75891009Y-28201904D02*
X75938628Y-28297142D01*
X75938628Y-28297142D02*
X75938628Y-28678094D01*
X75414819Y-27773332D02*
X75414819Y-27154285D01*
X75414819Y-27154285D02*
X75795771Y-27487618D01*
X75795771Y-27487618D02*
X75795771Y-27344761D01*
X75795771Y-27344761D02*
X75843390Y-27249523D01*
X75843390Y-27249523D02*
X75891009Y-27201904D01*
X75891009Y-27201904D02*
X75986247Y-27154285D01*
X75986247Y-27154285D02*
X76224342Y-27154285D01*
X76224342Y-27154285D02*
X76319580Y-27201904D01*
X76319580Y-27201904D02*
X76367200Y-27249523D01*
X76367200Y-27249523D02*
X76414819Y-27344761D01*
X76414819Y-27344761D02*
X76414819Y-27630475D01*
X76414819Y-27630475D02*
X76367200Y-27725713D01*
X76367200Y-27725713D02*
X76319580Y-27773332D01*
X72364819Y-28106666D02*
X71888628Y-28439999D01*
X72364819Y-28678094D02*
X71364819Y-28678094D01*
X71364819Y-28678094D02*
X71364819Y-28297142D01*
X71364819Y-28297142D02*
X71412438Y-28201904D01*
X71412438Y-28201904D02*
X71460057Y-28154285D01*
X71460057Y-28154285D02*
X71555295Y-28106666D01*
X71555295Y-28106666D02*
X71698152Y-28106666D01*
X71698152Y-28106666D02*
X71793390Y-28154285D01*
X71793390Y-28154285D02*
X71841009Y-28201904D01*
X71841009Y-28201904D02*
X71888628Y-28297142D01*
X71888628Y-28297142D02*
X71888628Y-28678094D01*
X71460057Y-27725713D02*
X71412438Y-27678094D01*
X71412438Y-27678094D02*
X71364819Y-27582856D01*
X71364819Y-27582856D02*
X71364819Y-27344761D01*
X71364819Y-27344761D02*
X71412438Y-27249523D01*
X71412438Y-27249523D02*
X71460057Y-27201904D01*
X71460057Y-27201904D02*
X71555295Y-27154285D01*
X71555295Y-27154285D02*
X71650533Y-27154285D01*
X71650533Y-27154285D02*
X71793390Y-27201904D01*
X71793390Y-27201904D02*
X72364819Y-27773332D01*
X72364819Y-27773332D02*
X72364819Y-27154285D01*
X68314819Y-28106666D02*
X67838628Y-28439999D01*
X68314819Y-28678094D02*
X67314819Y-28678094D01*
X67314819Y-28678094D02*
X67314819Y-28297142D01*
X67314819Y-28297142D02*
X67362438Y-28201904D01*
X67362438Y-28201904D02*
X67410057Y-28154285D01*
X67410057Y-28154285D02*
X67505295Y-28106666D01*
X67505295Y-28106666D02*
X67648152Y-28106666D01*
X67648152Y-28106666D02*
X67743390Y-28154285D01*
X67743390Y-28154285D02*
X67791009Y-28201904D01*
X67791009Y-28201904D02*
X67838628Y-28297142D01*
X67838628Y-28297142D02*
X67838628Y-28678094D01*
X68314819Y-27154285D02*
X68314819Y-27725713D01*
X68314819Y-27439999D02*
X67314819Y-27439999D01*
X67314819Y-27439999D02*
X67457676Y-27535237D01*
X67457676Y-27535237D02*
X67552914Y-27630475D01*
X67552914Y-27630475D02*
X67600533Y-27725713D01*
X179429676Y-15194400D02*
X179429676Y-14194400D01*
X179429676Y-14670590D02*
X180001104Y-14670590D01*
X180001104Y-15194400D02*
X180001104Y-14194400D01*
X180905866Y-14527733D02*
X180905866Y-15194400D01*
X180667771Y-14146781D02*
X180429676Y-14861066D01*
X180429676Y-14861066D02*
X181048723Y-14861066D01*
X47135095Y-15074819D02*
X47135095Y-14074819D01*
X47135095Y-14551009D02*
X47706523Y-14551009D01*
X47706523Y-15074819D02*
X47706523Y-14074819D01*
X48087476Y-14074819D02*
X48706523Y-14074819D01*
X48706523Y-14074819D02*
X48373190Y-14455771D01*
X48373190Y-14455771D02*
X48516047Y-14455771D01*
X48516047Y-14455771D02*
X48611285Y-14503390D01*
X48611285Y-14503390D02*
X48658904Y-14551009D01*
X48658904Y-14551009D02*
X48706523Y-14646247D01*
X48706523Y-14646247D02*
X48706523Y-14884342D01*
X48706523Y-14884342D02*
X48658904Y-14979580D01*
X48658904Y-14979580D02*
X48611285Y-15027200D01*
X48611285Y-15027200D02*
X48516047Y-15074819D01*
X48516047Y-15074819D02*
X48230333Y-15074819D01*
X48230333Y-15074819D02*
X48135095Y-15027200D01*
X48135095Y-15027200D02*
X48087476Y-14979580D01*
X179285095Y-172674819D02*
X179285095Y-171674819D01*
X179285095Y-172151009D02*
X179856523Y-172151009D01*
X179856523Y-172674819D02*
X179856523Y-171674819D01*
X180285095Y-171770057D02*
X180332714Y-171722438D01*
X180332714Y-171722438D02*
X180427952Y-171674819D01*
X180427952Y-171674819D02*
X180666047Y-171674819D01*
X180666047Y-171674819D02*
X180761285Y-171722438D01*
X180761285Y-171722438D02*
X180808904Y-171770057D01*
X180808904Y-171770057D02*
X180856523Y-171865295D01*
X180856523Y-171865295D02*
X180856523Y-171960533D01*
X180856523Y-171960533D02*
X180808904Y-172103390D01*
X180808904Y-172103390D02*
X180237476Y-172674819D01*
X180237476Y-172674819D02*
X180856523Y-172674819D01*
X24190514Y-172594400D02*
X24190514Y-171594400D01*
X24190514Y-172070590D02*
X24761942Y-172070590D01*
X24761942Y-172594400D02*
X24761942Y-171594400D01*
X25761942Y-172594400D02*
X25190514Y-172594400D01*
X25476228Y-172594400D02*
X25476228Y-171594400D01*
X25476228Y-171594400D02*
X25380990Y-171737257D01*
X25380990Y-171737257D02*
X25285752Y-171832495D01*
X25285752Y-171832495D02*
X25190514Y-171880114D01*
X63193108Y-72099580D02*
X63145489Y-72147200D01*
X63145489Y-72147200D02*
X63002632Y-72194819D01*
X63002632Y-72194819D02*
X62907394Y-72194819D01*
X62907394Y-72194819D02*
X62764537Y-72147200D01*
X62764537Y-72147200D02*
X62669299Y-72051961D01*
X62669299Y-72051961D02*
X62621680Y-71956723D01*
X62621680Y-71956723D02*
X62574061Y-71766247D01*
X62574061Y-71766247D02*
X62574061Y-71623390D01*
X62574061Y-71623390D02*
X62621680Y-71432914D01*
X62621680Y-71432914D02*
X62669299Y-71337676D01*
X62669299Y-71337676D02*
X62764537Y-71242438D01*
X62764537Y-71242438D02*
X62907394Y-71194819D01*
X62907394Y-71194819D02*
X63002632Y-71194819D01*
X63002632Y-71194819D02*
X63145489Y-71242438D01*
X63145489Y-71242438D02*
X63193108Y-71290057D01*
X64145489Y-72194819D02*
X63574061Y-72194819D01*
X63859775Y-72194819D02*
X63859775Y-71194819D01*
X63859775Y-71194819D02*
X63764537Y-71337676D01*
X63764537Y-71337676D02*
X63669299Y-71432914D01*
X63669299Y-71432914D02*
X63574061Y-71480533D01*
D12*
%TO.C,Y1*%
X167495000Y-101345000D02*
X173745000Y-101345000D01*
X167495000Y-96295000D02*
X173745000Y-96295000D01*
X167495000Y-96295000D02*
G75*
G03*
X167495000Y-101345000I0J-2525000D01*
G01*
X173745000Y-101345000D02*
G75*
G03*
X173745000Y-96295000I0J2525000D01*
G01*
%TO.C,U16*%
X161400000Y-120710000D02*
X161400000Y-69790000D01*
X148480000Y-120710000D02*
X161400000Y-120710000D01*
X148480000Y-69790000D02*
X148480000Y-120710000D01*
X161400000Y-69790000D02*
X155940000Y-69790000D01*
X153940000Y-69790000D02*
X148480000Y-69790000D01*
X153940000Y-69790000D02*
G75*
G03*
X155940000Y-69790000I1000000J0D01*
G01*
D13*
%TO.C,U1*%
X84872000Y-65600000D02*
X84872000Y-101160000D01*
X84872000Y-101160000D02*
X117892000Y-101160000D01*
X117892000Y-101160000D02*
X120432000Y-98620000D01*
X120432000Y-65600000D02*
X84872000Y-65600000D01*
X120432000Y-98620000D02*
X120432000Y-65600000D01*
D12*
%TO.C,R18*%
X174840000Y-93470000D02*
X174070000Y-93470000D01*
X166760000Y-93470000D02*
X167530000Y-93470000D01*
X167530000Y-92100000D02*
X167530000Y-94840000D01*
X174070000Y-94840000D02*
X174070000Y-92100000D01*
X167530000Y-94840000D02*
X174070000Y-94840000D01*
X174070000Y-92100000D02*
X167530000Y-92100000D01*
%TO.C,J4*%
X169790000Y-110880000D02*
X172450000Y-110880000D01*
X169790000Y-105740000D02*
X169790000Y-110880000D01*
X169790000Y-104470000D02*
X169790000Y-103140000D01*
X172450000Y-105740000D02*
X172450000Y-110880000D01*
X169790000Y-103140000D02*
X171120000Y-103140000D01*
X169790000Y-105740000D02*
X172450000Y-105740000D01*
%TO.C,J3*%
X165140000Y-110880000D02*
X167800000Y-110880000D01*
X165140000Y-105740000D02*
X165140000Y-110880000D01*
X165140000Y-104470000D02*
X165140000Y-103140000D01*
X167800000Y-105740000D02*
X167800000Y-110880000D01*
X165140000Y-103140000D02*
X166470000Y-103140000D01*
X165140000Y-105740000D02*
X167800000Y-105740000D01*
%TO.C,J2*%
X169790000Y-72640000D02*
X169790000Y-85400000D01*
X169790000Y-71370000D02*
X169790000Y-70040000D01*
X169790000Y-70040000D02*
X171120000Y-70040000D01*
X169790000Y-72640000D02*
X172450000Y-72640000D01*
X169790000Y-85400000D02*
X172450000Y-85400000D01*
X172450000Y-72640000D02*
X172450000Y-85400000D01*
%TO.C,J1*%
X165140000Y-72640000D02*
X167800000Y-72640000D01*
X165140000Y-90480000D02*
X167800000Y-90480000D01*
X165140000Y-72640000D02*
X165140000Y-90480000D01*
X165140000Y-71370000D02*
X165140000Y-70040000D01*
X167800000Y-72640000D02*
X167800000Y-90480000D01*
X165140000Y-70040000D02*
X166470000Y-70040000D01*
%TO.C,C3*%
X165950000Y-118075000D02*
X165950000Y-118090000D01*
X170490000Y-115950000D02*
X170490000Y-115965000D01*
X165950000Y-115950000D02*
X165950000Y-115965000D01*
X170490000Y-118075000D02*
X170490000Y-118090000D01*
X165950000Y-115950000D02*
X170490000Y-115950000D01*
X165950000Y-118090000D02*
X170490000Y-118090000D01*
%TO.C,C2*%
X165950000Y-114625000D02*
X165950000Y-114640000D01*
X170490000Y-112500000D02*
X170490000Y-112515000D01*
X165950000Y-112500000D02*
X165950000Y-112515000D01*
X170490000Y-114625000D02*
X170490000Y-114640000D01*
X165950000Y-112500000D02*
X170490000Y-112500000D01*
X165950000Y-114640000D02*
X170490000Y-114640000D01*
%TO.C,U15*%
X51110000Y-85865000D02*
X53060000Y-85865000D01*
X51110000Y-94735000D02*
X53060000Y-94735000D01*
X51110000Y-85865000D02*
X47660000Y-85865000D01*
X51110000Y-94735000D02*
X49160000Y-94735000D01*
%TO.C,U14*%
X28705000Y-86120000D02*
X27705000Y-87120000D01*
X45955000Y-106920000D02*
X45955000Y-86120000D01*
X45955000Y-86120000D02*
X37830000Y-86120000D01*
X27705000Y-87120000D02*
X27705000Y-106920000D01*
X27705000Y-106920000D02*
X45955000Y-106920000D01*
X35830000Y-86120000D02*
X28705000Y-86120000D01*
%TO.C,R17*%
X37470000Y-109870000D02*
X36700000Y-109870000D01*
X29390000Y-109870000D02*
X30160000Y-109870000D01*
X30160000Y-108500000D02*
X30160000Y-111240000D01*
X36700000Y-111240000D02*
X36700000Y-108500000D01*
X30160000Y-111240000D02*
X36700000Y-111240000D01*
X36700000Y-108500000D02*
X30160000Y-108500000D01*
%TO.C,X1*%
X60670000Y-47640000D02*
X60670000Y-59790000D01*
X80820000Y-46890000D02*
X61420000Y-46890000D01*
X81570000Y-59040000D02*
X81570000Y-47640000D01*
X60670000Y-59790000D02*
X80820000Y-59790000D01*
X80820000Y-59790000D02*
G75*
G03*
X81570000Y-59040000I0J750000D01*
G01*
X61420000Y-46890000D02*
G75*
G03*
X60670000Y-47640000I0J-750000D01*
G01*
X81570000Y-47640000D02*
G75*
G03*
X80820000Y-46890000I-750000J0D01*
G01*
%TO.C,U22*%
X19380000Y-77560000D02*
X24680000Y-77560000D01*
X19380000Y-46960000D02*
X19380000Y-77560000D01*
X24680000Y-77560000D02*
X24680000Y-46960000D01*
X24680000Y-46960000D02*
X23030000Y-46960000D01*
X21030000Y-46960000D02*
X19380000Y-46960000D01*
X21030000Y-46960000D02*
G75*
G03*
X23030000Y-46960000I1000000J0D01*
G01*
%TO.C,U13*%
X171560000Y-140910000D02*
X166100000Y-140910000D01*
X171560000Y-181670000D02*
X171560000Y-140910000D01*
X158640000Y-140910000D02*
X158640000Y-181670000D01*
X164100000Y-140910000D02*
X158640000Y-140910000D01*
X158640000Y-181670000D02*
X171560000Y-181670000D01*
X164100000Y-140910000D02*
G75*
G03*
X166100000Y-140910000I1000000J0D01*
G01*
%TO.C,U12*%
X153780000Y-140910000D02*
X148320000Y-140910000D01*
X153780000Y-181670000D02*
X153780000Y-140910000D01*
X140860000Y-140910000D02*
X140860000Y-181670000D01*
X146320000Y-140910000D02*
X140860000Y-140910000D01*
X140860000Y-181670000D02*
X153780000Y-181670000D01*
X146320000Y-140910000D02*
G75*
G03*
X148320000Y-140910000I1000000J0D01*
G01*
%TO.C,U11*%
X136000000Y-140910000D02*
X130540000Y-140910000D01*
X136000000Y-181670000D02*
X136000000Y-140910000D01*
X123080000Y-140910000D02*
X123080000Y-181670000D01*
X128540000Y-140910000D02*
X123080000Y-140910000D01*
X123080000Y-181670000D02*
X136000000Y-181670000D01*
X128540000Y-140910000D02*
G75*
G03*
X130540000Y-140910000I1000000J0D01*
G01*
%TO.C,U10*%
X118112000Y-140966000D02*
X112652000Y-140966000D01*
X118112000Y-181726000D02*
X118112000Y-140966000D01*
X105192000Y-140966000D02*
X105192000Y-181726000D01*
X110652000Y-140966000D02*
X105192000Y-140966000D01*
X105192000Y-181726000D02*
X118112000Y-181726000D01*
X110652000Y-140966000D02*
G75*
G03*
X112652000Y-140966000I1000000J0D01*
G01*
%TO.C,U9*%
X98408000Y-140910000D02*
X92948000Y-140910000D01*
X98408000Y-181670000D02*
X98408000Y-140910000D01*
X85488000Y-140910000D02*
X85488000Y-181670000D01*
X90948000Y-140910000D02*
X85488000Y-140910000D01*
X85488000Y-181670000D02*
X98408000Y-181670000D01*
X90948000Y-140910000D02*
G75*
G03*
X92948000Y-140910000I1000000J0D01*
G01*
%TO.C,U8*%
X80628000Y-140910000D02*
X75168000Y-140910000D01*
X80628000Y-181670000D02*
X80628000Y-140910000D01*
X67708000Y-140910000D02*
X67708000Y-181670000D01*
X73168000Y-140910000D02*
X67708000Y-140910000D01*
X67708000Y-181670000D02*
X80628000Y-181670000D01*
X73168000Y-140910000D02*
G75*
G03*
X75168000Y-140910000I1000000J0D01*
G01*
%TO.C,U7*%
X62912000Y-140966000D02*
X57452000Y-140966000D01*
X62912000Y-181726000D02*
X62912000Y-140966000D01*
X49992000Y-140966000D02*
X49992000Y-181726000D01*
X55452000Y-140966000D02*
X49992000Y-140966000D01*
X49992000Y-181726000D02*
X62912000Y-181726000D01*
X55452000Y-140966000D02*
G75*
G03*
X57452000Y-140966000I1000000J0D01*
G01*
%TO.C,U6*%
X37862000Y-140966000D02*
G75*
G03*
X39862000Y-140966000I1000000J0D01*
G01*
X32402000Y-181726000D02*
X45322000Y-181726000D01*
X37862000Y-140966000D02*
X32402000Y-140966000D01*
X32402000Y-140966000D02*
X32402000Y-181726000D01*
X45322000Y-181726000D02*
X45322000Y-140966000D01*
X45322000Y-140966000D02*
X39862000Y-140966000D01*
%TO.C,U5*%
X35530000Y-46960000D02*
X33880000Y-46960000D01*
X30230000Y-46960000D02*
X30230000Y-67400000D01*
X35530000Y-67400000D02*
X35530000Y-46960000D01*
X30230000Y-67400000D02*
X35530000Y-67400000D01*
X31880000Y-46960000D02*
X30230000Y-46960000D01*
X31880000Y-46960000D02*
G75*
G03*
X33880000Y-46960000I1000000J0D01*
G01*
%TO.C,U4*%
X51930000Y-46960000D02*
X51930000Y-64860000D01*
X57230000Y-46960000D02*
X55580000Y-46960000D01*
X51930000Y-64860000D02*
X57230000Y-64860000D01*
X57230000Y-64860000D02*
X57230000Y-46960000D01*
X53580000Y-46960000D02*
X51930000Y-46960000D01*
X53580000Y-46960000D02*
G75*
G03*
X55580000Y-46960000I1000000J0D01*
G01*
%TO.C,U3*%
X41080000Y-46960000D02*
X41080000Y-64860000D01*
X46380000Y-46960000D02*
X44730000Y-46960000D01*
X41080000Y-64860000D02*
X46380000Y-64860000D01*
X46380000Y-64860000D02*
X46380000Y-46960000D01*
X42730000Y-46960000D02*
X41080000Y-46960000D01*
X42730000Y-46960000D02*
G75*
G03*
X44730000Y-46960000I1000000J0D01*
G01*
%TO.C,U2*%
X68080000Y-61210000D02*
X66430000Y-61210000D01*
X62780000Y-61210000D02*
X62780000Y-71490000D01*
X68080000Y-71490000D02*
X68080000Y-61210000D01*
X64430000Y-61210000D02*
X62780000Y-61210000D01*
X62780000Y-71490000D02*
X68080000Y-71490000D01*
X64430000Y-61210000D02*
G75*
G03*
X66430000Y-61210000I1000000J0D01*
G01*
%TO.C,SW1*%
X79620000Y-65490000D02*
X79620000Y-63990000D01*
X78370000Y-61490000D02*
X73870000Y-61490000D01*
X72620000Y-63990000D02*
X72620000Y-65490000D01*
X73870000Y-67990000D02*
X78370000Y-67990000D01*
%TO.C,R16*%
X130980000Y-23900000D02*
X130980000Y-24670000D01*
X130980000Y-31980000D02*
X130980000Y-31210000D01*
X129610000Y-31210000D02*
X132350000Y-31210000D01*
X132350000Y-24670000D02*
X129610000Y-24670000D01*
X132350000Y-31210000D02*
X132350000Y-24670000D01*
X129610000Y-24670000D02*
X129610000Y-31210000D01*
%TO.C,R15*%
X126930000Y-23900000D02*
X126930000Y-24670000D01*
X126930000Y-31980000D02*
X126930000Y-31210000D01*
X125560000Y-31210000D02*
X128300000Y-31210000D01*
X128300000Y-24670000D02*
X125560000Y-24670000D01*
X128300000Y-31210000D02*
X128300000Y-24670000D01*
X125560000Y-24670000D02*
X125560000Y-31210000D01*
%TO.C,R14*%
X122880000Y-23900000D02*
X122880000Y-24670000D01*
X122880000Y-31980000D02*
X122880000Y-31210000D01*
X121510000Y-31210000D02*
X124250000Y-31210000D01*
X124250000Y-24670000D02*
X121510000Y-24670000D01*
X124250000Y-31210000D02*
X124250000Y-24670000D01*
X121510000Y-24670000D02*
X121510000Y-31210000D01*
%TO.C,R13*%
X118830000Y-23900000D02*
X118830000Y-24670000D01*
X118830000Y-31980000D02*
X118830000Y-31210000D01*
X117460000Y-31210000D02*
X120200000Y-31210000D01*
X120200000Y-24670000D02*
X117460000Y-24670000D01*
X120200000Y-31210000D02*
X120200000Y-24670000D01*
X117460000Y-24670000D02*
X117460000Y-31210000D01*
%TO.C,R12*%
X114780000Y-23900000D02*
X114780000Y-24670000D01*
X114780000Y-31980000D02*
X114780000Y-31210000D01*
X113410000Y-31210000D02*
X116150000Y-31210000D01*
X116150000Y-24670000D02*
X113410000Y-24670000D01*
X116150000Y-31210000D02*
X116150000Y-24670000D01*
X113410000Y-24670000D02*
X113410000Y-31210000D01*
%TO.C,R11*%
X110730000Y-23900000D02*
X110730000Y-24670000D01*
X110730000Y-31980000D02*
X110730000Y-31210000D01*
X109360000Y-31210000D02*
X112100000Y-31210000D01*
X112100000Y-24670000D02*
X109360000Y-24670000D01*
X112100000Y-31210000D02*
X112100000Y-24670000D01*
X109360000Y-24670000D02*
X109360000Y-31210000D01*
%TO.C,R10*%
X106680000Y-23900000D02*
X106680000Y-24670000D01*
X106680000Y-31980000D02*
X106680000Y-31210000D01*
X105310000Y-31210000D02*
X108050000Y-31210000D01*
X108050000Y-24670000D02*
X105310000Y-24670000D01*
X108050000Y-31210000D02*
X108050000Y-24670000D01*
X105310000Y-24670000D02*
X105310000Y-31210000D01*
%TO.C,R9*%
X102630000Y-23900000D02*
X102630000Y-24670000D01*
X102630000Y-31980000D02*
X102630000Y-31210000D01*
X101260000Y-31210000D02*
X104000000Y-31210000D01*
X104000000Y-24670000D02*
X101260000Y-24670000D01*
X104000000Y-31210000D02*
X104000000Y-24670000D01*
X101260000Y-24670000D02*
X101260000Y-31210000D01*
%TO.C,R8*%
X98580000Y-23900000D02*
X98580000Y-24670000D01*
X98580000Y-31980000D02*
X98580000Y-31210000D01*
X97210000Y-31210000D02*
X99950000Y-31210000D01*
X99950000Y-24670000D02*
X97210000Y-24670000D01*
X99950000Y-31210000D02*
X99950000Y-24670000D01*
X97210000Y-24670000D02*
X97210000Y-31210000D01*
%TO.C,R7*%
X94530000Y-23900000D02*
X94530000Y-24670000D01*
X94530000Y-31980000D02*
X94530000Y-31210000D01*
X93160000Y-31210000D02*
X95900000Y-31210000D01*
X95900000Y-24670000D02*
X93160000Y-24670000D01*
X95900000Y-31210000D02*
X95900000Y-24670000D01*
X93160000Y-24670000D02*
X93160000Y-31210000D01*
%TO.C,R6*%
X90480000Y-23900000D02*
X90480000Y-24670000D01*
X90480000Y-31980000D02*
X90480000Y-31210000D01*
X89110000Y-31210000D02*
X91850000Y-31210000D01*
X91850000Y-24670000D02*
X89110000Y-24670000D01*
X91850000Y-31210000D02*
X91850000Y-24670000D01*
X89110000Y-24670000D02*
X89110000Y-31210000D01*
%TO.C,R5*%
X86430000Y-23900000D02*
X86430000Y-24670000D01*
X86430000Y-31980000D02*
X86430000Y-31210000D01*
X85060000Y-31210000D02*
X87800000Y-31210000D01*
X87800000Y-24670000D02*
X85060000Y-24670000D01*
X87800000Y-31210000D02*
X87800000Y-24670000D01*
X85060000Y-24670000D02*
X85060000Y-31210000D01*
%TO.C,R4*%
X82380000Y-23900000D02*
X82380000Y-24670000D01*
X82380000Y-31980000D02*
X82380000Y-31210000D01*
X81010000Y-31210000D02*
X83750000Y-31210000D01*
X83750000Y-24670000D02*
X81010000Y-24670000D01*
X83750000Y-31210000D02*
X83750000Y-24670000D01*
X81010000Y-24670000D02*
X81010000Y-31210000D01*
%TO.C,R3*%
X78330000Y-23900000D02*
X78330000Y-24670000D01*
X78330000Y-31980000D02*
X78330000Y-31210000D01*
X76960000Y-31210000D02*
X79700000Y-31210000D01*
X79700000Y-24670000D02*
X76960000Y-24670000D01*
X79700000Y-31210000D02*
X79700000Y-24670000D01*
X76960000Y-24670000D02*
X76960000Y-31210000D01*
%TO.C,R2*%
X74280000Y-23900000D02*
X74280000Y-24670000D01*
X74280000Y-31980000D02*
X74280000Y-31210000D01*
X72910000Y-31210000D02*
X75650000Y-31210000D01*
X75650000Y-24670000D02*
X72910000Y-24670000D01*
X75650000Y-31210000D02*
X75650000Y-24670000D01*
X72910000Y-24670000D02*
X72910000Y-31210000D01*
%TO.C,R1*%
X70230000Y-23900000D02*
X70230000Y-24670000D01*
X70230000Y-31980000D02*
X70230000Y-31210000D01*
X68860000Y-31210000D02*
X71600000Y-31210000D01*
X71600000Y-24670000D02*
X68860000Y-24670000D01*
X71600000Y-31210000D02*
X71600000Y-24670000D01*
X68860000Y-24670000D02*
X68860000Y-31210000D01*
%TO.C,C1*%
X65360775Y-76530000D02*
X65360775Y-77143000D01*
X64680775Y-76530000D02*
X64680775Y-77714000D01*
X63559775Y-76530000D02*
X63559775Y-78063000D01*
X64600775Y-73222000D02*
X64600775Y-74450000D01*
X64480775Y-73161000D02*
X64480775Y-74450000D01*
X64520775Y-73180000D02*
X64520775Y-74450000D01*
X65040775Y-73519000D02*
X65040775Y-74450000D01*
X65320775Y-76530000D02*
X65320775Y-77189000D01*
X65000775Y-76530000D02*
X65000775Y-77494000D01*
X63519775Y-72914000D02*
X63519775Y-74450000D01*
X64920775Y-73425000D02*
X64920775Y-74450000D01*
X63399775Y-76530000D02*
X63399775Y-78070000D01*
X64080775Y-76530000D02*
X64080775Y-77970000D01*
X64240775Y-73062000D02*
X64240775Y-74450000D01*
X64280775Y-73076000D02*
X64280775Y-74450000D01*
X65120775Y-73589000D02*
X65120775Y-74450000D01*
X63959775Y-72979000D02*
X63959775Y-74450000D01*
X63599775Y-76530000D02*
X63599775Y-78059000D01*
X64200775Y-76530000D02*
X64200775Y-77932000D01*
X63919775Y-76530000D02*
X63919775Y-78010000D01*
X64640775Y-76530000D02*
X64640775Y-77737000D01*
X64760775Y-76530000D02*
X64760775Y-77665000D01*
X63479775Y-76530000D02*
X63479775Y-78068000D01*
X63879775Y-72962000D02*
X63879775Y-74450000D01*
X64800775Y-73341000D02*
X64800775Y-74450000D01*
X65200775Y-73664000D02*
X65200775Y-74450000D01*
X65360775Y-73837000D02*
X65360775Y-74450000D01*
X64400775Y-76530000D02*
X64400775Y-77855000D01*
X63359775Y-72910000D02*
X63359775Y-74450000D01*
X63679775Y-72929000D02*
X63679775Y-74450000D01*
X64400775Y-73125000D02*
X64400775Y-74450000D01*
X63839775Y-72954000D02*
X63839775Y-74450000D01*
X65840775Y-74685000D02*
X65840775Y-76295000D01*
X65640775Y-74239000D02*
X65640775Y-76741000D01*
X65480775Y-73990000D02*
X65480775Y-76990000D01*
X63719775Y-76530000D02*
X63719775Y-78046000D01*
X64440775Y-76530000D02*
X64440775Y-77838000D01*
X65880775Y-74813000D02*
X65880775Y-76167000D01*
X64920775Y-76530000D02*
X64920775Y-77555000D01*
X64880775Y-76530000D02*
X64880775Y-77585000D01*
X64120775Y-73022000D02*
X64120775Y-74450000D01*
X64360775Y-76530000D02*
X64360775Y-77872000D01*
X64240775Y-76530000D02*
X64240775Y-77918000D01*
X64440775Y-73142000D02*
X64440775Y-74450000D01*
X64600775Y-76530000D02*
X64600775Y-77758000D01*
X65240775Y-73705000D02*
X65240775Y-74450000D01*
X64880775Y-73395000D02*
X64880775Y-74450000D01*
X63679775Y-76530000D02*
X63679775Y-78051000D01*
X64280775Y-76530000D02*
X64280775Y-77904000D01*
X64320775Y-76530000D02*
X64320775Y-77888000D01*
X63519775Y-76530000D02*
X63519775Y-78066000D01*
X64360775Y-73108000D02*
X64360775Y-74450000D01*
X64039775Y-72999000D02*
X64039775Y-74450000D01*
X65760775Y-74479000D02*
X65760775Y-76501000D01*
X65440775Y-73936000D02*
X65440775Y-77044000D01*
X65800775Y-74575000D02*
X65800775Y-76405000D01*
X60555000Y-74015000D02*
X61055000Y-74015000D01*
X63359775Y-76530000D02*
X63359775Y-78070000D01*
X64160775Y-73035000D02*
X64160775Y-74450000D01*
X64840775Y-73368000D02*
X64840775Y-74450000D01*
X64560775Y-76530000D02*
X64560775Y-77780000D01*
X64720775Y-73290000D02*
X64720775Y-74450000D01*
X65160775Y-73626000D02*
X65160775Y-74450000D01*
X65280775Y-76530000D02*
X65280775Y-77233000D01*
X65720775Y-74392000D02*
X65720775Y-76588000D01*
X63479775Y-72912000D02*
X63479775Y-74450000D01*
X63639775Y-72925000D02*
X63639775Y-74450000D01*
X63439775Y-72911000D02*
X63439775Y-74450000D01*
X63559775Y-72917000D02*
X63559775Y-74450000D01*
X65160775Y-76530000D02*
X65160775Y-77354000D01*
X64480775Y-76530000D02*
X64480775Y-77819000D01*
X65920775Y-74972000D02*
X65920775Y-76008000D01*
X65960775Y-75206000D02*
X65960775Y-75774000D01*
X63959775Y-76530000D02*
X63959775Y-78001000D01*
X65080775Y-76530000D02*
X65080775Y-77427000D01*
X64520775Y-76530000D02*
X64520775Y-77800000D01*
X63759775Y-76530000D02*
X63759775Y-78040000D01*
X65600775Y-74171000D02*
X65600775Y-76809000D01*
X65560775Y-74107000D02*
X65560775Y-76873000D01*
X64320775Y-73092000D02*
X64320775Y-74450000D01*
X64640775Y-73243000D02*
X64640775Y-74450000D01*
X65680775Y-74312000D02*
X65680775Y-76668000D01*
X64720775Y-76530000D02*
X64720775Y-77690000D01*
X65280775Y-73747000D02*
X65280775Y-74450000D01*
X64960775Y-73455000D02*
X64960775Y-74450000D01*
X65400775Y-73885000D02*
X65400775Y-77095000D01*
X64840775Y-76530000D02*
X64840775Y-77612000D01*
X64120775Y-76530000D02*
X64120775Y-77958000D01*
X63879775Y-76530000D02*
X63879775Y-78018000D01*
X64200775Y-73048000D02*
X64200775Y-74450000D01*
X63719775Y-72934000D02*
X63719775Y-74450000D01*
X63799775Y-76530000D02*
X63799775Y-78033000D01*
X65520775Y-74047000D02*
X65520775Y-76933000D01*
X65200775Y-76530000D02*
X65200775Y-77316000D01*
X64160775Y-76530000D02*
X64160775Y-77945000D01*
X63639775Y-76530000D02*
X63639775Y-78055000D01*
X63439775Y-76530000D02*
X63439775Y-78069000D01*
X64039775Y-76530000D02*
X64039775Y-77981000D01*
X65240775Y-76530000D02*
X65240775Y-77275000D01*
X64080775Y-73010000D02*
X64080775Y-74450000D01*
X65000775Y-73486000D02*
X65000775Y-74450000D01*
X64800775Y-76530000D02*
X64800775Y-77639000D01*
X64760775Y-73315000D02*
X64760775Y-74450000D01*
X64560775Y-73200000D02*
X64560775Y-74450000D01*
X63599775Y-72921000D02*
X63599775Y-74450000D01*
X65080775Y-73553000D02*
X65080775Y-74450000D01*
X63799775Y-72947000D02*
X63799775Y-74450000D01*
X63999775Y-76530000D02*
X63999775Y-77991000D01*
X64680775Y-73266000D02*
X64680775Y-74450000D01*
X60805000Y-73765000D02*
X60805000Y-74265000D01*
X63759775Y-72940000D02*
X63759775Y-74450000D01*
X65040775Y-76530000D02*
X65040775Y-77461000D01*
X63839775Y-76530000D02*
X63839775Y-78026000D01*
X63919775Y-72970000D02*
X63919775Y-74450000D01*
X64960775Y-76530000D02*
X64960775Y-77525000D01*
X65120775Y-76530000D02*
X65120775Y-77391000D01*
X63399775Y-72910000D02*
X63399775Y-74450000D01*
X63999775Y-72989000D02*
X63999775Y-74450000D01*
X65320775Y-73791000D02*
X65320775Y-74450000D01*
X65979775Y-75490000D02*
G75*
G03*
X60739775Y-75490000I-2620000J0D01*
G01*
X60739775Y-75490000D02*
G75*
G03*
X65979775Y-75490000I2620000J0D01*
G01*
%TD*%
D14*
%TO.C,U1*%
X117892000Y-98620000D03*
D15*
X115352000Y-98620000D03*
X112812000Y-98620000D03*
X110272000Y-98620000D03*
X107732000Y-98620000D03*
X105192000Y-98620000D03*
X102652000Y-98620000D03*
X100112000Y-98620000D03*
X97572000Y-98620000D03*
X95032000Y-98620000D03*
X92492000Y-98620000D03*
X89952000Y-98620000D03*
X87412000Y-98620000D03*
X117892000Y-96080000D03*
X115352000Y-96080000D03*
X112812000Y-96080000D03*
X110272000Y-96080000D03*
X107732000Y-96080000D03*
X105192000Y-96080000D03*
X102652000Y-96080000D03*
X100112000Y-96080000D03*
X97572000Y-96080000D03*
X95032000Y-96080000D03*
X92492000Y-96080000D03*
X89952000Y-96080000D03*
X87412000Y-96080000D03*
X117892000Y-93540000D03*
X115352000Y-93540000D03*
X112812000Y-93540000D03*
X110272000Y-93540000D03*
X107732000Y-93540000D03*
X105192000Y-93540000D03*
X102652000Y-93540000D03*
X100112000Y-93540000D03*
X97572000Y-93540000D03*
X95032000Y-93540000D03*
X92492000Y-93540000D03*
X89952000Y-93540000D03*
X87412000Y-93540000D03*
X117892000Y-91000000D03*
X115352000Y-91000000D03*
X112812000Y-91000000D03*
X110272000Y-91000000D03*
X107732000Y-91000000D03*
X95032000Y-91000000D03*
X92492000Y-91000000D03*
X89952000Y-91000000D03*
X87412000Y-91000000D03*
X117892000Y-88460000D03*
X115352000Y-88460000D03*
X112812000Y-88460000D03*
X92492000Y-88460000D03*
X89952000Y-88460000D03*
X87412000Y-88460000D03*
X117892000Y-85920000D03*
X115352000Y-85920000D03*
X112812000Y-85920000D03*
X110272000Y-85920000D03*
X95032000Y-85920000D03*
X92492000Y-85920000D03*
X89952000Y-85920000D03*
X87412000Y-85920000D03*
X117892000Y-83380000D03*
X115352000Y-83380000D03*
X112812000Y-83380000D03*
X92492000Y-83380000D03*
X89952000Y-83380000D03*
X87412000Y-83380000D03*
X117892000Y-80840000D03*
X115352000Y-80840000D03*
X112812000Y-80840000D03*
X92492000Y-80840000D03*
X89952000Y-80840000D03*
X87412000Y-80840000D03*
X117892000Y-78300000D03*
X115352000Y-78300000D03*
X112812000Y-78300000D03*
X92492000Y-78300000D03*
X89952000Y-78300000D03*
X87412000Y-78300000D03*
X117892000Y-75760000D03*
X115352000Y-75760000D03*
X112812000Y-75760000D03*
X110272000Y-75760000D03*
X107732000Y-75760000D03*
X95032000Y-75760000D03*
X92492000Y-75760000D03*
X89952000Y-75760000D03*
X87412000Y-75760000D03*
X117892000Y-73220000D03*
X115352000Y-73220000D03*
X112812000Y-73220000D03*
X110272000Y-73220000D03*
X107732000Y-73220000D03*
X105192000Y-73220000D03*
X102652000Y-73220000D03*
X100112000Y-73220000D03*
X97572000Y-73220000D03*
X95032000Y-73220000D03*
X92492000Y-73220000D03*
X89952000Y-73220000D03*
X87412000Y-73220000D03*
X117892000Y-70680000D03*
X115352000Y-70680000D03*
X112812000Y-70680000D03*
X110272000Y-70680000D03*
X107732000Y-70680000D03*
X105192000Y-70680000D03*
X102652000Y-70680000D03*
X100112000Y-70680000D03*
X97572000Y-70680000D03*
X95032000Y-70680000D03*
X92492000Y-70680000D03*
X89952000Y-70680000D03*
X87412000Y-70680000D03*
X117892000Y-68140000D03*
X115352000Y-68140000D03*
X112812000Y-68140000D03*
X110272000Y-68140000D03*
X107732000Y-68140000D03*
X105192000Y-68140000D03*
X102652000Y-68140000D03*
X100112000Y-68140000D03*
X97572000Y-68140000D03*
X95032000Y-68140000D03*
X92492000Y-68140000D03*
X89952000Y-68140000D03*
X87412000Y-68140000D03*
%TD*%
%LPC*%
D16*
%TO.C,Y1*%
X168170000Y-98820000D03*
X173070000Y-98820000D03*
%TD*%
D17*
%TO.C,U16*%
X147320000Y-71120000D03*
D18*
X147320000Y-73660000D03*
X147320000Y-76200000D03*
X147320000Y-78740000D03*
X147320000Y-81280000D03*
X147320000Y-83820000D03*
X147320000Y-86360000D03*
X147320000Y-88900000D03*
X147320000Y-91440000D03*
X147320000Y-93980000D03*
X147320000Y-96520000D03*
X147320000Y-99060000D03*
X147320000Y-101600000D03*
X147320000Y-104140000D03*
X147320000Y-106680000D03*
X147320000Y-109220000D03*
X147320000Y-111760000D03*
X147320000Y-114300000D03*
X147320000Y-116840000D03*
X147320000Y-119380000D03*
X162560000Y-119380000D03*
X162560000Y-116840000D03*
X162560000Y-114300000D03*
X162560000Y-111760000D03*
X162560000Y-109220000D03*
X162560000Y-106680000D03*
X162560000Y-104140000D03*
X162560000Y-101600000D03*
X162560000Y-99060000D03*
X162560000Y-96520000D03*
X162560000Y-93980000D03*
X162560000Y-91440000D03*
X162560000Y-88900000D03*
X162560000Y-86360000D03*
X162560000Y-83820000D03*
X162560000Y-81280000D03*
X162560000Y-78740000D03*
X162560000Y-76200000D03*
X162560000Y-73660000D03*
X162560000Y-71120000D03*
%TD*%
D14*
%TO.C,U1*%
X117892000Y-98620000D03*
D15*
X115352000Y-98620000D03*
X112812000Y-98620000D03*
X110272000Y-98620000D03*
X107732000Y-98620000D03*
X105192000Y-98620000D03*
X102652000Y-98620000D03*
X100112000Y-98620000D03*
X97572000Y-98620000D03*
X95032000Y-98620000D03*
X92492000Y-98620000D03*
X89952000Y-98620000D03*
X87412000Y-98620000D03*
X117892000Y-96080000D03*
X115352000Y-96080000D03*
X112812000Y-96080000D03*
X110272000Y-96080000D03*
X107732000Y-96080000D03*
X105192000Y-96080000D03*
X102652000Y-96080000D03*
X100112000Y-96080000D03*
X97572000Y-96080000D03*
X95032000Y-96080000D03*
X92492000Y-96080000D03*
X89952000Y-96080000D03*
X87412000Y-96080000D03*
X117892000Y-93540000D03*
X115352000Y-93540000D03*
X112812000Y-93540000D03*
X110272000Y-93540000D03*
X107732000Y-93540000D03*
X105192000Y-93540000D03*
X102652000Y-93540000D03*
X100112000Y-93540000D03*
X97572000Y-93540000D03*
X95032000Y-93540000D03*
X92492000Y-93540000D03*
X89952000Y-93540000D03*
X87412000Y-93540000D03*
X117892000Y-91000000D03*
X115352000Y-91000000D03*
X112812000Y-91000000D03*
X110272000Y-91000000D03*
X107732000Y-91000000D03*
X95032000Y-91000000D03*
X92492000Y-91000000D03*
X89952000Y-91000000D03*
X87412000Y-91000000D03*
X117892000Y-88460000D03*
X115352000Y-88460000D03*
X112812000Y-88460000D03*
X92492000Y-88460000D03*
X89952000Y-88460000D03*
X87412000Y-88460000D03*
X117892000Y-85920000D03*
X115352000Y-85920000D03*
X112812000Y-85920000D03*
X110272000Y-85920000D03*
X95032000Y-85920000D03*
X92492000Y-85920000D03*
X89952000Y-85920000D03*
X87412000Y-85920000D03*
X117892000Y-83380000D03*
X115352000Y-83380000D03*
X112812000Y-83380000D03*
X92492000Y-83380000D03*
X89952000Y-83380000D03*
X87412000Y-83380000D03*
X117892000Y-80840000D03*
X115352000Y-80840000D03*
X112812000Y-80840000D03*
X92492000Y-80840000D03*
X89952000Y-80840000D03*
X87412000Y-80840000D03*
X117892000Y-78300000D03*
X115352000Y-78300000D03*
X112812000Y-78300000D03*
X92492000Y-78300000D03*
X89952000Y-78300000D03*
X87412000Y-78300000D03*
X117892000Y-75760000D03*
X115352000Y-75760000D03*
X112812000Y-75760000D03*
X110272000Y-75760000D03*
X107732000Y-75760000D03*
X95032000Y-75760000D03*
X92492000Y-75760000D03*
X89952000Y-75760000D03*
X87412000Y-75760000D03*
X117892000Y-73220000D03*
X115352000Y-73220000D03*
X112812000Y-73220000D03*
X110272000Y-73220000D03*
X107732000Y-73220000D03*
X105192000Y-73220000D03*
X102652000Y-73220000D03*
X100112000Y-73220000D03*
X97572000Y-73220000D03*
X95032000Y-73220000D03*
X92492000Y-73220000D03*
X89952000Y-73220000D03*
X87412000Y-73220000D03*
X117892000Y-70680000D03*
X115352000Y-70680000D03*
X112812000Y-70680000D03*
X110272000Y-70680000D03*
X107732000Y-70680000D03*
X105192000Y-70680000D03*
X102652000Y-70680000D03*
X100112000Y-70680000D03*
X97572000Y-70680000D03*
X95032000Y-70680000D03*
X92492000Y-70680000D03*
X89952000Y-70680000D03*
X87412000Y-70680000D03*
X117892000Y-68140000D03*
X115352000Y-68140000D03*
X112812000Y-68140000D03*
X110272000Y-68140000D03*
X107732000Y-68140000D03*
X105192000Y-68140000D03*
X102652000Y-68140000D03*
X100112000Y-68140000D03*
X97572000Y-68140000D03*
X95032000Y-68140000D03*
X92492000Y-68140000D03*
X89952000Y-68140000D03*
X87412000Y-68140000D03*
%TD*%
D19*
%TO.C,R18*%
X165720000Y-93470000D03*
D18*
X175880000Y-93470000D03*
%TD*%
D20*
%TO.C,J4*%
X171120000Y-104470000D03*
D21*
X171120000Y-107010000D03*
X171120000Y-109550000D03*
%TD*%
D20*
%TO.C,J3*%
X166470000Y-104470000D03*
D21*
X166470000Y-107010000D03*
X166470000Y-109550000D03*
%TD*%
D20*
%TO.C,J2*%
X171120000Y-71370000D03*
D21*
X171120000Y-73910000D03*
X171120000Y-76450000D03*
X171120000Y-78990000D03*
X171120000Y-81530000D03*
X171120000Y-84070000D03*
%TD*%
D20*
%TO.C,J1*%
X166470000Y-71370000D03*
D21*
X166470000Y-73910000D03*
X166470000Y-76450000D03*
X166470000Y-78990000D03*
X166470000Y-81530000D03*
X166470000Y-84070000D03*
X166470000Y-86610000D03*
X166470000Y-89150000D03*
%TD*%
D19*
%TO.C,C3*%
X165720000Y-117020000D03*
X170720000Y-117020000D03*
%TD*%
%TO.C,C2*%
X165720000Y-113570000D03*
X170720000Y-113570000D03*
%TD*%
D22*
%TO.C,U15*%
X48635000Y-86490000D03*
X48635000Y-87760000D03*
X48635000Y-89030000D03*
X48635000Y-90300000D03*
X48635000Y-91570000D03*
X48635000Y-92840000D03*
X48635000Y-94110000D03*
X53585000Y-94110000D03*
X53585000Y-92840000D03*
X53585000Y-91570000D03*
X53585000Y-90300000D03*
X53585000Y-89030000D03*
X53585000Y-87760000D03*
X53585000Y-86490000D03*
%TD*%
D23*
%TO.C,U14*%
X38100000Y-91440000D03*
D24*
X35560000Y-88900000D03*
X35560000Y-91440000D03*
X33020000Y-88900000D03*
X30480000Y-91440000D03*
X33020000Y-91440000D03*
X30480000Y-93980000D03*
X33020000Y-93980000D03*
X30480000Y-96520000D03*
X33020000Y-96520000D03*
X30480000Y-99060000D03*
X33020000Y-99060000D03*
X30480000Y-101600000D03*
X33020000Y-104140000D03*
X33020000Y-101600000D03*
X35560000Y-104140000D03*
X35560000Y-101600000D03*
X38100000Y-104140000D03*
X38100000Y-101600000D03*
X40640000Y-104140000D03*
X43180000Y-101600000D03*
X40640000Y-101600000D03*
X43180000Y-99060000D03*
X40640000Y-99060000D03*
X43180000Y-96520000D03*
X40640000Y-96520000D03*
X43180000Y-93980000D03*
X40640000Y-93980000D03*
X43180000Y-91440000D03*
X40640000Y-88900000D03*
X40640000Y-91440000D03*
X38100000Y-88900000D03*
%TD*%
D19*
%TO.C,R17*%
X28350000Y-109870000D03*
D18*
X38510000Y-109870000D03*
%TD*%
D25*
%TO.C,H1*%
X21926581Y-177540419D03*
X22871162Y-175260000D03*
X22871162Y-179820838D03*
X25151581Y-174315419D03*
D26*
X25151581Y-177540419D03*
D25*
X25151581Y-180765419D03*
X27432000Y-175260000D03*
X27432000Y-179820838D03*
X28376581Y-177540419D03*
%TD*%
%TO.C,H2*%
X176866581Y-177540419D03*
X177811162Y-175260000D03*
X177811162Y-179820838D03*
X180091581Y-174315419D03*
D26*
X180091581Y-177540419D03*
D25*
X180091581Y-180765419D03*
X182372000Y-175260000D03*
X182372000Y-179820838D03*
X183316581Y-177540419D03*
%TD*%
D17*
%TO.C,X1*%
X63500000Y-57150000D03*
D19*
X78740000Y-57150000D03*
X78740000Y-49530000D03*
X63500000Y-49530000D03*
%TD*%
D17*
%TO.C,U22*%
X18220000Y-48290000D03*
D18*
X18220000Y-50830000D03*
X18220000Y-53370000D03*
X18220000Y-55910000D03*
X18220000Y-58450000D03*
X18220000Y-60990000D03*
X18220000Y-63530000D03*
X18220000Y-66070000D03*
X18220000Y-68610000D03*
X18220000Y-71150000D03*
X18220000Y-73690000D03*
X18220000Y-76230000D03*
X25840000Y-76230000D03*
X25840000Y-73690000D03*
X25840000Y-71150000D03*
X25840000Y-68610000D03*
X25840000Y-66070000D03*
X25840000Y-63530000D03*
X25840000Y-60990000D03*
X25840000Y-58450000D03*
X25840000Y-55910000D03*
X25840000Y-53370000D03*
X25840000Y-50830000D03*
X25840000Y-48290000D03*
%TD*%
D17*
%TO.C,U13*%
X157480000Y-142240000D03*
D18*
X157480000Y-144780000D03*
X157480000Y-147320000D03*
X157480000Y-149860000D03*
X157480000Y-152400000D03*
X157480000Y-154940000D03*
X157480000Y-157480000D03*
X157480000Y-160020000D03*
X157480000Y-162560000D03*
X157480000Y-165100000D03*
X157480000Y-167640000D03*
X157480000Y-170180000D03*
X157480000Y-172720000D03*
X157480000Y-175260000D03*
X157480000Y-177800000D03*
X157480000Y-180340000D03*
X172720000Y-180340000D03*
X172720000Y-177800000D03*
X172720000Y-175260000D03*
X172720000Y-172720000D03*
X172720000Y-170180000D03*
X172720000Y-167640000D03*
X172720000Y-165100000D03*
X172720000Y-162560000D03*
X172720000Y-160020000D03*
X172720000Y-157480000D03*
X172720000Y-154940000D03*
X172720000Y-152400000D03*
X172720000Y-149860000D03*
X172720000Y-147320000D03*
X172720000Y-144780000D03*
X172720000Y-142240000D03*
%TD*%
D17*
%TO.C,U12*%
X139700000Y-142240000D03*
D18*
X139700000Y-144780000D03*
X139700000Y-147320000D03*
X139700000Y-149860000D03*
X139700000Y-152400000D03*
X139700000Y-154940000D03*
X139700000Y-157480000D03*
X139700000Y-160020000D03*
X139700000Y-162560000D03*
X139700000Y-165100000D03*
X139700000Y-167640000D03*
X139700000Y-170180000D03*
X139700000Y-172720000D03*
X139700000Y-175260000D03*
X139700000Y-177800000D03*
X139700000Y-180340000D03*
X154940000Y-180340000D03*
X154940000Y-177800000D03*
X154940000Y-175260000D03*
X154940000Y-172720000D03*
X154940000Y-170180000D03*
X154940000Y-167640000D03*
X154940000Y-165100000D03*
X154940000Y-162560000D03*
X154940000Y-160020000D03*
X154940000Y-157480000D03*
X154940000Y-154940000D03*
X154940000Y-152400000D03*
X154940000Y-149860000D03*
X154940000Y-147320000D03*
X154940000Y-144780000D03*
X154940000Y-142240000D03*
%TD*%
D17*
%TO.C,U11*%
X121920000Y-142240000D03*
D18*
X121920000Y-144780000D03*
X121920000Y-147320000D03*
X121920000Y-149860000D03*
X121920000Y-152400000D03*
X121920000Y-154940000D03*
X121920000Y-157480000D03*
X121920000Y-160020000D03*
X121920000Y-162560000D03*
X121920000Y-165100000D03*
X121920000Y-167640000D03*
X121920000Y-170180000D03*
X121920000Y-172720000D03*
X121920000Y-175260000D03*
X121920000Y-177800000D03*
X121920000Y-180340000D03*
X137160000Y-180340000D03*
X137160000Y-177800000D03*
X137160000Y-175260000D03*
X137160000Y-172720000D03*
X137160000Y-170180000D03*
X137160000Y-167640000D03*
X137160000Y-165100000D03*
X137160000Y-162560000D03*
X137160000Y-160020000D03*
X137160000Y-157480000D03*
X137160000Y-154940000D03*
X137160000Y-152400000D03*
X137160000Y-149860000D03*
X137160000Y-147320000D03*
X137160000Y-144780000D03*
X137160000Y-142240000D03*
%TD*%
D17*
%TO.C,U10*%
X104032000Y-142296000D03*
D18*
X104032000Y-144836000D03*
X104032000Y-147376000D03*
X104032000Y-149916000D03*
X104032000Y-152456000D03*
X104032000Y-154996000D03*
X104032000Y-157536000D03*
X104032000Y-160076000D03*
X104032000Y-162616000D03*
X104032000Y-165156000D03*
X104032000Y-167696000D03*
X104032000Y-170236000D03*
X104032000Y-172776000D03*
X104032000Y-175316000D03*
X104032000Y-177856000D03*
X104032000Y-180396000D03*
X119272000Y-180396000D03*
X119272000Y-177856000D03*
X119272000Y-175316000D03*
X119272000Y-172776000D03*
X119272000Y-170236000D03*
X119272000Y-167696000D03*
X119272000Y-165156000D03*
X119272000Y-162616000D03*
X119272000Y-160076000D03*
X119272000Y-157536000D03*
X119272000Y-154996000D03*
X119272000Y-152456000D03*
X119272000Y-149916000D03*
X119272000Y-147376000D03*
X119272000Y-144836000D03*
X119272000Y-142296000D03*
%TD*%
D17*
%TO.C,U9*%
X84328000Y-142240000D03*
D18*
X84328000Y-144780000D03*
X84328000Y-147320000D03*
X84328000Y-149860000D03*
X84328000Y-152400000D03*
X84328000Y-154940000D03*
X84328000Y-157480000D03*
X84328000Y-160020000D03*
X84328000Y-162560000D03*
X84328000Y-165100000D03*
X84328000Y-167640000D03*
X84328000Y-170180000D03*
X84328000Y-172720000D03*
X84328000Y-175260000D03*
X84328000Y-177800000D03*
X84328000Y-180340000D03*
X99568000Y-180340000D03*
X99568000Y-177800000D03*
X99568000Y-175260000D03*
X99568000Y-172720000D03*
X99568000Y-170180000D03*
X99568000Y-167640000D03*
X99568000Y-165100000D03*
X99568000Y-162560000D03*
X99568000Y-160020000D03*
X99568000Y-157480000D03*
X99568000Y-154940000D03*
X99568000Y-152400000D03*
X99568000Y-149860000D03*
X99568000Y-147320000D03*
X99568000Y-144780000D03*
X99568000Y-142240000D03*
%TD*%
D17*
%TO.C,U8*%
X66548000Y-142240000D03*
D18*
X66548000Y-144780000D03*
X66548000Y-147320000D03*
X66548000Y-149860000D03*
X66548000Y-152400000D03*
X66548000Y-154940000D03*
X66548000Y-157480000D03*
X66548000Y-160020000D03*
X66548000Y-162560000D03*
X66548000Y-165100000D03*
X66548000Y-167640000D03*
X66548000Y-170180000D03*
X66548000Y-172720000D03*
X66548000Y-175260000D03*
X66548000Y-177800000D03*
X66548000Y-180340000D03*
X81788000Y-180340000D03*
X81788000Y-177800000D03*
X81788000Y-175260000D03*
X81788000Y-172720000D03*
X81788000Y-170180000D03*
X81788000Y-167640000D03*
X81788000Y-165100000D03*
X81788000Y-162560000D03*
X81788000Y-160020000D03*
X81788000Y-157480000D03*
X81788000Y-154940000D03*
X81788000Y-152400000D03*
X81788000Y-149860000D03*
X81788000Y-147320000D03*
X81788000Y-144780000D03*
X81788000Y-142240000D03*
%TD*%
D17*
%TO.C,U7*%
X48832000Y-142296000D03*
D18*
X48832000Y-144836000D03*
X48832000Y-147376000D03*
X48832000Y-149916000D03*
X48832000Y-152456000D03*
X48832000Y-154996000D03*
X48832000Y-157536000D03*
X48832000Y-160076000D03*
X48832000Y-162616000D03*
X48832000Y-165156000D03*
X48832000Y-167696000D03*
X48832000Y-170236000D03*
X48832000Y-172776000D03*
X48832000Y-175316000D03*
X48832000Y-177856000D03*
X48832000Y-180396000D03*
X64072000Y-180396000D03*
X64072000Y-177856000D03*
X64072000Y-175316000D03*
X64072000Y-172776000D03*
X64072000Y-170236000D03*
X64072000Y-167696000D03*
X64072000Y-165156000D03*
X64072000Y-162616000D03*
X64072000Y-160076000D03*
X64072000Y-157536000D03*
X64072000Y-154996000D03*
X64072000Y-152456000D03*
X64072000Y-149916000D03*
X64072000Y-147376000D03*
X64072000Y-144836000D03*
X64072000Y-142296000D03*
%TD*%
%TO.C,U6*%
X46482000Y-142296000D03*
X46482000Y-144836000D03*
X46482000Y-147376000D03*
X46482000Y-149916000D03*
X46482000Y-152456000D03*
X46482000Y-154996000D03*
X46482000Y-157536000D03*
X46482000Y-160076000D03*
X46482000Y-162616000D03*
X46482000Y-165156000D03*
X46482000Y-167696000D03*
X46482000Y-170236000D03*
X46482000Y-172776000D03*
X46482000Y-175316000D03*
X46482000Y-177856000D03*
X46482000Y-180396000D03*
X31242000Y-180396000D03*
X31242000Y-177856000D03*
X31242000Y-175316000D03*
X31242000Y-172776000D03*
X31242000Y-170236000D03*
X31242000Y-167696000D03*
X31242000Y-165156000D03*
X31242000Y-162616000D03*
X31242000Y-160076000D03*
X31242000Y-157536000D03*
X31242000Y-154996000D03*
X31242000Y-152456000D03*
X31242000Y-149916000D03*
X31242000Y-147376000D03*
X31242000Y-144836000D03*
D17*
X31242000Y-142296000D03*
%TD*%
%TO.C,U5*%
X29070000Y-48290000D03*
D18*
X29070000Y-50830000D03*
X29070000Y-53370000D03*
X29070000Y-55910000D03*
X29070000Y-58450000D03*
X29070000Y-60990000D03*
X29070000Y-63530000D03*
X29070000Y-66070000D03*
X36690000Y-66070000D03*
X36690000Y-63530000D03*
X36690000Y-60990000D03*
X36690000Y-58450000D03*
X36690000Y-55910000D03*
X36690000Y-53370000D03*
X36690000Y-50830000D03*
X36690000Y-48290000D03*
%TD*%
D17*
%TO.C,U4*%
X50770000Y-48290000D03*
D18*
X50770000Y-50830000D03*
X50770000Y-53370000D03*
X50770000Y-55910000D03*
X50770000Y-58450000D03*
X50770000Y-60990000D03*
X50770000Y-63530000D03*
X58390000Y-63530000D03*
X58390000Y-60990000D03*
X58390000Y-58450000D03*
X58390000Y-55910000D03*
X58390000Y-53370000D03*
X58390000Y-50830000D03*
X58390000Y-48290000D03*
%TD*%
D17*
%TO.C,U3*%
X39920000Y-48290000D03*
D18*
X39920000Y-50830000D03*
X39920000Y-53370000D03*
X39920000Y-55910000D03*
X39920000Y-58450000D03*
X39920000Y-60990000D03*
X39920000Y-63530000D03*
X47540000Y-63530000D03*
X47540000Y-60990000D03*
X47540000Y-58450000D03*
X47540000Y-55910000D03*
X47540000Y-53370000D03*
X47540000Y-50830000D03*
X47540000Y-48290000D03*
%TD*%
D17*
%TO.C,U2*%
X61620000Y-62540000D03*
D18*
X61620000Y-65080000D03*
X61620000Y-67620000D03*
X61620000Y-70160000D03*
X69240000Y-70160000D03*
X69240000Y-67620000D03*
X69240000Y-65080000D03*
X69240000Y-62540000D03*
%TD*%
D27*
%TO.C,SW1*%
X79370000Y-62490000D03*
X72870000Y-62490000D03*
X79370000Y-66990000D03*
X72870000Y-66990000D03*
%TD*%
D19*
%TO.C,R16*%
X130980000Y-33020000D03*
D18*
X130980000Y-22860000D03*
%TD*%
D19*
%TO.C,R15*%
X126930000Y-33020000D03*
D18*
X126930000Y-22860000D03*
%TD*%
D19*
%TO.C,R14*%
X122880000Y-33020000D03*
D18*
X122880000Y-22860000D03*
%TD*%
D19*
%TO.C,R13*%
X118830000Y-33020000D03*
D18*
X118830000Y-22860000D03*
%TD*%
D19*
%TO.C,R12*%
X114780000Y-33020000D03*
D18*
X114780000Y-22860000D03*
%TD*%
D19*
%TO.C,R11*%
X110730000Y-33020000D03*
D18*
X110730000Y-22860000D03*
%TD*%
D19*
%TO.C,R10*%
X106680000Y-33020000D03*
D18*
X106680000Y-22860000D03*
%TD*%
D19*
%TO.C,R9*%
X102630000Y-33020000D03*
D18*
X102630000Y-22860000D03*
%TD*%
D19*
%TO.C,R8*%
X98580000Y-33020000D03*
D18*
X98580000Y-22860000D03*
%TD*%
D19*
%TO.C,R7*%
X94530000Y-33020000D03*
D18*
X94530000Y-22860000D03*
%TD*%
D19*
%TO.C,R6*%
X90480000Y-33020000D03*
D18*
X90480000Y-22860000D03*
%TD*%
D19*
%TO.C,R5*%
X86430000Y-33020000D03*
D18*
X86430000Y-22860000D03*
%TD*%
D19*
%TO.C,R4*%
X82380000Y-33020000D03*
D18*
X82380000Y-22860000D03*
%TD*%
D19*
%TO.C,R3*%
X78330000Y-33020000D03*
D18*
X78330000Y-22860000D03*
%TD*%
D19*
%TO.C,R2*%
X74280000Y-33020000D03*
D18*
X74280000Y-22860000D03*
%TD*%
D19*
%TO.C,R1*%
X70230000Y-33020000D03*
D18*
X70230000Y-22860000D03*
%TD*%
D25*
%TO.C,H4*%
X176966581Y-20039581D03*
X177911162Y-17759162D03*
X177911162Y-22320000D03*
X180191581Y-16814581D03*
D26*
X180191581Y-20039581D03*
D25*
X180191581Y-23264581D03*
X182472000Y-17759162D03*
X182472000Y-22320000D03*
X183416581Y-20039581D03*
%TD*%
%TO.C,H3*%
X44672000Y-19920000D03*
X45616581Y-17639581D03*
X45616581Y-22200419D03*
X47897000Y-16695000D03*
D26*
X47897000Y-19920000D03*
D25*
X47897000Y-23145000D03*
X50177419Y-17639581D03*
X50177419Y-22200419D03*
X51122000Y-19920000D03*
%TD*%
%TO.C,H2*%
X183272000Y-177520000D03*
X182327419Y-179800419D03*
X182327419Y-175239581D03*
X180047000Y-180745000D03*
D26*
X180047000Y-177520000D03*
D25*
X180047000Y-174295000D03*
X177766581Y-179800419D03*
X177766581Y-175239581D03*
X176822000Y-177520000D03*
%TD*%
%TO.C,H1*%
X28177419Y-177439581D03*
X27232838Y-179720000D03*
X27232838Y-175159162D03*
X24952419Y-180664581D03*
D26*
X24952419Y-177439581D03*
D25*
X24952419Y-174214581D03*
X22672000Y-179720000D03*
X22672000Y-175159162D03*
X21727419Y-177439581D03*
%TD*%
D17*
%TO.C,C1*%
X62359775Y-75490000D03*
D19*
X64359775Y-75490000D03*
%TD*%
D25*
%TO.C,H3*%
X176866581Y-20067219D03*
X177811162Y-17786800D03*
X177811162Y-22347638D03*
X180091581Y-16842219D03*
D26*
X180091581Y-20067219D03*
D25*
X180091581Y-23292219D03*
X182372000Y-17786800D03*
X182372000Y-22347638D03*
X183316581Y-20067219D03*
%TD*%
%TO.C,H4*%
X44766581Y-19839581D03*
X45711162Y-17559162D03*
X45711162Y-22120000D03*
X47991581Y-16614581D03*
D26*
X47991581Y-19839581D03*
D25*
X47991581Y-23064581D03*
X50272000Y-17559162D03*
X50272000Y-22120000D03*
X51216581Y-19839581D03*
%TD*%
%LPD*%
M02*
