%TF.GenerationSoftware,KiCad,Pcbnew,7.0.10*%
%TF.CreationDate,2024-01-18T14:13:19+02:00*%
%TF.ProjectId,jox030,6a6f7830-3330-42e6-9b69-6361645f7063,rev?*%
%TF.SameCoordinates,Original*%
%TF.FileFunction,Copper,L1,Top*%
%TF.FilePolarity,Positive*%
%FSLAX46Y46*%
G04 Gerber Fmt 4.6, Leading zero omitted, Abs format (unit mm)*
G04 Created by KiCad (PCBNEW 7.0.10) date 2024-01-18 14:13:19*
%MOMM*%
%LPD*%
G01*
G04 APERTURE LIST*
G04 Aperture macros list*
%AMRoundRect*
0 Rectangle with rounded corners*
0 $1 Rounding radius*
0 $2 $3 $4 $5 $6 $7 $8 $9 X,Y pos of 4 corners*
0 Add a 4 corners polygon primitive as box body*
4,1,4,$2,$3,$4,$5,$6,$7,$8,$9,$2,$3,0*
0 Add four circle primitives for the rounded corners*
1,1,$1+$1,$2,$3*
1,1,$1+$1,$4,$5*
1,1,$1+$1,$6,$7*
1,1,$1+$1,$8,$9*
0 Add four rect primitives between the rounded corners*
20,1,$1+$1,$2,$3,$4,$5,0*
20,1,$1+$1,$4,$5,$6,$7,0*
20,1,$1+$1,$6,$7,$8,$9,0*
20,1,$1+$1,$8,$9,$2,$3,0*%
G04 Aperture macros list end*
%TA.AperFunction,ComponentPad*%
%ADD10C,1.500000*%
%TD*%
%TA.AperFunction,ComponentPad*%
%ADD11R,1.600000X1.600000*%
%TD*%
%TA.AperFunction,ComponentPad*%
%ADD12O,1.600000X1.600000*%
%TD*%
%TA.AperFunction,ComponentPad*%
%ADD13R,1.397000X1.397000*%
%TD*%
%TA.AperFunction,ComponentPad*%
%ADD14C,1.397000*%
%TD*%
%TA.AperFunction,ComponentPad*%
%ADD15C,1.600000*%
%TD*%
%TA.AperFunction,ComponentPad*%
%ADD16R,1.700000X1.700000*%
%TD*%
%TA.AperFunction,ComponentPad*%
%ADD17O,1.700000X1.700000*%
%TD*%
%TA.AperFunction,SMDPad,CuDef*%
%ADD18RoundRect,0.150000X-0.825000X-0.150000X0.825000X-0.150000X0.825000X0.150000X-0.825000X0.150000X0*%
%TD*%
%TA.AperFunction,ComponentPad*%
%ADD19R,1.422400X1.422400*%
%TD*%
%TA.AperFunction,ComponentPad*%
%ADD20C,1.422400*%
%TD*%
%TA.AperFunction,ComponentPad*%
%ADD21C,0.900000*%
%TD*%
%TA.AperFunction,ComponentPad*%
%ADD22C,8.600000*%
%TD*%
%TA.AperFunction,ComponentPad*%
%ADD23C,2.000000*%
%TD*%
G04 APERTURE END LIST*
D10*
%TO.P,Y1,1,1*%
%TO.N,Net-(U16-X2)*%
X168170000Y-98820000D03*
%TO.P,Y1,2,2*%
%TO.N,Net-(U16-X1{slash}CLK)*%
X173070000Y-98820000D03*
%TD*%
D11*
%TO.P,U16,1,RS1*%
%TO.N,/A0*%
X147320000Y-71120000D03*
D12*
%TO.P,U16,2,IP3*%
%TO.N,Net-(J2-Pin_4)*%
X147320000Y-73660000D03*
%TO.P,U16,3,RS2*%
%TO.N,/A1*%
X147320000Y-76200000D03*
%TO.P,U16,4,IP1*%
%TO.N,Net-(J2-Pin_2)*%
X147320000Y-78740000D03*
%TO.P,U16,5,RS3*%
%TO.N,/A2*%
X147320000Y-81280000D03*
%TO.P,U16,6,RS4*%
%TO.N,/A3*%
X147320000Y-83820000D03*
%TO.P,U16,7,IP0*%
%TO.N,Net-(J2-Pin_1)*%
X147320000Y-86360000D03*
%TO.P,U16,8,R/W*%
%TO.N,/R\u002C~{W}*%
X147320000Y-88900000D03*
%TO.P,U16,9,DTACK*%
%TO.N,/{slash}UDTACK*%
X147320000Y-91440000D03*
%TO.P,U16,10,RXDB*%
%TO.N,Net-(J4-Pin_2)*%
X147320000Y-93980000D03*
%TO.P,U16,11,TXDB*%
%TO.N,Net-(J4-Pin_1)*%
X147320000Y-96520000D03*
%TO.P,U16,12,OP1*%
%TO.N,Net-(J1-Pin_2)*%
X147320000Y-99060000D03*
%TO.P,U16,13,OP3*%
%TO.N,Net-(J1-Pin_4)*%
X147320000Y-101600000D03*
%TO.P,U16,14,OP5*%
%TO.N,Net-(J1-Pin_6)*%
X147320000Y-104140000D03*
%TO.P,U16,15,OP7*%
%TO.N,Net-(J1-Pin_8)*%
X147320000Y-106680000D03*
%TO.P,U16,16,D1*%
%TO.N,/D25*%
X147320000Y-109220000D03*
%TO.P,U16,17,D3*%
%TO.N,/D27*%
X147320000Y-111760000D03*
%TO.P,U16,18,D5*%
%TO.N,/D29*%
X147320000Y-114300000D03*
%TO.P,U16,19,D7*%
%TO.N,/D31*%
X147320000Y-116840000D03*
%TO.P,U16,20,GND*%
%TO.N,GND*%
X147320000Y-119380000D03*
%TO.P,U16,21,IRQ*%
%TO.N,/{slash}INT5*%
X162560000Y-119380000D03*
%TO.P,U16,22,D6*%
%TO.N,/D30*%
X162560000Y-116840000D03*
%TO.P,U16,23,D4*%
%TO.N,/D28*%
X162560000Y-114300000D03*
%TO.P,U16,24,D2*%
%TO.N,/D26*%
X162560000Y-111760000D03*
%TO.P,U16,25,D0*%
%TO.N,/D24*%
X162560000Y-109220000D03*
%TO.P,U16,26,OP6*%
%TO.N,Net-(J1-Pin_7)*%
X162560000Y-106680000D03*
%TO.P,U16,27,OP4*%
%TO.N,Net-(J1-Pin_5)*%
X162560000Y-104140000D03*
%TO.P,U16,28,OP2*%
%TO.N,Net-(J1-Pin_3)*%
X162560000Y-101600000D03*
%TO.P,U16,29,OP0*%
%TO.N,Net-(J1-Pin_1)*%
X162560000Y-99060000D03*
%TO.P,U16,30,TXDA*%
%TO.N,Net-(J3-Pin_1)*%
X162560000Y-96520000D03*
%TO.P,U16,31,RXDA*%
%TO.N,Net-(J3-Pin_2)*%
X162560000Y-93980000D03*
%TO.P,U16,32,X1/CLK*%
%TO.N,Net-(U16-X1{slash}CLK)*%
X162560000Y-91440000D03*
%TO.P,U16,33,X2*%
%TO.N,Net-(U16-X2)*%
X162560000Y-88900000D03*
%TO.P,U16,34,RESET*%
%TO.N,/~{RST}*%
X162560000Y-86360000D03*
%TO.P,U16,35,CS*%
%TO.N,/DUART*%
X162560000Y-83820000D03*
%TO.P,U16,36,IP2*%
%TO.N,Net-(J2-Pin_3)*%
X162560000Y-81280000D03*
%TO.P,U16,37,IACK*%
%TO.N,Net-(U16-IACK)*%
X162560000Y-78740000D03*
%TO.P,U16,38,IP5*%
%TO.N,Net-(J2-Pin_6)*%
X162560000Y-76200000D03*
%TO.P,U16,39,IP4*%
%TO.N,Net-(J2-Pin_5)*%
X162560000Y-73660000D03*
%TO.P,U16,40,VCC*%
%TO.N,+5V*%
X162560000Y-71120000D03*
%TD*%
D13*
%TO.P,U1,A1,BR*%
%TO.N,Net-(U1-BR)*%
X117892000Y-98620000D03*
D14*
%TO.P,U1,A2,A0*%
%TO.N,/A0*%
X115352000Y-98620000D03*
%TO.P,U1,A3,A30*%
%TO.N,/A30*%
X112812000Y-98620000D03*
%TO.P,U1,A4,A28*%
%TO.N,/A28*%
X110272000Y-98620000D03*
%TO.P,U1,A5,A26*%
%TO.N,/A26*%
X107732000Y-98620000D03*
%TO.P,U1,A6,A24*%
%TO.N,/A24*%
X105192000Y-98620000D03*
%TO.P,U1,A7,A23*%
%TO.N,/A23*%
X102652000Y-98620000D03*
%TO.P,U1,A8,A21*%
%TO.N,/A21*%
X100112000Y-98620000D03*
%TO.P,U1,A9,A19*%
%TO.N,/A19*%
X97572000Y-98620000D03*
%TO.P,U1,A10,A17*%
%TO.N,/A17*%
X95032000Y-98620000D03*
%TO.P,U1,A11,A15*%
%TO.N,/A15*%
X92492000Y-98620000D03*
%TO.P,U1,A12,A13*%
%TO.N,/A13*%
X89952000Y-98620000D03*
%TO.P,U1,A13,A10*%
%TO.N,/A10*%
X87412000Y-98620000D03*
%TO.P,U1,B1,RMC*%
%TO.N,unconnected-(U1-RMC-PadB1)*%
X117892000Y-96080000D03*
%TO.P,U1,B2,BG*%
%TO.N,unconnected-(U1-BG-PadB2)*%
X115352000Y-96080000D03*
%TO.P,U1,B3,A31*%
%TO.N,/A31*%
X112812000Y-96080000D03*
%TO.P,U1,B4,A29*%
%TO.N,/A29*%
X110272000Y-96080000D03*
%TO.P,U1,B5,A27*%
%TO.N,/A27*%
X107732000Y-96080000D03*
%TO.P,U1,B6,A25*%
%TO.N,/A25*%
X105192000Y-96080000D03*
%TO.P,U1,B7,A22*%
%TO.N,/A22*%
X102652000Y-96080000D03*
%TO.P,U1,B8,A20*%
%TO.N,/A20*%
X100112000Y-96080000D03*
%TO.P,U1,B9,A16*%
%TO.N,/A16*%
X97572000Y-96080000D03*
%TO.P,U1,B10,A14*%
%TO.N,/A14*%
X95032000Y-96080000D03*
%TO.P,U1,B11,A12*%
%TO.N,/A12*%
X92492000Y-96080000D03*
%TO.P,U1,B12,A8*%
%TO.N,/A8*%
X89952000Y-96080000D03*
%TO.P,U1,B13,A7*%
%TO.N,/A7*%
X87412000Y-96080000D03*
%TO.P,U1,C1,FC1*%
%TO.N,Net-(U1-FC1)*%
X117892000Y-93540000D03*
%TO.P,U1,C2,CIOUT*%
%TO.N,unconnected-(U1-CIOUT-PadC2)*%
X115352000Y-93540000D03*
%TO.P,U1,C3,BGACK*%
%TO.N,Net-(U1-BGACK)*%
X112812000Y-93540000D03*
%TO.P,U1,C4,A1*%
%TO.N,/A1*%
X110272000Y-93540000D03*
%TO.P,U1,C5,GND*%
%TO.N,GND*%
X107732000Y-93540000D03*
%TO.P,U1,C6,VCC*%
%TO.N,+5V*%
X105192000Y-93540000D03*
%TO.P,U1,C7,GND*%
%TO.N,GND*%
X102652000Y-93540000D03*
%TO.P,U1,C8,A18*%
%TO.N,/A18*%
X100112000Y-93540000D03*
%TO.P,U1,C9,GND*%
%TO.N,GND*%
X97572000Y-93540000D03*
%TO.P,U1,C10,A11*%
%TO.N,/A11*%
X95032000Y-93540000D03*
%TO.P,U1,C11,A9*%
%TO.N,/A9*%
X92492000Y-93540000D03*
%TO.P,U1,C12,A5*%
%TO.N,/A5*%
X89952000Y-93540000D03*
%TO.P,U1,C13,A4*%
%TO.N,/A4*%
X87412000Y-93540000D03*
%TO.P,U1,D1,FC2*%
%TO.N,Net-(U1-FC2)*%
X117892000Y-91000000D03*
%TO.P,U1,D2,FC0*%
%TO.N,Net-(U1-FC0)*%
X115352000Y-91000000D03*
%TO.P,U1,D3,OCS*%
%TO.N,unconnected-(U1-OCS-PadD3)*%
X112812000Y-91000000D03*
%TO.P,U1,D4,VCC*%
%TO.N,+5V*%
X110272000Y-91000000D03*
%TO.P,U1,D5,NC*%
%TO.N,unconnected-(U1-NC-PadD5)*%
X107732000Y-91000000D03*
%TO.P,U1,D10,VCC*%
%TO.N,+5V*%
X95032000Y-91000000D03*
%TO.P,U1,D11,A6*%
%TO.N,/A6*%
X92492000Y-91000000D03*
%TO.P,U1,D12,A3*%
%TO.N,/A3*%
X89952000Y-91000000D03*
%TO.P,U1,D13,A2*%
%TO.N,/A2*%
X87412000Y-91000000D03*
%TO.P,U1,E1,CLK*%
%TO.N,Net-(U1-CLK)*%
X117892000Y-88460000D03*
%TO.P,U1,E2,AVEC*%
%TO.N,Net-(U1-AVEC)*%
X115352000Y-88460000D03*
%TO.P,U1,E3,GND*%
%TO.N,GND*%
X112812000Y-88460000D03*
%TO.P,U1,E11,GND*%
X92492000Y-88460000D03*
%TO.P,U1,E12,NC*%
%TO.N,unconnected-(U1-NC-PadE12)*%
X89952000Y-88460000D03*
%TO.P,U1,E13,IPEND*%
%TO.N,unconnected-(U1-IPEND-PadE13)*%
X87412000Y-88460000D03*
%TO.P,U1,F1,DSACK0*%
%TO.N,unconnected-(U1-DSACK0-PadF1)*%
X117892000Y-85920000D03*
%TO.P,U1,F2,VCC*%
%TO.N,+5V*%
X115352000Y-85920000D03*
%TO.P,U1,F3,GND*%
%TO.N,GND*%
X112812000Y-85920000D03*
%TO.P,U1,F4,NC*%
%TO.N,unconnected-(U1-NC-PadF4)*%
X110272000Y-85920000D03*
%TO.P,U1,F10,NC*%
%TO.N,unconnected-(U1-NC-PadF10)*%
X95032000Y-85920000D03*
%TO.P,U1,F11,VCC*%
%TO.N,+5V*%
X92492000Y-85920000D03*
%TO.P,U1,F12,RESET*%
%TO.N,/~{RST}*%
X89952000Y-85920000D03*
%TO.P,U1,F13,MMUDIS*%
%TO.N,Net-(U1-MMUDIS)*%
X87412000Y-85920000D03*
%TO.P,U1,G1,STERM*%
%TO.N,Net-(U1-STERM)*%
X117892000Y-83380000D03*
%TO.P,U1,G2,DSACK1*%
%TO.N,unconnected-(U1-DSACK1-PadG2)*%
X115352000Y-83380000D03*
%TO.P,U1,G3,GND*%
%TO.N,GND*%
X112812000Y-83380000D03*
%TO.P,U1,G11,GND*%
X92492000Y-83380000D03*
%TO.P,U1,G12,IPL2*%
%TO.N,/~{IPL2}*%
X89952000Y-83380000D03*
%TO.P,U1,G13,IPL1*%
%TO.N,/~{IPL1}*%
X87412000Y-83380000D03*
%TO.P,U1,H1,BERR*%
%TO.N,unconnected-(U1-BERR-PadH1)*%
X117892000Y-80840000D03*
%TO.P,U1,H2,HALT*%
%TO.N,Net-(U1-HALT)*%
X115352000Y-80840000D03*
%TO.P,U1,H3,VCC*%
%TO.N,+5V*%
X112812000Y-80840000D03*
%TO.P,U1,H11,VCC*%
X92492000Y-80840000D03*
%TO.P,U1,H12,CDIS*%
%TO.N,Net-(U1-CDIS)*%
X89952000Y-80840000D03*
%TO.P,U1,H13,IPL0*%
%TO.N,/~{IPL0}*%
X87412000Y-80840000D03*
%TO.P,U1,J1,CBACK*%
%TO.N,Net-(U1-CBACK)*%
X117892000Y-78300000D03*
%TO.P,U1,J2,AS*%
%TO.N,unconnected-(U1-AS-PadJ2)*%
X115352000Y-78300000D03*
%TO.P,U1,J3,GND*%
%TO.N,GND*%
X112812000Y-78300000D03*
%TO.P,U1,J11,GND*%
X92492000Y-78300000D03*
%TO.P,U1,J12,STATUS*%
%TO.N,unconnected-(U1-STATUS-PadJ12)*%
X89952000Y-78300000D03*
%TO.P,U1,J13,REFILL*%
%TO.N,unconnected-(U1-REFILL-PadJ13)*%
X87412000Y-78300000D03*
%TO.P,U1,K1,CBREQ*%
%TO.N,unconnected-(U1-CBREQ-PadK1)*%
X117892000Y-75760000D03*
%TO.P,U1,K2,DS*%
%TO.N,/{slash}DS*%
X115352000Y-75760000D03*
%TO.P,U1,K3,SIZ1*%
%TO.N,/SIZ1*%
X112812000Y-75760000D03*
%TO.P,U1,K4,VCC*%
%TO.N,+5V*%
X110272000Y-75760000D03*
%TO.P,U1,K5,NC*%
%TO.N,unconnected-(U1-NC-PadK5)*%
X107732000Y-75760000D03*
%TO.P,U1,K10,VCC*%
%TO.N,+5V*%
X95032000Y-75760000D03*
%TO.P,U1,K11,D5*%
%TO.N,/D5*%
X92492000Y-75760000D03*
%TO.P,U1,K12,D1*%
%TO.N,/D1*%
X89952000Y-75760000D03*
%TO.P,U1,K13,D0*%
%TO.N,/D0*%
X87412000Y-75760000D03*
%TO.P,U1,L1,CIIN*%
%TO.N,Net-(U1-CIIN)*%
X117892000Y-73220000D03*
%TO.P,U1,L2,SIZ0*%
%TO.N,/SIZ0*%
X115352000Y-73220000D03*
%TO.P,U1,L3,R/W*%
%TO.N,/R{slash}W*%
X112812000Y-73220000D03*
%TO.P,U1,L4,D30*%
%TO.N,/D30*%
X110272000Y-73220000D03*
%TO.P,U1,L5,GND*%
%TO.N,GND*%
X107732000Y-73220000D03*
%TO.P,U1,L6,VCC*%
%TO.N,+5V*%
X105192000Y-73220000D03*
%TO.P,U1,L7,GND*%
%TO.N,GND*%
X102652000Y-73220000D03*
%TO.P,U1,L8,GND*%
X100112000Y-73220000D03*
%TO.P,U1,L9,GND*%
X97572000Y-73220000D03*
%TO.P,U1,L10,D10*%
%TO.N,/D10*%
X95032000Y-73220000D03*
%TO.P,U1,L11,D7*%
%TO.N,/D7*%
X92492000Y-73220000D03*
%TO.P,U1,L12,D4*%
%TO.N,/D4*%
X89952000Y-73220000D03*
%TO.P,U1,L13,D2*%
%TO.N,/D2*%
X87412000Y-73220000D03*
%TO.P,U1,M1,DBEN*%
%TO.N,unconnected-(U1-DBEN-PadM1)*%
X117892000Y-70680000D03*
%TO.P,U1,M2,ECS*%
%TO.N,unconnected-(U1-ECS-PadM2)*%
X115352000Y-70680000D03*
%TO.P,U1,M3,D29*%
%TO.N,/D29*%
X112812000Y-70680000D03*
%TO.P,U1,M4,D27*%
%TO.N,/D27*%
X110272000Y-70680000D03*
%TO.P,U1,M5,D24*%
%TO.N,/D24*%
X107732000Y-70680000D03*
%TO.P,U1,M6,D22*%
%TO.N,/D22*%
X105192000Y-70680000D03*
%TO.P,U1,M7,D20*%
%TO.N,/D20*%
X102652000Y-70680000D03*
%TO.P,U1,M8,D17*%
%TO.N,/D17*%
X100112000Y-70680000D03*
%TO.P,U1,M9,D14*%
%TO.N,/D14*%
X97572000Y-70680000D03*
%TO.P,U1,M10,D12*%
%TO.N,/D12*%
X95032000Y-70680000D03*
%TO.P,U1,M11,D9*%
%TO.N,/D9*%
X92492000Y-70680000D03*
%TO.P,U1,M12,D6*%
%TO.N,/D6*%
X89952000Y-70680000D03*
%TO.P,U1,M13,D3*%
%TO.N,/D3*%
X87412000Y-70680000D03*
%TO.P,U1,N1,D31*%
%TO.N,/D31*%
X117892000Y-68140000D03*
%TO.P,U1,N2,D28*%
%TO.N,/D28*%
X115352000Y-68140000D03*
%TO.P,U1,N3,D26*%
%TO.N,/D26*%
X112812000Y-68140000D03*
%TO.P,U1,N4,D25*%
%TO.N,/D25*%
X110272000Y-68140000D03*
%TO.P,U1,N5,D23*%
%TO.N,/D23*%
X107732000Y-68140000D03*
%TO.P,U1,N6,D21*%
%TO.N,/D21*%
X105192000Y-68140000D03*
%TO.P,U1,N7,D19*%
%TO.N,/D19*%
X102652000Y-68140000D03*
%TO.P,U1,N8,D18*%
%TO.N,/D18*%
X100112000Y-68140000D03*
%TO.P,U1,N9,D16*%
%TO.N,/D16*%
X97572000Y-68140000D03*
%TO.P,U1,N10,D15*%
%TO.N,/D15*%
X95032000Y-68140000D03*
%TO.P,U1,N11,D13*%
%TO.N,/D13*%
X92492000Y-68140000D03*
%TO.P,U1,N12,D11*%
%TO.N,/D11*%
X89952000Y-68140000D03*
%TO.P,U1,N13,D8*%
%TO.N,/D8*%
X87412000Y-68140000D03*
%TD*%
D15*
%TO.P,R18,1*%
%TO.N,+5V*%
X165720000Y-93470000D03*
D12*
%TO.P,R18,2*%
%TO.N,Net-(U16-IACK)*%
X175880000Y-93470000D03*
%TD*%
D16*
%TO.P,J4,1,Pin_1*%
%TO.N,Net-(J4-Pin_1)*%
X171120000Y-104470000D03*
D17*
%TO.P,J4,2,Pin_2*%
%TO.N,Net-(J4-Pin_2)*%
X171120000Y-107010000D03*
%TO.P,J4,3,Pin_3*%
%TO.N,GND*%
X171120000Y-109550000D03*
%TD*%
D16*
%TO.P,J3,1,Pin_1*%
%TO.N,Net-(J3-Pin_1)*%
X166470000Y-104470000D03*
D17*
%TO.P,J3,2,Pin_2*%
%TO.N,Net-(J3-Pin_2)*%
X166470000Y-107010000D03*
%TO.P,J3,3,Pin_3*%
%TO.N,GND*%
X166470000Y-109550000D03*
%TD*%
D16*
%TO.P,J2,1,Pin_1*%
%TO.N,Net-(J2-Pin_1)*%
X171120000Y-71370000D03*
D17*
%TO.P,J2,2,Pin_2*%
%TO.N,Net-(J2-Pin_2)*%
X171120000Y-73910000D03*
%TO.P,J2,3,Pin_3*%
%TO.N,Net-(J2-Pin_3)*%
X171120000Y-76450000D03*
%TO.P,J2,4,Pin_4*%
%TO.N,Net-(J2-Pin_4)*%
X171120000Y-78990000D03*
%TO.P,J2,5,Pin_5*%
%TO.N,Net-(J2-Pin_5)*%
X171120000Y-81530000D03*
%TO.P,J2,6,Pin_6*%
%TO.N,Net-(J2-Pin_6)*%
X171120000Y-84070000D03*
%TD*%
D16*
%TO.P,J1,1,Pin_1*%
%TO.N,Net-(J1-Pin_1)*%
X166470000Y-71370000D03*
D17*
%TO.P,J1,2,Pin_2*%
%TO.N,Net-(J1-Pin_2)*%
X166470000Y-73910000D03*
%TO.P,J1,3,Pin_3*%
%TO.N,Net-(J1-Pin_3)*%
X166470000Y-76450000D03*
%TO.P,J1,4,Pin_4*%
%TO.N,Net-(J1-Pin_4)*%
X166470000Y-78990000D03*
%TO.P,J1,5,Pin_5*%
%TO.N,Net-(J1-Pin_5)*%
X166470000Y-81530000D03*
%TO.P,J1,6,Pin_6*%
%TO.N,Net-(J1-Pin_6)*%
X166470000Y-84070000D03*
%TO.P,J1,7,Pin_7*%
%TO.N,Net-(J1-Pin_7)*%
X166470000Y-86610000D03*
%TO.P,J1,8,Pin_8*%
%TO.N,Net-(J1-Pin_8)*%
X166470000Y-89150000D03*
%TD*%
D15*
%TO.P,C3,1*%
%TO.N,Net-(U16-X2)*%
X165720000Y-117020000D03*
%TO.P,C3,2*%
%TO.N,GND*%
X170720000Y-117020000D03*
%TD*%
%TO.P,C2,1*%
%TO.N,Net-(U16-X1{slash}CLK)*%
X165720000Y-113570000D03*
%TO.P,C2,2*%
%TO.N,GND*%
X170720000Y-113570000D03*
%TD*%
D18*
%TO.P,U15,1*%
%TO.N,Net-(U2-Q)*%
X48635000Y-86490000D03*
%TO.P,U15,2*%
%TO.N,/~{RST}*%
X48635000Y-87760000D03*
%TO.P,U15,3*%
%TO.N,unconnected-(U15-Pad3)*%
X48635000Y-89030000D03*
%TO.P,U15,4*%
%TO.N,unconnected-(U15-Pad4)*%
X48635000Y-90300000D03*
%TO.P,U15,5*%
%TO.N,unconnected-(U15-Pad5)*%
X48635000Y-91570000D03*
%TO.P,U15,6*%
%TO.N,unconnected-(U15-Pad6)*%
X48635000Y-92840000D03*
%TO.P,U15,7,GND*%
%TO.N,GND*%
X48635000Y-94110000D03*
%TO.P,U15,8*%
%TO.N,unconnected-(U15-Pad8)*%
X53585000Y-94110000D03*
%TO.P,U15,9*%
%TO.N,unconnected-(U15-Pad9)*%
X53585000Y-92840000D03*
%TO.P,U15,10*%
%TO.N,unconnected-(U15-Pad10)*%
X53585000Y-91570000D03*
%TO.P,U15,11*%
%TO.N,unconnected-(U15-Pad11)*%
X53585000Y-90300000D03*
%TO.P,U15,12*%
%TO.N,unconnected-(U15-Pad12)*%
X53585000Y-89030000D03*
%TO.P,U15,13*%
%TO.N,unconnected-(U15-Pad13)*%
X53585000Y-87760000D03*
%TO.P,U15,14,VCC*%
%TO.N,+5V*%
X53585000Y-86490000D03*
%TD*%
D19*
%TO.P,U14,1,A18*%
%TO.N,/A18*%
X38100000Y-91440000D03*
D20*
%TO.P,U14,2,A16*%
%TO.N,/A16*%
X35560000Y-88900000D03*
%TO.P,U14,3,A15*%
%TO.N,/A15*%
X35560000Y-91440000D03*
%TO.P,U14,4,A12*%
%TO.N,/A12*%
X33020000Y-88900000D03*
%TO.P,U14,5,A7*%
%TO.N,/A7*%
X30480000Y-91440000D03*
%TO.P,U14,6,A6*%
%TO.N,/A6*%
X33020000Y-91440000D03*
%TO.P,U14,7,A5*%
%TO.N,/A5*%
X30480000Y-93980000D03*
%TO.P,U14,8,A4*%
%TO.N,/A4*%
X33020000Y-93980000D03*
%TO.P,U14,9,A3*%
%TO.N,/A3*%
X30480000Y-96520000D03*
%TO.P,U14,10,A2*%
%TO.N,/A2*%
X33020000Y-96520000D03*
%TO.P,U14,11,A1*%
%TO.N,/A1*%
X30480000Y-99060000D03*
%TO.P,U14,12,A0*%
%TO.N,/A0*%
X33020000Y-99060000D03*
%TO.P,U14,13,D0*%
%TO.N,/D24*%
X30480000Y-101600000D03*
%TO.P,U14,14,D1*%
%TO.N,/D25*%
X33020000Y-104140000D03*
%TO.P,U14,15,D2*%
%TO.N,/D26*%
X33020000Y-101600000D03*
%TO.P,U14,16,GND*%
%TO.N,GND*%
X35560000Y-104140000D03*
%TO.P,U14,17,D3*%
%TO.N,/D27*%
X35560000Y-101600000D03*
%TO.P,U14,18,D4*%
%TO.N,/D28*%
X38100000Y-104140000D03*
%TO.P,U14,19,D5*%
%TO.N,/D29*%
X38100000Y-101600000D03*
%TO.P,U14,20,D6*%
%TO.N,/D30*%
X40640000Y-104140000D03*
%TO.P,U14,21,D7*%
%TO.N,/D31*%
X43180000Y-101600000D03*
%TO.P,U14,22,CE*%
%TO.N,/{slash}ROM*%
X40640000Y-101600000D03*
%TO.P,U14,23,A10*%
%TO.N,/A10*%
X43180000Y-99060000D03*
%TO.P,U14,24,OE*%
%TO.N,/{slash}R*%
X40640000Y-99060000D03*
%TO.P,U14,25,A11*%
%TO.N,/A11*%
X43180000Y-96520000D03*
%TO.P,U14,26,A9*%
%TO.N,/A9*%
X40640000Y-96520000D03*
%TO.P,U14,27,A8*%
%TO.N,/A8*%
X43180000Y-93980000D03*
%TO.P,U14,28,A13*%
%TO.N,/A13*%
X40640000Y-93980000D03*
%TO.P,U14,29,A14*%
%TO.N,/A14*%
X43180000Y-91440000D03*
%TO.P,U14,30,A17*%
%TO.N,/A17*%
X40640000Y-88900000D03*
%TO.P,U14,31,PGM*%
%TO.N,/{slash}UUW*%
X40640000Y-91440000D03*
%TO.P,U14,32,VCC*%
%TO.N,+5V*%
X38100000Y-88900000D03*
%TD*%
D15*
%TO.P,R17,1*%
%TO.N,+5V*%
X28350000Y-109870000D03*
D12*
%TO.P,R17,2*%
%TO.N,Net-(U1-STERM)*%
X38510000Y-109870000D03*
%TD*%
D21*
%TO.P,H1,1*%
%TO.N,N/C*%
X21926581Y-177540419D03*
X22871162Y-175260000D03*
X22871162Y-179820838D03*
X25151581Y-174315419D03*
D22*
X25151581Y-177540419D03*
D21*
X25151581Y-180765419D03*
X27432000Y-175260000D03*
X27432000Y-179820838D03*
X28376581Y-177540419D03*
%TD*%
%TO.P,H2,1*%
%TO.N,N/C*%
X176866581Y-177540419D03*
X177811162Y-175260000D03*
X177811162Y-179820838D03*
X180091581Y-174315419D03*
D22*
X180091581Y-177540419D03*
D21*
X180091581Y-180765419D03*
X182372000Y-175260000D03*
X182372000Y-179820838D03*
X183316581Y-177540419D03*
%TD*%
D11*
%TO.P,X1,1,EN*%
%TO.N,+5V*%
X63500000Y-57150000D03*
D15*
%TO.P,X1,7,GND*%
%TO.N,GND*%
X78740000Y-57150000D03*
%TO.P,X1,8,OUT*%
%TO.N,Net-(U1-CLK)*%
X78740000Y-49530000D03*
%TO.P,X1,14,Vcc*%
%TO.N,+5V*%
X63500000Y-49530000D03*
%TD*%
D11*
%TO.P,U22,1,OD/CLK*%
%TO.N,unconnected-(U22-OD{slash}CLK-Pad1)*%
X18220000Y-48290000D03*
D12*
%TO.P,U22,2,I0*%
%TO.N,/SIZ0*%
X18220000Y-50830000D03*
%TO.P,U22,3,I1*%
%TO.N,/SIZ1*%
X18220000Y-53370000D03*
%TO.P,U22,4,I2*%
%TO.N,/A0*%
X18220000Y-55910000D03*
%TO.P,U22,5,I3*%
%TO.N,/A1*%
X18220000Y-58450000D03*
%TO.P,U22,6,I4*%
%TO.N,/R{slash}W*%
X18220000Y-60990000D03*
%TO.P,U22,7,I5*%
%TO.N,/{slash}DS*%
X18220000Y-63530000D03*
%TO.P,U22,8,I6*%
%TO.N,unconnected-(U22-I6-Pad8)*%
X18220000Y-66070000D03*
%TO.P,U22,9,I7*%
%TO.N,unconnected-(U22-I7-Pad9)*%
X18220000Y-68610000D03*
%TO.P,U22,10,I8*%
%TO.N,unconnected-(U22-I8-Pad10)*%
X18220000Y-71150000D03*
%TO.P,U22,11,I9*%
%TO.N,unconnected-(U22-I9-Pad11)*%
X18220000Y-73690000D03*
%TO.P,U22,12,GND*%
%TO.N,GND*%
X18220000Y-76230000D03*
%TO.P,U22,13,CLK/OD*%
%TO.N,unconnected-(U22-CLK{slash}OD-Pad13)*%
X25840000Y-76230000D03*
%TO.P,U22,14,LR/O4*%
%TO.N,unconnected-(U22-LR{slash}O4-Pad14)*%
X25840000Y-73690000D03*
%TO.P,U22,15,A0/O3*%
%TO.N,unconnected-(U22-A0{slash}O3-Pad15)*%
X25840000Y-71150000D03*
%TO.P,U22,16,A1/O2*%
%TO.N,unconnected-(U22-A1{slash}O2-Pad16)*%
X25840000Y-68610000D03*
%TO.P,U22,17,A2/O1*%
%TO.N,/{slash}R*%
X25840000Y-66070000D03*
%TO.P,U22,18,NC/O0*%
%TO.N,/{slash}LW*%
X25840000Y-63530000D03*
%TO.P,U22,19,O4/NC*%
%TO.N,/{slash}UW*%
X25840000Y-60990000D03*
%TO.P,U22,20,O3/A2*%
%TO.N,/{slash}LLW*%
X25840000Y-58450000D03*
%TO.P,U22,21,O2/A1*%
%TO.N,/{slash}LMW*%
X25840000Y-55910000D03*
%TO.P,U22,22,O1/A0*%
%TO.N,/{slash}UMW*%
X25840000Y-53370000D03*
%TO.P,U22,23,O0/LR*%
%TO.N,/{slash}UUW*%
X25840000Y-50830000D03*
%TO.P,U22,24,VCC*%
%TO.N,+5V*%
X25840000Y-48290000D03*
%TD*%
D11*
%TO.P,U13,1,A18*%
%TO.N,/A20*%
X157480000Y-142240000D03*
D12*
%TO.P,U13,2,A16*%
%TO.N,/A18*%
X157480000Y-144780000D03*
%TO.P,U13,3,A14*%
%TO.N,/A16*%
X157480000Y-147320000D03*
%TO.P,U13,4,A12*%
%TO.N,/A14*%
X157480000Y-149860000D03*
%TO.P,U13,5,A7*%
%TO.N,/A9*%
X157480000Y-152400000D03*
%TO.P,U13,6,A6*%
%TO.N,/A8*%
X157480000Y-154940000D03*
%TO.P,U13,7,A5*%
%TO.N,/A7*%
X157480000Y-157480000D03*
%TO.P,U13,8,A4*%
%TO.N,/A6*%
X157480000Y-160020000D03*
%TO.P,U13,9,A3*%
%TO.N,/A5*%
X157480000Y-162560000D03*
%TO.P,U13,10,A2*%
%TO.N,/A4*%
X157480000Y-165100000D03*
%TO.P,U13,11,A1*%
%TO.N,/A3*%
X157480000Y-167640000D03*
%TO.P,U13,12,A0*%
%TO.N,/A2*%
X157480000Y-170180000D03*
%TO.P,U13,13,DQ0*%
%TO.N,/D8*%
X157480000Y-172720000D03*
%TO.P,U13,14,DQ1*%
%TO.N,/D9*%
X157480000Y-175260000D03*
%TO.P,U13,15,DQ2*%
%TO.N,/D10*%
X157480000Y-177800000D03*
%TO.P,U13,16,VSS*%
%TO.N,GND*%
X157480000Y-180340000D03*
%TO.P,U13,17,DQ3*%
%TO.N,/D11*%
X172720000Y-180340000D03*
%TO.P,U13,18,DQ4*%
%TO.N,/D12*%
X172720000Y-177800000D03*
%TO.P,U13,19,DQ5*%
%TO.N,/D13*%
X172720000Y-175260000D03*
%TO.P,U13,20,DQ6*%
%TO.N,/D14*%
X172720000Y-172720000D03*
%TO.P,U13,21,DQ7*%
%TO.N,/D15*%
X172720000Y-170180000D03*
%TO.P,U13,22,CE#*%
%TO.N,/{slash}B1*%
X172720000Y-167640000D03*
%TO.P,U13,23,A10*%
%TO.N,/A12*%
X172720000Y-165100000D03*
%TO.P,U13,24,OE#*%
%TO.N,/{slash}R*%
X172720000Y-162560000D03*
%TO.P,U13,25,A11*%
%TO.N,/A13*%
X172720000Y-160020000D03*
%TO.P,U13,26,A9*%
%TO.N,/A11*%
X172720000Y-157480000D03*
%TO.P,U13,27,A8*%
%TO.N,/A10*%
X172720000Y-154940000D03*
%TO.P,U13,28,A13*%
%TO.N,/A15*%
X172720000Y-152400000D03*
%TO.P,U13,29,WE#*%
%TO.N,/{slash}LMW*%
X172720000Y-149860000D03*
%TO.P,U13,30,A17*%
%TO.N,/A19*%
X172720000Y-147320000D03*
%TO.P,U13,31,A15*%
%TO.N,/A17*%
X172720000Y-144780000D03*
%TO.P,U13,32,VCC*%
%TO.N,+5V*%
X172720000Y-142240000D03*
%TD*%
D11*
%TO.P,U12,1,A18*%
%TO.N,/A20*%
X139700000Y-142240000D03*
D12*
%TO.P,U12,2,A16*%
%TO.N,/A18*%
X139700000Y-144780000D03*
%TO.P,U12,3,A14*%
%TO.N,/A16*%
X139700000Y-147320000D03*
%TO.P,U12,4,A12*%
%TO.N,/A14*%
X139700000Y-149860000D03*
%TO.P,U12,5,A7*%
%TO.N,/A9*%
X139700000Y-152400000D03*
%TO.P,U12,6,A6*%
%TO.N,/A8*%
X139700000Y-154940000D03*
%TO.P,U12,7,A5*%
%TO.N,/A7*%
X139700000Y-157480000D03*
%TO.P,U12,8,A4*%
%TO.N,/A6*%
X139700000Y-160020000D03*
%TO.P,U12,9,A3*%
%TO.N,/A5*%
X139700000Y-162560000D03*
%TO.P,U12,10,A2*%
%TO.N,/A4*%
X139700000Y-165100000D03*
%TO.P,U12,11,A1*%
%TO.N,/A3*%
X139700000Y-167640000D03*
%TO.P,U12,12,A0*%
%TO.N,/A2*%
X139700000Y-170180000D03*
%TO.P,U12,13,DQ0*%
%TO.N,/D0*%
X139700000Y-172720000D03*
%TO.P,U12,14,DQ1*%
%TO.N,/D1*%
X139700000Y-175260000D03*
%TO.P,U12,15,DQ2*%
%TO.N,/D2*%
X139700000Y-177800000D03*
%TO.P,U12,16,VSS*%
%TO.N,GND*%
X139700000Y-180340000D03*
%TO.P,U12,17,DQ3*%
%TO.N,/D3*%
X154940000Y-180340000D03*
%TO.P,U12,18,DQ4*%
%TO.N,/D4*%
X154940000Y-177800000D03*
%TO.P,U12,19,DQ5*%
%TO.N,/D5*%
X154940000Y-175260000D03*
%TO.P,U12,20,DQ6*%
%TO.N,/D6*%
X154940000Y-172720000D03*
%TO.P,U12,21,DQ7*%
%TO.N,/D7*%
X154940000Y-170180000D03*
%TO.P,U12,22,CE#*%
%TO.N,/{slash}B1*%
X154940000Y-167640000D03*
%TO.P,U12,23,A10*%
%TO.N,/A12*%
X154940000Y-165100000D03*
%TO.P,U12,24,OE#*%
%TO.N,/{slash}R*%
X154940000Y-162560000D03*
%TO.P,U12,25,A11*%
%TO.N,/A13*%
X154940000Y-160020000D03*
%TO.P,U12,26,A9*%
%TO.N,/A11*%
X154940000Y-157480000D03*
%TO.P,U12,27,A8*%
%TO.N,/A10*%
X154940000Y-154940000D03*
%TO.P,U12,28,A13*%
%TO.N,/A15*%
X154940000Y-152400000D03*
%TO.P,U12,29,WE#*%
%TO.N,/{slash}LLW*%
X154940000Y-149860000D03*
%TO.P,U12,30,A17*%
%TO.N,/A19*%
X154940000Y-147320000D03*
%TO.P,U12,31,A15*%
%TO.N,/A17*%
X154940000Y-144780000D03*
%TO.P,U12,32,VCC*%
%TO.N,+5V*%
X154940000Y-142240000D03*
%TD*%
D11*
%TO.P,U11,1,A18*%
%TO.N,/A20*%
X121920000Y-142240000D03*
D12*
%TO.P,U11,2,A16*%
%TO.N,/A18*%
X121920000Y-144780000D03*
%TO.P,U11,3,A14*%
%TO.N,/A16*%
X121920000Y-147320000D03*
%TO.P,U11,4,A12*%
%TO.N,/A14*%
X121920000Y-149860000D03*
%TO.P,U11,5,A7*%
%TO.N,/A9*%
X121920000Y-152400000D03*
%TO.P,U11,6,A6*%
%TO.N,/A8*%
X121920000Y-154940000D03*
%TO.P,U11,7,A5*%
%TO.N,/A7*%
X121920000Y-157480000D03*
%TO.P,U11,8,A4*%
%TO.N,/A6*%
X121920000Y-160020000D03*
%TO.P,U11,9,A3*%
%TO.N,/A5*%
X121920000Y-162560000D03*
%TO.P,U11,10,A2*%
%TO.N,/A4*%
X121920000Y-165100000D03*
%TO.P,U11,11,A1*%
%TO.N,/A3*%
X121920000Y-167640000D03*
%TO.P,U11,12,A0*%
%TO.N,/A2*%
X121920000Y-170180000D03*
%TO.P,U11,13,DQ0*%
%TO.N,/D24*%
X121920000Y-172720000D03*
%TO.P,U11,14,DQ1*%
%TO.N,/D25*%
X121920000Y-175260000D03*
%TO.P,U11,15,DQ2*%
%TO.N,/D26*%
X121920000Y-177800000D03*
%TO.P,U11,16,VSS*%
%TO.N,GND*%
X121920000Y-180340000D03*
%TO.P,U11,17,DQ3*%
%TO.N,/D27*%
X137160000Y-180340000D03*
%TO.P,U11,18,DQ4*%
%TO.N,/D28*%
X137160000Y-177800000D03*
%TO.P,U11,19,DQ5*%
%TO.N,/D29*%
X137160000Y-175260000D03*
%TO.P,U11,20,DQ6*%
%TO.N,/D30*%
X137160000Y-172720000D03*
%TO.P,U11,21,DQ7*%
%TO.N,/D31*%
X137160000Y-170180000D03*
%TO.P,U11,22,CE#*%
%TO.N,/{slash}B1*%
X137160000Y-167640000D03*
%TO.P,U11,23,A10*%
%TO.N,/A12*%
X137160000Y-165100000D03*
%TO.P,U11,24,OE#*%
%TO.N,/{slash}R*%
X137160000Y-162560000D03*
%TO.P,U11,25,A11*%
%TO.N,/A13*%
X137160000Y-160020000D03*
%TO.P,U11,26,A9*%
%TO.N,/A11*%
X137160000Y-157480000D03*
%TO.P,U11,27,A8*%
%TO.N,/A10*%
X137160000Y-154940000D03*
%TO.P,U11,28,A13*%
%TO.N,/A15*%
X137160000Y-152400000D03*
%TO.P,U11,29,WE#*%
%TO.N,/{slash}UUW*%
X137160000Y-149860000D03*
%TO.P,U11,30,A17*%
%TO.N,/A19*%
X137160000Y-147320000D03*
%TO.P,U11,31,A15*%
%TO.N,/A17*%
X137160000Y-144780000D03*
%TO.P,U11,32,VCC*%
%TO.N,+5V*%
X137160000Y-142240000D03*
%TD*%
D11*
%TO.P,U10,1,A18*%
%TO.N,/A20*%
X104032000Y-142296000D03*
D12*
%TO.P,U10,2,A16*%
%TO.N,/A18*%
X104032000Y-144836000D03*
%TO.P,U10,3,A14*%
%TO.N,/A16*%
X104032000Y-147376000D03*
%TO.P,U10,4,A12*%
%TO.N,/A14*%
X104032000Y-149916000D03*
%TO.P,U10,5,A7*%
%TO.N,/A9*%
X104032000Y-152456000D03*
%TO.P,U10,6,A6*%
%TO.N,/A8*%
X104032000Y-154996000D03*
%TO.P,U10,7,A5*%
%TO.N,/A7*%
X104032000Y-157536000D03*
%TO.P,U10,8,A4*%
%TO.N,/A6*%
X104032000Y-160076000D03*
%TO.P,U10,9,A3*%
%TO.N,/A5*%
X104032000Y-162616000D03*
%TO.P,U10,10,A2*%
%TO.N,/A4*%
X104032000Y-165156000D03*
%TO.P,U10,11,A1*%
%TO.N,/A3*%
X104032000Y-167696000D03*
%TO.P,U10,12,A0*%
%TO.N,/A2*%
X104032000Y-170236000D03*
%TO.P,U10,13,DQ0*%
%TO.N,/D16*%
X104032000Y-172776000D03*
%TO.P,U10,14,DQ1*%
%TO.N,/D17*%
X104032000Y-175316000D03*
%TO.P,U10,15,DQ2*%
%TO.N,/D18*%
X104032000Y-177856000D03*
%TO.P,U10,16,VSS*%
%TO.N,GND*%
X104032000Y-180396000D03*
%TO.P,U10,17,DQ3*%
%TO.N,/D19*%
X119272000Y-180396000D03*
%TO.P,U10,18,DQ4*%
%TO.N,/D20*%
X119272000Y-177856000D03*
%TO.P,U10,19,DQ5*%
%TO.N,/D21*%
X119272000Y-175316000D03*
%TO.P,U10,20,DQ6*%
%TO.N,/D22*%
X119272000Y-172776000D03*
%TO.P,U10,21,DQ7*%
%TO.N,/D23*%
X119272000Y-170236000D03*
%TO.P,U10,22,CE#*%
%TO.N,/{slash}B1*%
X119272000Y-167696000D03*
%TO.P,U10,23,A10*%
%TO.N,/A12*%
X119272000Y-165156000D03*
%TO.P,U10,24,OE#*%
%TO.N,/{slash}R*%
X119272000Y-162616000D03*
%TO.P,U10,25,A11*%
%TO.N,/A13*%
X119272000Y-160076000D03*
%TO.P,U10,26,A9*%
%TO.N,/A11*%
X119272000Y-157536000D03*
%TO.P,U10,27,A8*%
%TO.N,/A10*%
X119272000Y-154996000D03*
%TO.P,U10,28,A13*%
%TO.N,/A15*%
X119272000Y-152456000D03*
%TO.P,U10,29,WE#*%
%TO.N,/{slash}UMW*%
X119272000Y-149916000D03*
%TO.P,U10,30,A17*%
%TO.N,/A19*%
X119272000Y-147376000D03*
%TO.P,U10,31,A15*%
%TO.N,/A17*%
X119272000Y-144836000D03*
%TO.P,U10,32,VCC*%
%TO.N,+5V*%
X119272000Y-142296000D03*
%TD*%
D11*
%TO.P,U9,1,A18*%
%TO.N,/A20*%
X84328000Y-142240000D03*
D12*
%TO.P,U9,2,A16*%
%TO.N,/A18*%
X84328000Y-144780000D03*
%TO.P,U9,3,A14*%
%TO.N,/A16*%
X84328000Y-147320000D03*
%TO.P,U9,4,A12*%
%TO.N,/A14*%
X84328000Y-149860000D03*
%TO.P,U9,5,A7*%
%TO.N,/A9*%
X84328000Y-152400000D03*
%TO.P,U9,6,A6*%
%TO.N,/A8*%
X84328000Y-154940000D03*
%TO.P,U9,7,A5*%
%TO.N,/A7*%
X84328000Y-157480000D03*
%TO.P,U9,8,A4*%
%TO.N,/A6*%
X84328000Y-160020000D03*
%TO.P,U9,9,A3*%
%TO.N,/A5*%
X84328000Y-162560000D03*
%TO.P,U9,10,A2*%
%TO.N,/A4*%
X84328000Y-165100000D03*
%TO.P,U9,11,A1*%
%TO.N,/A3*%
X84328000Y-167640000D03*
%TO.P,U9,12,A0*%
%TO.N,/A2*%
X84328000Y-170180000D03*
%TO.P,U9,13,DQ0*%
%TO.N,/D24*%
X84328000Y-172720000D03*
%TO.P,U9,14,DQ1*%
%TO.N,/D25*%
X84328000Y-175260000D03*
%TO.P,U9,15,DQ2*%
%TO.N,/D26*%
X84328000Y-177800000D03*
%TO.P,U9,16,VSS*%
%TO.N,GND*%
X84328000Y-180340000D03*
%TO.P,U9,17,DQ3*%
%TO.N,/D27*%
X99568000Y-180340000D03*
%TO.P,U9,18,DQ4*%
%TO.N,/D28*%
X99568000Y-177800000D03*
%TO.P,U9,19,DQ5*%
%TO.N,/D29*%
X99568000Y-175260000D03*
%TO.P,U9,20,DQ6*%
%TO.N,/D30*%
X99568000Y-172720000D03*
%TO.P,U9,21,DQ7*%
%TO.N,/D31*%
X99568000Y-170180000D03*
%TO.P,U9,22,CE#*%
%TO.N,/{slash}B0*%
X99568000Y-167640000D03*
%TO.P,U9,23,A10*%
%TO.N,/A12*%
X99568000Y-165100000D03*
%TO.P,U9,24,OE#*%
%TO.N,/{slash}R*%
X99568000Y-162560000D03*
%TO.P,U9,25,A11*%
%TO.N,/A13*%
X99568000Y-160020000D03*
%TO.P,U9,26,A9*%
%TO.N,/A11*%
X99568000Y-157480000D03*
%TO.P,U9,27,A8*%
%TO.N,/A10*%
X99568000Y-154940000D03*
%TO.P,U9,28,A13*%
%TO.N,/A15*%
X99568000Y-152400000D03*
%TO.P,U9,29,WE#*%
%TO.N,/{slash}UUW*%
X99568000Y-149860000D03*
%TO.P,U9,30,A17*%
%TO.N,/A19*%
X99568000Y-147320000D03*
%TO.P,U9,31,A15*%
%TO.N,/A17*%
X99568000Y-144780000D03*
%TO.P,U9,32,VCC*%
%TO.N,+5V*%
X99568000Y-142240000D03*
%TD*%
D11*
%TO.P,U8,1,A18*%
%TO.N,/A20*%
X66548000Y-142240000D03*
D12*
%TO.P,U8,2,A16*%
%TO.N,/A18*%
X66548000Y-144780000D03*
%TO.P,U8,3,A14*%
%TO.N,/A16*%
X66548000Y-147320000D03*
%TO.P,U8,4,A12*%
%TO.N,/A14*%
X66548000Y-149860000D03*
%TO.P,U8,5,A7*%
%TO.N,/A9*%
X66548000Y-152400000D03*
%TO.P,U8,6,A6*%
%TO.N,/A8*%
X66548000Y-154940000D03*
%TO.P,U8,7,A5*%
%TO.N,/A7*%
X66548000Y-157480000D03*
%TO.P,U8,8,A4*%
%TO.N,/A6*%
X66548000Y-160020000D03*
%TO.P,U8,9,A3*%
%TO.N,/A5*%
X66548000Y-162560000D03*
%TO.P,U8,10,A2*%
%TO.N,/A4*%
X66548000Y-165100000D03*
%TO.P,U8,11,A1*%
%TO.N,/A3*%
X66548000Y-167640000D03*
%TO.P,U8,12,A0*%
%TO.N,/A2*%
X66548000Y-170180000D03*
%TO.P,U8,13,DQ0*%
%TO.N,/D16*%
X66548000Y-172720000D03*
%TO.P,U8,14,DQ1*%
%TO.N,/D17*%
X66548000Y-175260000D03*
%TO.P,U8,15,DQ2*%
%TO.N,/D18*%
X66548000Y-177800000D03*
%TO.P,U8,16,VSS*%
%TO.N,GND*%
X66548000Y-180340000D03*
%TO.P,U8,17,DQ3*%
%TO.N,/D19*%
X81788000Y-180340000D03*
%TO.P,U8,18,DQ4*%
%TO.N,/D20*%
X81788000Y-177800000D03*
%TO.P,U8,19,DQ5*%
%TO.N,/D21*%
X81788000Y-175260000D03*
%TO.P,U8,20,DQ6*%
%TO.N,/D22*%
X81788000Y-172720000D03*
%TO.P,U8,21,DQ7*%
%TO.N,/D23*%
X81788000Y-170180000D03*
%TO.P,U8,22,CE#*%
%TO.N,/{slash}B0*%
X81788000Y-167640000D03*
%TO.P,U8,23,A10*%
%TO.N,/A12*%
X81788000Y-165100000D03*
%TO.P,U8,24,OE#*%
%TO.N,/{slash}R*%
X81788000Y-162560000D03*
%TO.P,U8,25,A11*%
%TO.N,/A13*%
X81788000Y-160020000D03*
%TO.P,U8,26,A9*%
%TO.N,/A11*%
X81788000Y-157480000D03*
%TO.P,U8,27,A8*%
%TO.N,/A10*%
X81788000Y-154940000D03*
%TO.P,U8,28,A13*%
%TO.N,/A15*%
X81788000Y-152400000D03*
%TO.P,U8,29,WE#*%
%TO.N,/{slash}UMW*%
X81788000Y-149860000D03*
%TO.P,U8,30,A17*%
%TO.N,/A19*%
X81788000Y-147320000D03*
%TO.P,U8,31,A15*%
%TO.N,/A17*%
X81788000Y-144780000D03*
%TO.P,U8,32,VCC*%
%TO.N,+5V*%
X81788000Y-142240000D03*
%TD*%
D11*
%TO.P,U7,1,A18*%
%TO.N,/A20*%
X48832000Y-142296000D03*
D12*
%TO.P,U7,2,A16*%
%TO.N,/A18*%
X48832000Y-144836000D03*
%TO.P,U7,3,A14*%
%TO.N,/A16*%
X48832000Y-147376000D03*
%TO.P,U7,4,A12*%
%TO.N,/A14*%
X48832000Y-149916000D03*
%TO.P,U7,5,A7*%
%TO.N,/A9*%
X48832000Y-152456000D03*
%TO.P,U7,6,A6*%
%TO.N,/A8*%
X48832000Y-154996000D03*
%TO.P,U7,7,A5*%
%TO.N,/A7*%
X48832000Y-157536000D03*
%TO.P,U7,8,A4*%
%TO.N,/A6*%
X48832000Y-160076000D03*
%TO.P,U7,9,A3*%
%TO.N,/A5*%
X48832000Y-162616000D03*
%TO.P,U7,10,A2*%
%TO.N,/A4*%
X48832000Y-165156000D03*
%TO.P,U7,11,A1*%
%TO.N,/A3*%
X48832000Y-167696000D03*
%TO.P,U7,12,A0*%
%TO.N,/A2*%
X48832000Y-170236000D03*
%TO.P,U7,13,DQ0*%
%TO.N,/D8*%
X48832000Y-172776000D03*
%TO.P,U7,14,DQ1*%
%TO.N,/D9*%
X48832000Y-175316000D03*
%TO.P,U7,15,DQ2*%
%TO.N,/D10*%
X48832000Y-177856000D03*
%TO.P,U7,16,VSS*%
%TO.N,GND*%
X48832000Y-180396000D03*
%TO.P,U7,17,DQ3*%
%TO.N,/D11*%
X64072000Y-180396000D03*
%TO.P,U7,18,DQ4*%
%TO.N,/D12*%
X64072000Y-177856000D03*
%TO.P,U7,19,DQ5*%
%TO.N,/D13*%
X64072000Y-175316000D03*
%TO.P,U7,20,DQ6*%
%TO.N,/D14*%
X64072000Y-172776000D03*
%TO.P,U7,21,DQ7*%
%TO.N,/D15*%
X64072000Y-170236000D03*
%TO.P,U7,22,CE#*%
%TO.N,/{slash}B0*%
X64072000Y-167696000D03*
%TO.P,U7,23,A10*%
%TO.N,/A12*%
X64072000Y-165156000D03*
%TO.P,U7,24,OE#*%
%TO.N,/{slash}R*%
X64072000Y-162616000D03*
%TO.P,U7,25,A11*%
%TO.N,/A13*%
X64072000Y-160076000D03*
%TO.P,U7,26,A9*%
%TO.N,/A11*%
X64072000Y-157536000D03*
%TO.P,U7,27,A8*%
%TO.N,/A10*%
X64072000Y-154996000D03*
%TO.P,U7,28,A13*%
%TO.N,/A15*%
X64072000Y-152456000D03*
%TO.P,U7,29,WE#*%
%TO.N,/{slash}LMW*%
X64072000Y-149916000D03*
%TO.P,U7,30,A17*%
%TO.N,/A19*%
X64072000Y-147376000D03*
%TO.P,U7,31,A15*%
%TO.N,/A17*%
X64072000Y-144836000D03*
%TO.P,U7,32,VCC*%
%TO.N,+5V*%
X64072000Y-142296000D03*
%TD*%
%TO.P,U6,32,VCC*%
%TO.N,+5V*%
X46482000Y-142296000D03*
%TO.P,U6,31,A15*%
%TO.N,/A17*%
X46482000Y-144836000D03*
%TO.P,U6,30,A17*%
%TO.N,/A19*%
X46482000Y-147376000D03*
%TO.P,U6,29,WE#*%
%TO.N,/{slash}LLW*%
X46482000Y-149916000D03*
%TO.P,U6,28,A13*%
%TO.N,/A15*%
X46482000Y-152456000D03*
%TO.P,U6,27,A8*%
%TO.N,/A10*%
X46482000Y-154996000D03*
%TO.P,U6,26,A9*%
%TO.N,/A11*%
X46482000Y-157536000D03*
%TO.P,U6,25,A11*%
%TO.N,/A13*%
X46482000Y-160076000D03*
%TO.P,U6,24,OE#*%
%TO.N,/{slash}R*%
X46482000Y-162616000D03*
%TO.P,U6,23,A10*%
%TO.N,/A12*%
X46482000Y-165156000D03*
%TO.P,U6,22,CE#*%
%TO.N,/{slash}B0*%
X46482000Y-167696000D03*
%TO.P,U6,21,DQ7*%
%TO.N,/D7*%
X46482000Y-170236000D03*
%TO.P,U6,20,DQ6*%
%TO.N,/D6*%
X46482000Y-172776000D03*
%TO.P,U6,19,DQ5*%
%TO.N,/D5*%
X46482000Y-175316000D03*
%TO.P,U6,18,DQ4*%
%TO.N,/D4*%
X46482000Y-177856000D03*
%TO.P,U6,17,DQ3*%
%TO.N,/D3*%
X46482000Y-180396000D03*
%TO.P,U6,16,VSS*%
%TO.N,GND*%
X31242000Y-180396000D03*
%TO.P,U6,15,DQ2*%
%TO.N,/D2*%
X31242000Y-177856000D03*
%TO.P,U6,14,DQ1*%
%TO.N,/D1*%
X31242000Y-175316000D03*
%TO.P,U6,13,DQ0*%
%TO.N,/D0*%
X31242000Y-172776000D03*
%TO.P,U6,12,A0*%
%TO.N,/A2*%
X31242000Y-170236000D03*
%TO.P,U6,11,A1*%
%TO.N,/A3*%
X31242000Y-167696000D03*
%TO.P,U6,10,A2*%
%TO.N,/A4*%
X31242000Y-165156000D03*
%TO.P,U6,9,A3*%
%TO.N,/A5*%
X31242000Y-162616000D03*
%TO.P,U6,8,A4*%
%TO.N,/A6*%
X31242000Y-160076000D03*
%TO.P,U6,7,A5*%
%TO.N,/A7*%
X31242000Y-157536000D03*
%TO.P,U6,6,A6*%
%TO.N,/A8*%
X31242000Y-154996000D03*
%TO.P,U6,5,A7*%
%TO.N,/A9*%
X31242000Y-152456000D03*
%TO.P,U6,4,A12*%
%TO.N,/A14*%
X31242000Y-149916000D03*
%TO.P,U6,3,A14*%
%TO.N,/A16*%
X31242000Y-147376000D03*
%TO.P,U6,2,A16*%
%TO.N,/A18*%
X31242000Y-144836000D03*
D11*
%TO.P,U6,1,A18*%
%TO.N,/A20*%
X31242000Y-142296000D03*
%TD*%
%TO.P,U5,1,I4*%
%TO.N,/{slash}INT3*%
X29070000Y-48290000D03*
D12*
%TO.P,U5,2,I5*%
%TO.N,/{slash}INT4*%
X29070000Y-50830000D03*
%TO.P,U5,3,I6*%
%TO.N,/{slash}INT5*%
X29070000Y-53370000D03*
%TO.P,U5,4,I7*%
%TO.N,/{slash}INT6*%
X29070000Y-55910000D03*
%TO.P,U5,5,EI*%
%TO.N,GND*%
X29070000Y-58450000D03*
%TO.P,U5,6,S2*%
%TO.N,/~{IPL2}*%
X29070000Y-60990000D03*
%TO.P,U5,7,S1*%
%TO.N,/~{IPL1}*%
X29070000Y-63530000D03*
%TO.P,U5,8,GND*%
%TO.N,GND*%
X29070000Y-66070000D03*
%TO.P,U5,9,S0*%
%TO.N,/~{IPL0}*%
X36690000Y-66070000D03*
%TO.P,U5,10,IO*%
%TO.N,+5V*%
X36690000Y-63530000D03*
%TO.P,U5,11,I1*%
%TO.N,/{slash}INT0*%
X36690000Y-60990000D03*
%TO.P,U5,12,I2*%
%TO.N,/{slash}INT1*%
X36690000Y-58450000D03*
%TO.P,U5,13,I3*%
%TO.N,/{slash}INT2*%
X36690000Y-55910000D03*
%TO.P,U5,14,GS*%
%TO.N,unconnected-(U5-GS-Pad14)*%
X36690000Y-53370000D03*
%TO.P,U5,15,EO*%
%TO.N,unconnected-(U5-EO-Pad15)*%
X36690000Y-50830000D03*
%TO.P,U5,16,VCC*%
%TO.N,+5V*%
X36690000Y-48290000D03*
%TD*%
D11*
%TO.P,U4,1*%
%TO.N,unconnected-(U4-Pad1)*%
X50770000Y-48290000D03*
D12*
%TO.P,U4,2*%
%TO.N,unconnected-(U4-Pad2)*%
X50770000Y-50830000D03*
%TO.P,U4,3*%
%TO.N,unconnected-(U4-Pad3)*%
X50770000Y-53370000D03*
%TO.P,U4,4*%
%TO.N,Net-(U1-FC2)*%
X50770000Y-55910000D03*
%TO.P,U4,5*%
%TO.N,Net-(U1-FC1)*%
X50770000Y-58450000D03*
%TO.P,U4,6*%
%TO.N,Net-(U3-Pad4)*%
X50770000Y-60990000D03*
%TO.P,U4,7,GND*%
%TO.N,GND*%
X50770000Y-63530000D03*
%TO.P,U4,8*%
%TO.N,Net-(U3-Pad1)*%
X58390000Y-63530000D03*
%TO.P,U4,9*%
%TO.N,/A30*%
X58390000Y-60990000D03*
%TO.P,U4,10*%
%TO.N,/A31*%
X58390000Y-58450000D03*
%TO.P,U4,11*%
%TO.N,unconnected-(U4-Pad11)*%
X58390000Y-55910000D03*
%TO.P,U4,12*%
%TO.N,unconnected-(U4-Pad12)*%
X58390000Y-53370000D03*
%TO.P,U4,13*%
%TO.N,unconnected-(U4-Pad13)*%
X58390000Y-50830000D03*
%TO.P,U4,14,VCC*%
%TO.N,+5V*%
X58390000Y-48290000D03*
%TD*%
D11*
%TO.P,U3,1*%
%TO.N,Net-(U3-Pad1)*%
X39920000Y-48290000D03*
D12*
%TO.P,U3,2*%
%TO.N,/A31*%
X39920000Y-50830000D03*
%TO.P,U3,3*%
%TO.N,/{slash}IO*%
X39920000Y-53370000D03*
%TO.P,U3,4*%
%TO.N,Net-(U3-Pad4)*%
X39920000Y-55910000D03*
%TO.P,U3,5*%
%TO.N,Net-(U1-FC0)*%
X39920000Y-58450000D03*
%TO.P,U3,6*%
%TO.N,Net-(U1-AVEC)*%
X39920000Y-60990000D03*
%TO.P,U3,7,GND*%
%TO.N,GND*%
X39920000Y-63530000D03*
%TO.P,U3,8*%
%TO.N,Net-(U3-Pad12)*%
X47540000Y-63530000D03*
%TO.P,U3,9*%
%TO.N,/A30*%
X47540000Y-60990000D03*
%TO.P,U3,10*%
%TO.N,/A31*%
X47540000Y-58450000D03*
%TO.P,U3,11*%
%TO.N,/{slash}ROM*%
X47540000Y-55910000D03*
%TO.P,U3,12*%
%TO.N,Net-(U3-Pad12)*%
X47540000Y-53370000D03*
%TO.P,U3,13*%
%TO.N,/A31*%
X47540000Y-50830000D03*
%TO.P,U3,14,VCC*%
%TO.N,+5V*%
X47540000Y-48290000D03*
%TD*%
D11*
%TO.P,U2,1,GND*%
%TO.N,GND*%
X61620000Y-62540000D03*
D12*
%TO.P,U2,2,TR*%
%TO.N,Net-(U2-THR)*%
X61620000Y-65080000D03*
%TO.P,U2,3,Q*%
%TO.N,Net-(U2-Q)*%
X61620000Y-67620000D03*
%TO.P,U2,4,R*%
%TO.N,+5V*%
X61620000Y-70160000D03*
%TO.P,U2,5,CV*%
%TO.N,unconnected-(U2-CV-Pad5)*%
X69240000Y-70160000D03*
%TO.P,U2,6,THR*%
%TO.N,Net-(U2-THR)*%
X69240000Y-67620000D03*
%TO.P,U2,7,DIS*%
%TO.N,unconnected-(U2-DIS-Pad7)*%
X69240000Y-65080000D03*
%TO.P,U2,8,VCC*%
%TO.N,+5V*%
X69240000Y-62540000D03*
%TD*%
D23*
%TO.P,SW1,1,1*%
%TO.N,GND*%
X79370000Y-62490000D03*
X72870000Y-62490000D03*
%TO.P,SW1,2,2*%
%TO.N,Net-(U2-THR)*%
X79370000Y-66990000D03*
X72870000Y-66990000D03*
%TD*%
D15*
%TO.P,R16,1*%
%TO.N,+5V*%
X130980000Y-33020000D03*
D12*
%TO.P,R16,2*%
%TO.N,Net-(U1-CBACK)*%
X130980000Y-22860000D03*
%TD*%
D15*
%TO.P,R15,1*%
%TO.N,+5V*%
X126930000Y-33020000D03*
D12*
%TO.P,R15,2*%
%TO.N,Net-(U1-BR)*%
X126930000Y-22860000D03*
%TD*%
D15*
%TO.P,R14,1*%
%TO.N,+5V*%
X122880000Y-33020000D03*
D12*
%TO.P,R14,2*%
%TO.N,Net-(U1-BGACK)*%
X122880000Y-22860000D03*
%TD*%
D15*
%TO.P,R13,1*%
%TO.N,+5V*%
X118830000Y-33020000D03*
D12*
%TO.P,R13,2*%
%TO.N,Net-(U1-MMUDIS)*%
X118830000Y-22860000D03*
%TD*%
D15*
%TO.P,R12,1*%
%TO.N,+5V*%
X114780000Y-33020000D03*
D12*
%TO.P,R12,2*%
%TO.N,Net-(U1-CDIS)*%
X114780000Y-22860000D03*
%TD*%
D15*
%TO.P,R11,1*%
%TO.N,+5V*%
X110730000Y-33020000D03*
D12*
%TO.P,R11,2*%
%TO.N,Net-(U1-CIIN)*%
X110730000Y-22860000D03*
%TD*%
D15*
%TO.P,R10,1*%
%TO.N,+5V*%
X106680000Y-33020000D03*
D12*
%TO.P,R10,2*%
%TO.N,/{slash}INT6*%
X106680000Y-22860000D03*
%TD*%
D15*
%TO.P,R9,1*%
%TO.N,+5V*%
X102630000Y-33020000D03*
D12*
%TO.P,R9,2*%
%TO.N,/{slash}INT5*%
X102630000Y-22860000D03*
%TD*%
D15*
%TO.P,R8,1*%
%TO.N,+5V*%
X98580000Y-33020000D03*
D12*
%TO.P,R8,2*%
%TO.N,/{slash}INT4*%
X98580000Y-22860000D03*
%TD*%
D15*
%TO.P,R7,1*%
%TO.N,+5V*%
X94530000Y-33020000D03*
D12*
%TO.P,R7,2*%
%TO.N,/{slash}INT3*%
X94530000Y-22860000D03*
%TD*%
D15*
%TO.P,R6,1*%
%TO.N,+5V*%
X90480000Y-33020000D03*
D12*
%TO.P,R6,2*%
%TO.N,/{slash}INT2*%
X90480000Y-22860000D03*
%TD*%
D15*
%TO.P,R5,1*%
%TO.N,+5V*%
X86430000Y-33020000D03*
D12*
%TO.P,R5,2*%
%TO.N,/{slash}INT1*%
X86430000Y-22860000D03*
%TD*%
D15*
%TO.P,R4,1*%
%TO.N,+5V*%
X82380000Y-33020000D03*
D12*
%TO.P,R4,2*%
%TO.N,/{slash}INT0*%
X82380000Y-22860000D03*
%TD*%
D15*
%TO.P,R3,1*%
%TO.N,+5V*%
X78330000Y-33020000D03*
D12*
%TO.P,R3,2*%
%TO.N,Net-(U1-HALT)*%
X78330000Y-22860000D03*
%TD*%
D15*
%TO.P,R2,1*%
%TO.N,+5V*%
X74280000Y-33020000D03*
D12*
%TO.P,R2,2*%
%TO.N,/~{RST}*%
X74280000Y-22860000D03*
%TD*%
D15*
%TO.P,R1,1*%
%TO.N,+5V*%
X70230000Y-33020000D03*
D12*
%TO.P,R1,2*%
%TO.N,Net-(U2-THR)*%
X70230000Y-22860000D03*
%TD*%
D21*
%TO.P,H4,1*%
%TO.N,N/C*%
X176966581Y-20039581D03*
X177911162Y-17759162D03*
X177911162Y-22320000D03*
X180191581Y-16814581D03*
D22*
X180191581Y-20039581D03*
D21*
X180191581Y-23264581D03*
X182472000Y-17759162D03*
X182472000Y-22320000D03*
X183416581Y-20039581D03*
%TD*%
%TO.P,H3,1*%
%TO.N,N/C*%
X44672000Y-19920000D03*
X45616581Y-17639581D03*
X45616581Y-22200419D03*
X47897000Y-16695000D03*
D22*
X47897000Y-19920000D03*
D21*
X47897000Y-23145000D03*
X50177419Y-17639581D03*
X50177419Y-22200419D03*
X51122000Y-19920000D03*
%TD*%
%TO.P,H2,1*%
%TO.N,N/C*%
X183272000Y-177520000D03*
X182327419Y-179800419D03*
X182327419Y-175239581D03*
X180047000Y-180745000D03*
D22*
X180047000Y-177520000D03*
D21*
X180047000Y-174295000D03*
X177766581Y-179800419D03*
X177766581Y-175239581D03*
X176822000Y-177520000D03*
%TD*%
%TO.P,H1,1*%
%TO.N,N/C*%
X28177419Y-177439581D03*
X27232838Y-179720000D03*
X27232838Y-175159162D03*
X24952419Y-180664581D03*
D22*
X24952419Y-177439581D03*
D21*
X24952419Y-174214581D03*
X22672000Y-179720000D03*
X22672000Y-175159162D03*
X21727419Y-177439581D03*
%TD*%
D11*
%TO.P,C1,1*%
%TO.N,Net-(U2-THR)*%
X62359775Y-75490000D03*
D15*
%TO.P,C1,2*%
%TO.N,GND*%
X64359775Y-75490000D03*
%TD*%
D21*
%TO.P,H3,1*%
%TO.N,N/C*%
X176866581Y-20067219D03*
X177811162Y-17786800D03*
X177811162Y-22347638D03*
X180091581Y-16842219D03*
D22*
X180091581Y-20067219D03*
D21*
X180091581Y-23292219D03*
X182372000Y-17786800D03*
X182372000Y-22347638D03*
X183316581Y-20067219D03*
%TD*%
%TO.P,H4,1*%
%TO.N,N/C*%
X44766581Y-19839581D03*
X45711162Y-17559162D03*
X45711162Y-22120000D03*
X47991581Y-16614581D03*
D22*
X47991581Y-19839581D03*
D21*
X47991581Y-23064581D03*
X50272000Y-17559162D03*
X50272000Y-22120000D03*
X51216581Y-19839581D03*
%TD*%
M02*
